<svg width="480" height="180" viewBox="0 0 480 180" fill="none" xmlns="http://www.w3.org/2000/svg">
<rect width="480" height="180" rx="4" fill="#007EC6"/>
<path d="M160.448 92.184C162.968 92.184 164.97 92.408 166.454 92.856C167.966 93.276 169.058 94.032 169.73 95.124C170.402 96.216 170.738 97.756 170.738 99.744C170.738 101.816 170.332 103.398 169.52 104.49C168.736 105.554 167.434 106.17 165.614 106.338V106.59C167.854 106.786 169.422 107.542 170.318 108.858C171.214 110.146 171.662 111.952 171.662 114.276C171.662 116.264 171.312 117.804 170.612 118.896C169.94 119.988 168.876 120.758 167.42 121.206C165.992 121.626 164.116 121.836 161.792 121.836C159.916 121.836 158.278 121.822 156.878 121.794C155.506 121.794 154.232 121.766 153.056 121.71C151.88 121.654 150.676 121.584 149.444 121.5L150.074 117.048C150.746 117.076 152.034 117.104 153.938 117.132C155.87 117.16 158.11 117.174 160.658 117.174C161.834 117.174 162.758 117.062 163.43 116.838C164.102 116.614 164.564 116.208 164.816 115.62C165.096 115.004 165.236 114.136 165.236 113.016C165.236 111.812 165.096 110.902 164.816 110.286C164.536 109.642 164.046 109.194 163.346 108.942C162.674 108.69 161.736 108.55 160.532 108.522H150.032V104.448H160.448C161.484 104.42 162.296 104.308 162.884 104.112C163.5 103.916 163.934 103.538 164.186 102.978C164.438 102.418 164.564 101.634 164.564 100.626C164.564 99.59 164.424 98.806 164.144 98.274C163.892 97.714 163.444 97.336 162.8 97.14C162.156 96.944 161.26 96.846 160.112 96.846C158.544 96.846 157.158 96.846 155.954 96.846C154.75 96.846 153.672 96.86 152.72 96.888C151.768 96.888 150.886 96.916 150.074 96.972L149.444 92.52C150.564 92.408 151.642 92.338 152.678 92.31C153.742 92.254 154.89 92.226 156.122 92.226C157.354 92.198 158.796 92.184 160.448 92.184ZM155.744 92.52V121.5H149.444V92.52H155.744ZM182.273 92.394C183.841 92.394 185.423 92.408 187.019 92.436C188.615 92.436 190.183 92.464 191.723 92.52C193.263 92.576 194.705 92.674 196.049 92.814L195.755 97.476H184.625C183.925 97.476 183.393 97.658 183.029 98.022C182.693 98.386 182.525 98.918 182.525 99.618V114.402C182.525 115.102 182.693 115.634 183.029 115.998C183.393 116.362 183.925 116.544 184.625 116.544H195.755L196.049 121.206C194.705 121.318 193.263 121.416 191.723 121.5C190.183 121.556 188.615 121.584 187.019 121.584C185.423 121.612 183.841 121.626 182.273 121.626C180.425 121.626 178.927 121.094 177.779 120.03C176.659 118.938 176.099 117.524 176.099 115.788V98.232C176.099 96.468 176.659 95.054 177.779 93.99C178.927 92.926 180.425 92.394 182.273 92.394ZM176.855 104.154H194.201V108.69H176.855V104.154ZM207.058 92.52V121.5H200.632V92.52H207.058ZM217.81 103.65V108.48H206.722V103.65H217.81ZM223.774 92.52V121.5H217.348V92.52H223.774ZM243.489 92.52C244.021 92.52 244.483 92.674 244.875 92.982C245.295 93.29 245.575 93.696 245.715 94.2L254.115 121.5H247.563L241.641 100.206C241.529 99.73 241.417 99.254 241.305 98.778C241.193 98.274 241.095 97.798 241.011 97.35H239.877C239.793 97.798 239.695 98.274 239.583 98.778C239.499 99.254 239.387 99.73 239.247 100.206L233.325 121.5H226.731L235.173 94.2C235.313 93.696 235.579 93.29 235.971 92.982C236.391 92.674 236.867 92.52 237.399 92.52H243.489ZM247.941 109.026V113.856H232.905V109.026H247.941ZM281.597 92.52V119.19C281.597 120.73 280.827 121.5 279.287 121.5H275.759C275.059 121.5 274.527 121.346 274.163 121.038C273.799 120.702 273.463 120.212 273.155 119.568L265.133 104.364C264.797 103.72 264.461 103.006 264.125 102.222C263.817 101.438 263.551 100.682 263.327 99.954H262.865C262.949 100.71 263.019 101.48 263.075 102.264C263.131 103.02 263.159 103.776 263.159 104.532V121.5H257.069V94.83C257.069 93.29 257.853 92.52 259.421 92.52H262.907C263.579 92.52 264.083 92.688 264.419 93.024C264.783 93.332 265.133 93.808 265.469 94.452L273.239 109.194C273.575 109.838 273.925 110.552 274.289 111.336C274.653 112.12 275.003 112.932 275.339 113.772H275.843C275.759 112.932 275.689 112.12 275.633 111.336C275.605 110.524 275.591 109.726 275.591 108.942L275.549 92.52H281.597ZM298.719 92.016C300.091 92.016 301.253 92.058 302.205 92.142C303.185 92.198 304.081 92.296 304.893 92.436C305.705 92.576 306.545 92.772 307.413 93.024L306.909 97.728C305.985 97.672 305.131 97.63 304.347 97.602C303.591 97.574 302.765 97.56 301.869 97.56C301.001 97.532 299.951 97.518 298.719 97.518C297.291 97.518 296.171 97.798 295.359 98.358C294.575 98.918 294.015 99.898 293.679 101.298C293.343 102.67 293.175 104.574 293.175 107.01C293.175 109.446 293.343 111.364 293.679 112.764C294.015 114.136 294.575 115.102 295.359 115.662C296.171 116.222 297.291 116.502 298.719 116.502C300.651 116.502 302.275 116.474 303.591 116.418C304.907 116.362 306.209 116.264 307.497 116.124L308.043 120.828C306.699 121.248 305.327 121.542 303.927 121.71C302.527 121.906 300.791 122.004 298.719 122.004C295.723 122.004 293.315 121.528 291.495 120.576C289.703 119.596 288.401 118.014 287.589 115.83C286.805 113.646 286.413 110.706 286.413 107.01C286.413 103.314 286.805 100.374 287.589 98.19C288.401 96.006 289.703 94.438 291.495 93.486C293.315 92.506 295.723 92.016 298.719 92.016ZM318.035 92.394C319.603 92.394 321.185 92.408 322.781 92.436C324.377 92.436 325.945 92.464 327.485 92.52C329.025 92.576 330.467 92.674 331.811 92.814L331.517 97.476H320.387C319.687 97.476 319.155 97.658 318.791 98.022C318.455 98.386 318.287 98.918 318.287 99.618V114.402C318.287 115.102 318.455 115.634 318.791 115.998C319.155 116.362 319.687 116.544 320.387 116.544H331.517L331.811 121.206C330.467 121.318 329.025 121.416 327.485 121.5C325.945 121.556 324.377 121.584 322.781 121.584C321.185 121.612 319.603 121.626 318.035 121.626C316.187 121.626 314.689 121.094 313.541 120.03C312.421 118.938 311.861 117.524 311.861 115.788V98.232C311.861 96.468 312.421 95.054 313.541 93.99C314.689 92.926 316.187 92.394 318.035 92.394ZM312.617 104.154H329.963V108.69H312.617V104.154Z" fill="white"/>
<path d="M206.664 57.724C207.88 57.724 208.904 57.868 209.736 58.156C210.584 58.444 211.264 58.916 211.776 59.572C212.288 60.212 212.656 61.084 212.88 62.188C213.12 63.276 213.24 64.62 213.24 66.22C213.24 67.82 213.12 69.172 212.88 70.276C212.656 71.364 212.288 72.236 211.776 72.892C211.264 73.532 210.584 73.996 209.736 74.284C208.904 74.572 207.88 74.716 206.664 74.716C205.512 74.716 204.44 74.692 203.448 74.644C202.472 74.612 201.544 74.564 200.664 74.5L201.672 72.58C202.344 72.612 203.088 72.644 203.904 72.676C204.736 72.692 205.656 72.7 206.664 72.7C207.688 72.7 208.496 72.5 209.088 72.1C209.68 71.7 210.096 71.036 210.336 70.108C210.592 69.164 210.72 67.868 210.72 66.22C210.72 64.572 210.592 63.284 210.336 62.356C210.096 61.412 209.68 60.74 209.088 60.34C208.496 59.924 207.688 59.716 206.664 59.716C205.672 59.716 204.784 59.724 204 59.74C203.216 59.756 202.448 59.772 201.696 59.788L200.664 57.94C201.544 57.876 202.472 57.828 203.448 57.796C204.44 57.748 205.512 57.724 206.664 57.724ZM203.064 57.94V74.5H200.664V57.94H203.064ZM219.792 57.916C220.592 57.916 221.408 57.916 222.24 57.916C223.072 57.916 223.888 57.932 224.688 57.964C225.504 57.98 226.28 58.012 227.016 58.06L226.92 59.908H220.32C219.84 59.908 219.488 60.028 219.264 60.268C219.04 60.508 218.928 60.892 218.928 61.42V71.02C218.928 71.548 219.04 71.94 219.264 72.196C219.488 72.436 219.84 72.556 220.32 72.556H226.92L227.016 74.38C226.28 74.428 225.504 74.46 224.688 74.476C223.888 74.492 223.072 74.5 222.24 74.5C221.408 74.516 220.592 74.524 219.792 74.524C218.8 74.524 218.008 74.26 217.416 73.732C216.84 73.188 216.544 72.468 216.528 71.572V60.868C216.544 59.956 216.84 59.236 217.416 58.708C218.008 58.18 218.8 57.916 219.792 57.916ZM216.96 64.852H225.984V66.7H216.96V64.852ZM234.948 57.652C235.748 57.668 236.572 57.708 237.42 57.772C238.284 57.836 239.14 57.964 239.988 58.156L239.82 59.86C239.132 59.828 238.356 59.804 237.492 59.788C236.644 59.772 235.82 59.764 235.02 59.764C234.46 59.764 233.98 59.78 233.58 59.812C233.18 59.844 232.852 59.932 232.596 60.076C232.34 60.22 232.148 60.452 232.02 60.772C231.908 61.092 231.852 61.532 231.852 62.092C231.852 62.94 232.012 63.54 232.332 63.892C232.652 64.228 233.172 64.484 233.892 64.66L237.228 65.548C238.508 65.868 239.388 66.412 239.868 67.18C240.348 67.932 240.588 68.948 240.588 70.228C240.588 71.188 240.476 71.964 240.252 72.556C240.044 73.148 239.708 73.604 239.244 73.924C238.796 74.244 238.212 74.468 237.492 74.596C236.772 74.724 235.916 74.788 234.924 74.788C234.38 74.788 233.66 74.764 232.764 74.716C231.868 74.668 230.836 74.532 229.668 74.308L229.836 72.556C230.78 72.588 231.548 72.62 232.14 72.652C232.748 72.668 233.268 72.676 233.7 72.676C234.132 72.676 234.564 72.676 234.996 72.676C235.796 72.676 236.428 72.62 236.892 72.508C237.356 72.38 237.684 72.14 237.876 71.788C238.068 71.42 238.164 70.892 238.164 70.204C238.164 69.612 238.092 69.148 237.948 68.812C237.82 68.476 237.604 68.228 237.3 68.068C237.012 67.892 236.636 67.748 236.172 67.636L232.74 66.7C231.54 66.364 230.692 65.82 230.196 65.068C229.7 64.316 229.452 63.316 229.452 62.068C229.452 61.108 229.556 60.332 229.764 59.74C229.988 59.148 230.324 58.708 230.772 58.42C231.22 58.116 231.788 57.916 232.476 57.82C233.164 57.708 233.988 57.652 234.948 57.652ZM246.189 57.94V74.5H243.789V57.94H246.189ZM256.619 57.628C257.211 57.628 257.771 57.644 258.299 57.676C258.843 57.708 259.363 57.764 259.859 57.844C260.371 57.908 260.867 58.012 261.347 58.156L261.107 59.932C260.595 59.884 260.083 59.852 259.571 59.836C259.075 59.804 258.587 59.788 258.107 59.788C257.627 59.772 257.163 59.764 256.715 59.764C255.867 59.764 255.147 59.844 254.555 60.004C253.963 60.164 253.491 60.476 253.139 60.94C252.803 61.404 252.555 62.068 252.395 62.932C252.235 63.796 252.155 64.924 252.155 66.316C252.155 67.9 252.259 69.156 252.467 70.084C252.691 71.012 253.051 71.684 253.547 72.1C254.059 72.516 254.739 72.724 255.587 72.724C256.179 72.724 256.715 72.644 257.195 72.484C257.675 72.324 258.123 72.116 258.539 71.86C258.971 71.588 259.379 71.316 259.763 71.044L260.075 72.436C259.803 72.756 259.411 73.108 258.899 73.492C258.403 73.86 257.819 74.172 257.147 74.428C256.475 74.684 255.715 74.812 254.867 74.812C253.635 74.812 252.627 74.508 251.843 73.9C251.075 73.292 250.507 72.356 250.139 71.092C249.787 69.812 249.611 68.172 249.611 66.172C249.611 63.996 249.835 62.284 250.283 61.036C250.731 59.788 251.467 58.908 252.491 58.396C253.515 57.884 254.891 57.628 256.619 57.628ZM261.803 64.924V74.5H260.051L259.667 72.052L259.451 71.524V64.924H261.803ZM278.335 57.94V73.564C278.335 74.188 278.039 74.5 277.447 74.5H275.383C275.111 74.5 274.895 74.436 274.735 74.308C274.591 74.18 274.463 73.996 274.351 73.756L268.927 62.572C268.783 62.252 268.615 61.892 268.423 61.492C268.231 61.076 268.087 60.692 267.991 60.34H267.631C267.663 60.708 267.687 61.084 267.703 61.468C267.719 61.836 267.727 62.212 267.727 62.596V74.5H265.375V58.876C265.375 58.252 265.679 57.94 266.287 57.94H268.279C268.551 57.94 268.767 58.004 268.927 58.132C269.087 58.26 269.223 58.444 269.335 58.684L274.567 69.58C274.743 69.916 274.927 70.3 275.119 70.732C275.327 71.164 275.527 71.588 275.719 72.004H276.103C276.071 71.572 276.047 71.148 276.031 70.732C276.015 70.3 276.007 69.876 276.007 69.46V57.94H278.335Z" fill="white"/>
</svg>
