<svg width="780" height="248" viewBox="0 0 780 248" fill="none" xmlns="http://www.w3.org/2000/svg">
<rect width="780" height="248" rx="4" fill="#007EC6"/>
<path d="M268.778 119.328C272.618 119.328 275.668 119.669 277.93 120.352C280.234 120.992 281.898 122.144 282.922 123.808C283.946 125.472 284.458 127.819 284.458 130.848C284.458 134.005 283.839 136.416 282.602 138.08C281.407 139.701 279.423 140.64 276.65 140.896V141.28C280.063 141.579 282.452 142.731 283.818 144.736C285.183 146.699 285.866 149.451 285.866 152.992C285.866 156.021 285.332 158.368 284.266 160.032C283.242 161.696 281.62 162.869 279.402 163.552C277.226 164.192 274.367 164.512 270.826 164.512C267.967 164.512 265.471 164.491 263.338 164.448C261.247 164.448 259.306 164.405 257.514 164.32C255.722 164.235 253.887 164.128 252.01 164L252.97 157.216C253.994 157.259 255.956 157.301 258.858 157.344C261.802 157.387 265.215 157.408 269.098 157.408C270.89 157.408 272.298 157.237 273.322 156.896C274.346 156.555 275.05 155.936 275.434 155.04C275.86 154.101 276.074 152.779 276.074 151.072C276.074 149.237 275.86 147.851 275.434 146.912C275.007 145.931 274.26 145.248 273.194 144.864C272.17 144.48 270.74 144.267 268.906 144.224H252.906V138.016H268.778C270.356 137.973 271.594 137.803 272.49 137.504C273.428 137.205 274.09 136.629 274.474 135.776C274.858 134.923 275.05 133.728 275.05 132.192C275.05 130.613 274.836 129.419 274.41 128.608C274.026 127.755 273.343 127.179 272.362 126.88C271.38 126.581 270.015 126.432 268.266 126.432C265.876 126.432 263.764 126.432 261.93 126.432C260.095 126.432 258.452 126.453 257.002 126.496C255.551 126.496 254.207 126.539 252.97 126.624L252.01 119.84C253.716 119.669 255.359 119.563 256.938 119.52C258.559 119.435 260.308 119.392 262.186 119.392C264.063 119.349 266.26 119.328 268.778 119.328ZM261.61 119.84V164H252.01V119.84H261.61ZM302.035 119.648C304.425 119.648 306.835 119.669 309.267 119.712C311.699 119.712 314.089 119.755 316.435 119.84C318.782 119.925 320.979 120.075 323.027 120.288L322.579 127.392H305.619C304.553 127.392 303.742 127.669 303.187 128.224C302.675 128.779 302.419 129.589 302.419 130.656V153.184C302.419 154.251 302.675 155.061 303.187 155.616C303.742 156.171 304.553 156.448 305.619 156.448H322.579L323.027 163.552C320.979 163.723 318.782 163.872 316.435 164C314.089 164.085 311.699 164.128 309.267 164.128C306.835 164.171 304.425 164.192 302.035 164.192C299.219 164.192 296.937 163.381 295.187 161.76C293.481 160.096 292.627 157.941 292.627 155.296V128.544C292.627 125.856 293.481 123.701 295.187 122.08C296.937 120.459 299.219 119.648 302.035 119.648ZM293.779 137.568H320.211V144.48H293.779V137.568ZM339.803 119.84V164H330.011V119.84H339.803ZM356.187 136.8V144.16H339.291V136.8H356.187ZM365.275 119.84V164H355.483V119.84H365.275ZM395.317 119.84C396.128 119.84 396.832 120.075 397.429 120.544C398.069 121.013 398.496 121.632 398.709 122.4L411.509 164H401.525L392.501 131.552C392.331 130.827 392.16 130.101 391.989 129.376C391.819 128.608 391.669 127.883 391.541 127.2H389.813C389.685 127.883 389.536 128.608 389.365 129.376C389.237 130.101 389.067 130.827 388.853 131.552L379.829 164H369.781L382.645 122.4C382.859 121.632 383.264 121.013 383.861 120.544C384.501 120.075 385.227 119.84 386.037 119.84H395.317ZM402.101 144.992V152.352H379.189V144.992H402.101ZM453.386 119.84V160.48C453.386 162.827 452.212 164 449.866 164H444.49C443.423 164 442.612 163.765 442.058 163.296C441.503 162.784 440.991 162.037 440.522 161.056L428.298 137.888C427.786 136.907 427.274 135.819 426.762 134.624C426.292 133.429 425.887 132.277 425.546 131.168H424.842C424.97 132.32 425.076 133.493 425.162 134.688C425.247 135.84 425.29 136.992 425.29 138.144V164H416.01V123.36C416.01 121.013 417.204 119.84 419.594 119.84H424.906C425.93 119.84 426.698 120.096 427.21 120.608C427.764 121.077 428.298 121.803 428.81 122.784L440.65 145.248C441.162 146.229 441.695 147.317 442.25 148.512C442.804 149.707 443.338 150.944 443.85 152.224H444.618C444.49 150.944 444.383 149.707 444.298 148.512C444.255 147.275 444.234 146.059 444.234 144.864L444.17 119.84H453.386ZM479.477 119.072C481.568 119.072 483.339 119.136 484.789 119.264C486.283 119.349 487.648 119.499 488.885 119.712C490.123 119.925 491.403 120.224 492.725 120.608L491.957 127.776C490.549 127.691 489.248 127.627 488.053 127.584C486.901 127.541 485.643 127.52 484.277 127.52C482.955 127.477 481.355 127.456 479.477 127.456C477.301 127.456 475.595 127.883 474.357 128.736C473.163 129.589 472.309 131.083 471.797 133.216C471.285 135.307 471.029 138.208 471.029 141.92C471.029 145.632 471.285 148.555 471.797 150.688C472.309 152.779 473.163 154.251 474.357 155.104C475.595 155.957 477.301 156.384 479.477 156.384C482.421 156.384 484.896 156.341 486.901 156.256C488.907 156.171 490.891 156.021 492.853 155.808L493.685 162.976C491.637 163.616 489.547 164.064 487.413 164.32C485.28 164.619 482.635 164.768 479.477 164.768C474.912 164.768 471.243 164.043 468.469 162.592C465.739 161.099 463.755 158.688 462.517 155.36C461.323 152.032 460.725 147.552 460.725 141.92C460.725 136.288 461.323 131.808 462.517 128.48C463.755 125.152 465.739 122.763 468.469 121.312C471.243 119.819 474.912 119.072 479.477 119.072ZM508.91 119.648C511.3 119.648 513.71 119.669 516.142 119.712C518.574 119.712 520.964 119.755 523.31 119.84C525.657 119.925 527.854 120.075 529.902 120.288L529.454 127.392H512.494C511.428 127.392 510.617 127.669 510.062 128.224C509.55 128.779 509.294 129.589 509.294 130.656V153.184C509.294 154.251 509.55 155.061 510.062 155.616C510.617 156.171 511.428 156.448 512.494 156.448H529.454L529.902 163.552C527.854 163.723 525.657 163.872 523.31 164C520.964 164.085 518.574 164.128 516.142 164.128C513.71 164.171 511.3 164.192 508.91 164.192C506.094 164.192 503.812 163.381 502.062 161.76C500.356 160.096 499.502 157.941 499.502 155.296V128.544C499.502 125.856 500.356 123.701 502.062 122.08C503.812 120.459 506.094 119.648 508.91 119.648ZM500.654 137.568H527.086V144.48H500.654V137.568Z" fill="white"/>
<path d="M356.664 78.224C357.88 78.224 358.904 78.368 359.736 78.656C360.584 78.944 361.264 79.416 361.776 80.072C362.288 80.712 362.656 81.584 362.88 82.688C363.12 83.776 363.24 85.12 363.24 86.72C363.24 88.32 363.12 89.672 362.88 90.776C362.656 91.864 362.288 92.736 361.776 93.392C361.264 94.032 360.584 94.496 359.736 94.784C358.904 95.072 357.88 95.216 356.664 95.216C355.512 95.216 354.44 95.192 353.448 95.144C352.472 95.112 351.544 95.064 350.664 95L351.672 93.08C352.344 93.112 353.088 93.144 353.904 93.176C354.736 93.192 355.656 93.2 356.664 93.2C357.688 93.2 358.496 93 359.088 92.6C359.68 92.2 360.096 91.536 360.336 90.608C360.592 89.664 360.72 88.368 360.72 86.72C360.72 85.072 360.592 83.784 360.336 82.856C360.096 81.912 359.68 81.24 359.088 80.84C358.496 80.424 357.688 80.216 356.664 80.216C355.672 80.216 354.784 80.224 354 80.24C353.216 80.256 352.448 80.272 351.696 80.288L350.664 78.44C351.544 78.376 352.472 78.328 353.448 78.296C354.44 78.248 355.512 78.224 356.664 78.224ZM353.064 78.44V95H350.664V78.44H353.064ZM369.792 78.416C370.592 78.416 371.408 78.416 372.24 78.416C373.072 78.416 373.888 78.432 374.688 78.464C375.504 78.48 376.28 78.512 377.016 78.56L376.92 80.408H370.32C369.84 80.408 369.488 80.528 369.264 80.768C369.04 81.008 368.928 81.392 368.928 81.92V91.52C368.928 92.048 369.04 92.44 369.264 92.696C369.488 92.936 369.84 93.056 370.32 93.056H376.92L377.016 94.88C376.28 94.928 375.504 94.96 374.688 94.976C373.888 94.992 373.072 95 372.24 95C371.408 95.016 370.592 95.024 369.792 95.024C368.8 95.024 368.008 94.76 367.416 94.232C366.84 93.688 366.544 92.968 366.528 92.072V81.368C366.544 80.456 366.84 79.736 367.416 79.208C368.008 78.68 368.8 78.416 369.792 78.416ZM366.96 85.352H375.984V87.2H366.96V85.352ZM384.948 78.152C385.748 78.168 386.572 78.208 387.42 78.272C388.284 78.336 389.14 78.464 389.988 78.656L389.82 80.36C389.132 80.328 388.356 80.304 387.492 80.288C386.644 80.272 385.82 80.264 385.02 80.264C384.46 80.264 383.98 80.28 383.58 80.312C383.18 80.344 382.852 80.432 382.596 80.576C382.34 80.72 382.148 80.952 382.02 81.272C381.908 81.592 381.852 82.032 381.852 82.592C381.852 83.44 382.012 84.04 382.332 84.392C382.652 84.728 383.172 84.984 383.892 85.16L387.228 86.048C388.508 86.368 389.388 86.912 389.868 87.68C390.348 88.432 390.588 89.448 390.588 90.728C390.588 91.688 390.476 92.464 390.252 93.056C390.044 93.648 389.708 94.104 389.244 94.424C388.796 94.744 388.212 94.968 387.492 95.096C386.772 95.224 385.916 95.288 384.924 95.288C384.38 95.288 383.66 95.264 382.764 95.216C381.868 95.168 380.836 95.032 379.668 94.808L379.836 93.056C380.78 93.088 381.548 93.12 382.14 93.152C382.748 93.168 383.268 93.176 383.7 93.176C384.132 93.176 384.564 93.176 384.996 93.176C385.796 93.176 386.428 93.12 386.892 93.008C387.356 92.88 387.684 92.64 387.876 92.288C388.068 91.92 388.164 91.392 388.164 90.704C388.164 90.112 388.092 89.648 387.948 89.312C387.82 88.976 387.604 88.728 387.3 88.568C387.012 88.392 386.636 88.248 386.172 88.136L382.74 87.2C381.54 86.864 380.692 86.32 380.196 85.568C379.7 84.816 379.452 83.816 379.452 82.568C379.452 81.608 379.556 80.832 379.764 80.24C379.988 79.648 380.324 79.208 380.772 78.92C381.22 78.616 381.788 78.416 382.476 78.32C383.164 78.208 383.988 78.152 384.948 78.152ZM396.189 78.44V95H393.789V78.44H396.189ZM406.619 78.128C407.211 78.128 407.771 78.144 408.299 78.176C408.843 78.208 409.363 78.264 409.859 78.344C410.371 78.408 410.867 78.512 411.347 78.656L411.107 80.432C410.595 80.384 410.083 80.352 409.571 80.336C409.075 80.304 408.587 80.288 408.107 80.288C407.627 80.272 407.163 80.264 406.715 80.264C405.867 80.264 405.147 80.344 404.555 80.504C403.963 80.664 403.491 80.976 403.139 81.44C402.803 81.904 402.555 82.568 402.395 83.432C402.235 84.296 402.155 85.424 402.155 86.816C402.155 88.4 402.259 89.656 402.467 90.584C402.691 91.512 403.051 92.184 403.547 92.6C404.059 93.016 404.739 93.224 405.587 93.224C406.179 93.224 406.715 93.144 407.195 92.984C407.675 92.824 408.123 92.616 408.539 92.36C408.971 92.088 409.379 91.816 409.763 91.544L410.075 92.936C409.803 93.256 409.411 93.608 408.899 93.992C408.403 94.36 407.819 94.672 407.147 94.928C406.475 95.184 405.715 95.312 404.867 95.312C403.635 95.312 402.627 95.008 401.843 94.4C401.075 93.792 400.507 92.856 400.139 91.592C399.787 90.312 399.611 88.672 399.611 86.672C399.611 84.496 399.835 82.784 400.283 81.536C400.731 80.288 401.467 79.408 402.491 78.896C403.515 78.384 404.891 78.128 406.619 78.128ZM411.803 85.424V95H410.051L409.667 92.552L409.451 92.024V85.424H411.803ZM428.335 78.44V94.064C428.335 94.688 428.039 95 427.447 95H425.383C425.111 95 424.895 94.936 424.735 94.808C424.591 94.68 424.463 94.496 424.351 94.256L418.927 83.072C418.783 82.752 418.615 82.392 418.423 81.992C418.231 81.576 418.087 81.192 417.991 80.84H417.631C417.663 81.208 417.687 81.584 417.703 81.968C417.719 82.336 417.727 82.712 417.727 83.096V95H415.375V79.376C415.375 78.752 415.679 78.44 416.287 78.44H418.279C418.551 78.44 418.767 78.504 418.927 78.632C419.087 78.76 419.223 78.944 419.335 79.184L424.567 90.08C424.743 90.416 424.927 90.8 425.119 91.232C425.327 91.664 425.527 92.088 425.719 92.504H426.103C426.071 92.072 426.047 91.648 426.031 91.232C426.015 90.8 426.007 90.376 426.007 89.96V78.44H428.335Z" fill="white"/>
</svg>
