<svg width="540" height="248" viewBox="0 0 540 248" fill="none" xmlns="http://www.w3.org/2000/svg">
<rect width="540" height="248" rx="4" fill="#007EC6"/>
<path d="M148.778 119.328C152.618 119.328 155.668 119.669 157.93 120.352C160.234 120.992 161.898 122.144 162.922 123.808C163.946 125.472 164.458 127.819 164.458 130.848C164.458 134.005 163.839 136.416 162.602 138.08C161.407 139.701 159.423 140.64 156.65 140.896V141.28C160.063 141.579 162.452 142.731 163.818 144.736C165.183 146.699 165.866 149.451 165.866 152.992C165.866 156.021 165.332 158.368 164.266 160.032C163.242 161.696 161.62 162.869 159.402 163.552C157.226 164.192 154.367 164.512 150.826 164.512C147.967 164.512 145.471 164.491 143.338 164.448C141.247 164.448 139.306 164.405 137.514 164.32C135.722 164.235 133.887 164.128 132.01 164L132.97 157.216C133.994 157.259 135.956 157.301 138.858 157.344C141.802 157.387 145.215 157.408 149.098 157.408C150.89 157.408 152.298 157.237 153.322 156.896C154.346 156.555 155.05 155.936 155.434 155.04C155.86 154.101 156.074 152.779 156.074 151.072C156.074 149.237 155.86 147.851 155.434 146.912C155.007 145.931 154.26 145.248 153.194 144.864C152.17 144.48 150.74 144.267 148.906 144.224H132.906V138.016H148.778C150.356 137.973 151.594 137.803 152.49 137.504C153.428 137.205 154.09 136.629 154.474 135.776C154.858 134.923 155.05 133.728 155.05 132.192C155.05 130.613 154.836 129.419 154.41 128.608C154.026 127.755 153.343 127.179 152.362 126.88C151.38 126.581 150.015 126.432 148.266 126.432C145.876 126.432 143.764 126.432 141.93 126.432C140.095 126.432 138.452 126.453 137.002 126.496C135.551 126.496 134.207 126.539 132.97 126.624L132.01 119.84C133.716 119.669 135.359 119.563 136.938 119.52C138.559 119.435 140.308 119.392 142.186 119.392C144.063 119.349 146.26 119.328 148.778 119.328ZM141.61 119.84V164H132.01V119.84H141.61ZM182.035 119.648C184.425 119.648 186.835 119.669 189.267 119.712C191.699 119.712 194.089 119.755 196.435 119.84C198.782 119.925 200.979 120.075 203.027 120.288L202.579 127.392H185.619C184.553 127.392 183.742 127.669 183.187 128.224C182.675 128.779 182.419 129.589 182.419 130.656V153.184C182.419 154.251 182.675 155.061 183.187 155.616C183.742 156.171 184.553 156.448 185.619 156.448H202.579L203.027 163.552C200.979 163.723 198.782 163.872 196.435 164C194.089 164.085 191.699 164.128 189.267 164.128C186.835 164.171 184.425 164.192 182.035 164.192C179.219 164.192 176.937 163.381 175.187 161.76C173.481 160.096 172.627 157.941 172.627 155.296V128.544C172.627 125.856 173.481 123.701 175.187 122.08C176.937 120.459 179.219 119.648 182.035 119.648ZM173.779 137.568H200.211V144.48H173.779V137.568ZM219.803 119.84V164H210.011V119.84H219.803ZM236.187 136.8V144.16H219.291V136.8H236.187ZM245.275 119.84V164H235.483V119.84H245.275ZM275.317 119.84C276.128 119.84 276.832 120.075 277.429 120.544C278.069 121.013 278.496 121.632 278.709 122.4L291.509 164H281.525L272.501 131.552C272.331 130.827 272.16 130.101 271.989 129.376C271.819 128.608 271.669 127.883 271.541 127.2H269.813C269.685 127.883 269.536 128.608 269.365 129.376C269.237 130.101 269.067 130.827 268.853 131.552L259.829 164H249.781L262.645 122.4C262.859 121.632 263.264 121.013 263.861 120.544C264.501 120.075 265.227 119.84 266.037 119.84H275.317ZM282.101 144.992V152.352H259.189V144.992H282.101ZM333.386 119.84V160.48C333.386 162.827 332.212 164 329.866 164H324.49C323.423 164 322.612 163.765 322.058 163.296C321.503 162.784 320.991 162.037 320.522 161.056L308.298 137.888C307.786 136.907 307.274 135.819 306.762 134.624C306.292 133.429 305.887 132.277 305.546 131.168H304.842C304.97 132.32 305.076 133.493 305.162 134.688C305.247 135.84 305.29 136.992 305.29 138.144V164H296.01V123.36C296.01 121.013 297.204 119.84 299.594 119.84H304.906C305.93 119.84 306.698 120.096 307.21 120.608C307.764 121.077 308.298 121.803 308.81 122.784L320.65 145.248C321.162 146.229 321.695 147.317 322.25 148.512C322.804 149.707 323.338 150.944 323.85 152.224H324.618C324.49 150.944 324.383 149.707 324.298 148.512C324.255 147.275 324.234 146.059 324.234 144.864L324.17 119.84H333.386ZM359.477 119.072C361.568 119.072 363.339 119.136 364.789 119.264C366.283 119.349 367.648 119.499 368.885 119.712C370.123 119.925 371.403 120.224 372.725 120.608L371.957 127.776C370.549 127.691 369.248 127.627 368.053 127.584C366.901 127.541 365.643 127.52 364.277 127.52C362.955 127.477 361.355 127.456 359.477 127.456C357.301 127.456 355.595 127.883 354.357 128.736C353.163 129.589 352.309 131.083 351.797 133.216C351.285 135.307 351.029 138.208 351.029 141.92C351.029 145.632 351.285 148.555 351.797 150.688C352.309 152.779 353.163 154.251 354.357 155.104C355.595 155.957 357.301 156.384 359.477 156.384C362.421 156.384 364.896 156.341 366.901 156.256C368.907 156.171 370.891 156.021 372.853 155.808L373.685 162.976C371.637 163.616 369.547 164.064 367.413 164.32C365.28 164.619 362.635 164.768 359.477 164.768C354.912 164.768 351.243 164.043 348.469 162.592C345.739 161.099 343.755 158.688 342.517 155.36C341.323 152.032 340.725 147.552 340.725 141.92C340.725 136.288 341.323 131.808 342.517 128.48C343.755 125.152 345.739 122.763 348.469 121.312C351.243 119.819 354.912 119.072 359.477 119.072ZM388.91 119.648C391.3 119.648 393.71 119.669 396.142 119.712C398.574 119.712 400.964 119.755 403.31 119.84C405.657 119.925 407.854 120.075 409.902 120.288L409.454 127.392H392.494C391.428 127.392 390.617 127.669 390.062 128.224C389.55 128.779 389.294 129.589 389.294 130.656V153.184C389.294 154.251 389.55 155.061 390.062 155.616C390.617 156.171 391.428 156.448 392.494 156.448H409.454L409.902 163.552C407.854 163.723 405.657 163.872 403.31 164C400.964 164.085 398.574 164.128 396.142 164.128C393.71 164.171 391.3 164.192 388.91 164.192C386.094 164.192 383.812 163.381 382.062 161.76C380.356 160.096 379.502 157.941 379.502 155.296V128.544C379.502 125.856 380.356 123.701 382.062 122.08C383.812 120.459 386.094 119.648 388.91 119.648ZM380.654 137.568H407.086V144.48H380.654V137.568Z" fill="white"/>
<path d="M236.664 78.224C237.88 78.224 238.904 78.368 239.736 78.656C240.584 78.944 241.264 79.416 241.776 80.072C242.288 80.712 242.656 81.584 242.88 82.688C243.12 83.776 243.24 85.12 243.24 86.72C243.24 88.32 243.12 89.672 242.88 90.776C242.656 91.864 242.288 92.736 241.776 93.392C241.264 94.032 240.584 94.496 239.736 94.784C238.904 95.072 237.88 95.216 236.664 95.216C235.512 95.216 234.44 95.192 233.448 95.144C232.472 95.112 231.544 95.064 230.664 95L231.672 93.08C232.344 93.112 233.088 93.144 233.904 93.176C234.736 93.192 235.656 93.2 236.664 93.2C237.688 93.2 238.496 93 239.088 92.6C239.68 92.2 240.096 91.536 240.336 90.608C240.592 89.664 240.72 88.368 240.72 86.72C240.72 85.072 240.592 83.784 240.336 82.856C240.096 81.912 239.68 81.24 239.088 80.84C238.496 80.424 237.688 80.216 236.664 80.216C235.672 80.216 234.784 80.224 234 80.24C233.216 80.256 232.448 80.272 231.696 80.288L230.664 78.44C231.544 78.376 232.472 78.328 233.448 78.296C234.44 78.248 235.512 78.224 236.664 78.224ZM233.064 78.44V95H230.664V78.44H233.064ZM249.792 78.416C250.592 78.416 251.408 78.416 252.24 78.416C253.072 78.416 253.888 78.432 254.688 78.464C255.504 78.48 256.28 78.512 257.016 78.56L256.92 80.408H250.32C249.84 80.408 249.488 80.528 249.264 80.768C249.04 81.008 248.928 81.392 248.928 81.92V91.52C248.928 92.048 249.04 92.44 249.264 92.696C249.488 92.936 249.84 93.056 250.32 93.056H256.92L257.016 94.88C256.28 94.928 255.504 94.96 254.688 94.976C253.888 94.992 253.072 95 252.24 95C251.408 95.016 250.592 95.024 249.792 95.024C248.8 95.024 248.008 94.76 247.416 94.232C246.84 93.688 246.544 92.968 246.528 92.072V81.368C246.544 80.456 246.84 79.736 247.416 79.208C248.008 78.68 248.8 78.416 249.792 78.416ZM246.96 85.352H255.984V87.2H246.96V85.352ZM264.948 78.152C265.748 78.168 266.572 78.208 267.42 78.272C268.284 78.336 269.14 78.464 269.988 78.656L269.82 80.36C269.132 80.328 268.356 80.304 267.492 80.288C266.644 80.272 265.82 80.264 265.02 80.264C264.46 80.264 263.98 80.28 263.58 80.312C263.18 80.344 262.852 80.432 262.596 80.576C262.34 80.72 262.148 80.952 262.02 81.272C261.908 81.592 261.852 82.032 261.852 82.592C261.852 83.44 262.012 84.04 262.332 84.392C262.652 84.728 263.172 84.984 263.892 85.16L267.228 86.048C268.508 86.368 269.388 86.912 269.868 87.68C270.348 88.432 270.588 89.448 270.588 90.728C270.588 91.688 270.476 92.464 270.252 93.056C270.044 93.648 269.708 94.104 269.244 94.424C268.796 94.744 268.212 94.968 267.492 95.096C266.772 95.224 265.916 95.288 264.924 95.288C264.38 95.288 263.66 95.264 262.764 95.216C261.868 95.168 260.836 95.032 259.668 94.808L259.836 93.056C260.78 93.088 261.548 93.12 262.14 93.152C262.748 93.168 263.268 93.176 263.7 93.176C264.132 93.176 264.564 93.176 264.996 93.176C265.796 93.176 266.428 93.12 266.892 93.008C267.356 92.88 267.684 92.64 267.876 92.288C268.068 91.92 268.164 91.392 268.164 90.704C268.164 90.112 268.092 89.648 267.948 89.312C267.82 88.976 267.604 88.728 267.3 88.568C267.012 88.392 266.636 88.248 266.172 88.136L262.74 87.2C261.54 86.864 260.692 86.32 260.196 85.568C259.7 84.816 259.452 83.816 259.452 82.568C259.452 81.608 259.556 80.832 259.764 80.24C259.988 79.648 260.324 79.208 260.772 78.92C261.22 78.616 261.788 78.416 262.476 78.32C263.164 78.208 263.988 78.152 264.948 78.152ZM276.189 78.44V95H273.789V78.44H276.189ZM286.619 78.128C287.211 78.128 287.771 78.144 288.299 78.176C288.843 78.208 289.363 78.264 289.859 78.344C290.371 78.408 290.867 78.512 291.347 78.656L291.107 80.432C290.595 80.384 290.083 80.352 289.571 80.336C289.075 80.304 288.587 80.288 288.107 80.288C287.627 80.272 287.163 80.264 286.715 80.264C285.867 80.264 285.147 80.344 284.555 80.504C283.963 80.664 283.491 80.976 283.139 81.44C282.803 81.904 282.555 82.568 282.395 83.432C282.235 84.296 282.155 85.424 282.155 86.816C282.155 88.4 282.259 89.656 282.467 90.584C282.691 91.512 283.051 92.184 283.547 92.6C284.059 93.016 284.739 93.224 285.587 93.224C286.179 93.224 286.715 93.144 287.195 92.984C287.675 92.824 288.123 92.616 288.539 92.36C288.971 92.088 289.379 91.816 289.763 91.544L290.075 92.936C289.803 93.256 289.411 93.608 288.899 93.992C288.403 94.36 287.819 94.672 287.147 94.928C286.475 95.184 285.715 95.312 284.867 95.312C283.635 95.312 282.627 95.008 281.843 94.4C281.075 93.792 280.507 92.856 280.139 91.592C279.787 90.312 279.611 88.672 279.611 86.672C279.611 84.496 279.835 82.784 280.283 81.536C280.731 80.288 281.467 79.408 282.491 78.896C283.515 78.384 284.891 78.128 286.619 78.128ZM291.803 85.424V95H290.051L289.667 92.552L289.451 92.024V85.424H291.803ZM308.335 78.44V94.064C308.335 94.688 308.039 95 307.447 95H305.383C305.111 95 304.895 94.936 304.735 94.808C304.591 94.68 304.463 94.496 304.351 94.256L298.927 83.072C298.783 82.752 298.615 82.392 298.423 81.992C298.231 81.576 298.087 81.192 297.991 80.84H297.631C297.663 81.208 297.687 81.584 297.703 81.968C297.719 82.336 297.727 82.712 297.727 83.096V95H295.375V79.376C295.375 78.752 295.679 78.44 296.287 78.44H298.279C298.551 78.44 298.767 78.504 298.927 78.632C299.087 78.76 299.223 78.944 299.335 79.184L304.567 90.08C304.743 90.416 304.927 90.8 305.119 91.232C305.327 91.664 305.527 92.088 305.719 92.504H306.103C306.071 92.072 306.047 91.648 306.031 91.232C306.015 90.8 306.007 90.376 306.007 89.96V78.44H308.335Z" fill="white"/>
</svg>
