<svg width="480" height="243" viewBox="0 0 480 243" fill="none" xmlns="http://www.w3.org/2000/svg">
<rect width="480" height="243" rx="4" fill="#007EC6"/>
<path d="M141.507 120.704C144.627 120.704 147.106 120.981 148.943 121.536C150.815 122.056 152.167 122.992 152.999 124.344C153.831 125.696 154.247 127.603 154.247 130.064C154.247 132.629 153.744 134.588 152.739 135.94C151.768 137.257 150.156 138.02 147.903 138.228V138.54C150.676 138.783 152.618 139.719 153.727 141.348C154.836 142.943 155.391 145.179 155.391 148.056C155.391 150.517 154.958 152.424 154.091 153.776C153.259 155.128 151.942 156.081 150.139 156.636C148.371 157.156 146.048 157.416 143.171 157.416C140.848 157.416 138.82 157.399 137.087 157.364C135.388 157.364 133.811 157.329 132.355 157.26C130.899 157.191 129.408 157.104 127.883 157L128.663 151.488C129.495 151.523 131.09 151.557 133.447 151.592C135.839 151.627 138.612 151.644 141.767 151.644C143.223 151.644 144.367 151.505 145.199 151.228C146.031 150.951 146.603 150.448 146.915 149.72C147.262 148.957 147.435 147.883 147.435 146.496C147.435 145.005 147.262 143.879 146.915 143.116C146.568 142.319 145.962 141.764 145.095 141.452C144.263 141.14 143.102 140.967 141.611 140.932H128.611V135.888H141.507C142.79 135.853 143.795 135.715 144.523 135.472C145.286 135.229 145.823 134.761 146.135 134.068C146.447 133.375 146.603 132.404 146.603 131.156C146.603 129.873 146.43 128.903 146.083 128.244C145.771 127.551 145.216 127.083 144.419 126.84C143.622 126.597 142.512 126.476 141.091 126.476C139.15 126.476 137.434 126.476 135.943 126.476C134.452 126.476 133.118 126.493 131.939 126.528C130.76 126.528 129.668 126.563 128.663 126.632L127.883 121.12C129.27 120.981 130.604 120.895 131.887 120.86C133.204 120.791 134.626 120.756 136.151 120.756C137.676 120.721 139.462 120.704 141.507 120.704ZM135.683 121.12V157H127.883V121.12H135.683ZM168.529 120.964C170.47 120.964 172.429 120.981 174.405 121.016C176.381 121.016 178.322 121.051 180.229 121.12C182.135 121.189 183.921 121.311 185.585 121.484L185.221 127.256H171.441C170.574 127.256 169.915 127.481 169.465 127.932C169.049 128.383 168.841 129.041 168.841 129.908V148.212C168.841 149.079 169.049 149.737 169.465 150.188C169.915 150.639 170.574 150.864 171.441 150.864H185.221L185.585 156.636C183.921 156.775 182.135 156.896 180.229 157C178.322 157.069 176.381 157.104 174.405 157.104C172.429 157.139 170.47 157.156 168.529 157.156C166.241 157.156 164.386 156.497 162.965 155.18C161.578 153.828 160.885 152.077 160.885 149.928V128.192C160.885 126.008 161.578 124.257 162.965 122.94C164.386 121.623 166.241 120.964 168.529 120.964ZM161.821 135.524H183.297V141.14H161.821V135.524ZM199.215 121.12V157H191.259V121.12H199.215ZM212.527 134.9V140.88H198.799V134.9H212.527ZM219.911 121.12V157H211.955V121.12H219.911ZM244.32 121.12C244.979 121.12 245.551 121.311 246.036 121.692C246.556 122.073 246.903 122.576 247.076 123.2L257.476 157H249.364L242.032 130.636C241.894 130.047 241.755 129.457 241.616 128.868C241.478 128.244 241.356 127.655 241.252 127.1H239.848C239.744 127.655 239.623 128.244 239.484 128.868C239.38 129.457 239.242 130.047 239.068 130.636L231.736 157H223.572L234.024 123.2C234.198 122.576 234.527 122.073 235.012 121.692C235.532 121.311 236.122 121.12 236.78 121.12H244.32ZM249.832 141.556V147.536H231.216V141.556H249.832ZM291.501 121.12V154.14C291.501 156.047 290.548 157 288.641 157H284.273C283.406 157 282.748 156.809 282.297 156.428C281.846 156.012 281.43 155.405 281.049 154.608L271.117 135.784C270.701 134.987 270.285 134.103 269.869 133.132C269.488 132.161 269.158 131.225 268.881 130.324H268.309C268.413 131.26 268.5 132.213 268.569 133.184C268.638 134.12 268.673 135.056 268.673 135.992V157H261.133V123.98C261.133 122.073 262.104 121.12 264.045 121.12H268.361C269.193 121.12 269.817 121.328 270.233 121.744C270.684 122.125 271.117 122.715 271.533 123.512L281.153 141.764C281.569 142.561 282.002 143.445 282.453 144.416C282.904 145.387 283.337 146.392 283.753 147.432H284.377C284.273 146.392 284.186 145.387 284.117 144.416C284.082 143.411 284.065 142.423 284.065 141.452L284.013 121.12H291.501ZM312.7 120.496C314.399 120.496 315.838 120.548 317.016 120.652C318.23 120.721 319.339 120.843 320.344 121.016C321.35 121.189 322.39 121.432 323.464 121.744L322.84 127.568C321.696 127.499 320.639 127.447 319.668 127.412C318.732 127.377 317.71 127.36 316.6 127.36C315.526 127.325 314.226 127.308 312.7 127.308C310.932 127.308 309.546 127.655 308.54 128.348C307.57 129.041 306.876 130.255 306.46 131.988C306.044 133.687 305.836 136.044 305.836 139.06C305.836 142.076 306.044 144.451 306.46 146.184C306.876 147.883 307.57 149.079 308.54 149.772C309.546 150.465 310.932 150.812 312.7 150.812C315.092 150.812 317.103 150.777 318.732 150.708C320.362 150.639 321.974 150.517 323.568 150.344L324.244 156.168C322.58 156.688 320.882 157.052 319.148 157.26C317.415 157.503 315.266 157.624 312.7 157.624C308.991 157.624 306.01 157.035 303.756 155.856C301.538 154.643 299.926 152.684 298.92 149.98C297.95 147.276 297.464 143.636 297.464 139.06C297.464 134.484 297.95 130.844 298.92 128.14C299.926 125.436 301.538 123.495 303.756 122.316C306.01 121.103 308.991 120.496 312.7 120.496ZM336.615 120.964C338.556 120.964 340.515 120.981 342.491 121.016C344.467 121.016 346.408 121.051 348.315 121.12C350.221 121.189 352.007 121.311 353.671 121.484L353.307 127.256H339.527C338.66 127.256 338.001 127.481 337.551 127.932C337.135 128.383 336.927 129.041 336.927 129.908V148.212C336.927 149.079 337.135 149.737 337.551 150.188C338.001 150.639 338.66 150.864 339.527 150.864H353.307L353.671 156.636C352.007 156.775 350.221 156.896 348.315 157C346.408 157.069 344.467 157.104 342.491 157.104C340.515 157.139 338.556 157.156 336.615 157.156C334.327 157.156 332.472 156.497 331.051 155.18C329.664 153.828 328.971 152.077 328.971 149.928V128.192C328.971 126.008 329.664 124.257 331.051 122.94C332.472 121.623 334.327 120.964 336.615 120.964ZM329.907 135.524H351.383V141.14H329.907V135.524Z" fill="white"/>
<path d="M207.164 83.224C208.38 83.224 209.404 83.368 210.236 83.656C211.084 83.944 211.764 84.416 212.276 85.072C212.788 85.712 213.156 86.584 213.38 87.688C213.62 88.776 213.74 90.12 213.74 91.72C213.74 93.32 213.62 94.672 213.38 95.776C213.156 96.864 212.788 97.736 212.276 98.392C211.764 99.032 211.084 99.496 210.236 99.784C209.404 100.072 208.38 100.216 207.164 100.216C206.012 100.216 204.94 100.192 203.948 100.144C202.972 100.112 202.044 100.064 201.164 100L202.172 98.08C202.844 98.112 203.588 98.144 204.404 98.176C205.236 98.192 206.156 98.2 207.164 98.2C208.188 98.2 208.996 98 209.588 97.6C210.18 97.2 210.596 96.536 210.836 95.608C211.092 94.664 211.22 93.368 211.22 91.72C211.22 90.072 211.092 88.784 210.836 87.856C210.596 86.912 210.18 86.24 209.588 85.84C208.996 85.424 208.188 85.216 207.164 85.216C206.172 85.216 205.284 85.224 204.5 85.24C203.716 85.256 202.948 85.272 202.196 85.288L201.164 83.44C202.044 83.376 202.972 83.328 203.948 83.296C204.94 83.248 206.012 83.224 207.164 83.224ZM203.564 83.44V100H201.164V83.44H203.564ZM220.292 83.416C221.092 83.416 221.908 83.416 222.74 83.416C223.572 83.416 224.388 83.432 225.188 83.464C226.004 83.48 226.78 83.512 227.516 83.56L227.42 85.408H220.82C220.34 85.408 219.988 85.528 219.764 85.768C219.54 86.008 219.428 86.392 219.428 86.92V96.52C219.428 97.048 219.54 97.44 219.764 97.696C219.988 97.936 220.34 98.056 220.82 98.056H227.42L227.516 99.88C226.78 99.928 226.004 99.96 225.188 99.976C224.388 99.992 223.572 100 222.74 100C221.908 100.016 221.092 100.024 220.292 100.024C219.3 100.024 218.508 99.76 217.916 99.232C217.34 98.688 217.044 97.968 217.028 97.072V86.368C217.044 85.456 217.34 84.736 217.916 84.208C218.508 83.68 219.3 83.416 220.292 83.416ZM217.46 90.352H226.484V92.2H217.46V90.352ZM235.448 83.152C236.248 83.168 237.072 83.208 237.92 83.272C238.784 83.336 239.64 83.464 240.488 83.656L240.32 85.36C239.632 85.328 238.856 85.304 237.992 85.288C237.144 85.272 236.32 85.264 235.52 85.264C234.96 85.264 234.48 85.28 234.08 85.312C233.68 85.344 233.352 85.432 233.096 85.576C232.84 85.72 232.648 85.952 232.52 86.272C232.408 86.592 232.352 87.032 232.352 87.592C232.352 88.44 232.512 89.04 232.832 89.392C233.152 89.728 233.672 89.984 234.392 90.16L237.728 91.048C239.008 91.368 239.888 91.912 240.368 92.68C240.848 93.432 241.088 94.448 241.088 95.728C241.088 96.688 240.976 97.464 240.752 98.056C240.544 98.648 240.208 99.104 239.744 99.424C239.296 99.744 238.712 99.968 237.992 100.096C237.272 100.224 236.416 100.288 235.424 100.288C234.88 100.288 234.16 100.264 233.264 100.216C232.368 100.168 231.336 100.032 230.168 99.808L230.336 98.056C231.28 98.088 232.048 98.12 232.64 98.152C233.248 98.168 233.768 98.176 234.2 98.176C234.632 98.176 235.064 98.176 235.496 98.176C236.296 98.176 236.928 98.12 237.392 98.008C237.856 97.88 238.184 97.64 238.376 97.288C238.568 96.92 238.664 96.392 238.664 95.704C238.664 95.112 238.592 94.648 238.448 94.312C238.32 93.976 238.104 93.728 237.8 93.568C237.512 93.392 237.136 93.248 236.672 93.136L233.24 92.2C232.04 91.864 231.192 91.32 230.696 90.568C230.2 89.816 229.952 88.816 229.952 87.568C229.952 86.608 230.056 85.832 230.264 85.24C230.488 84.648 230.824 84.208 231.272 83.92C231.72 83.616 232.288 83.416 232.976 83.32C233.664 83.208 234.488 83.152 235.448 83.152ZM246.689 83.44V100H244.289V83.44H246.689ZM257.119 83.128C257.711 83.128 258.271 83.144 258.799 83.176C259.343 83.208 259.863 83.264 260.359 83.344C260.871 83.408 261.367 83.512 261.847 83.656L261.607 85.432C261.095 85.384 260.583 85.352 260.071 85.336C259.575 85.304 259.087 85.288 258.607 85.288C258.127 85.272 257.663 85.264 257.215 85.264C256.367 85.264 255.647 85.344 255.055 85.504C254.463 85.664 253.991 85.976 253.639 86.44C253.303 86.904 253.055 87.568 252.895 88.432C252.735 89.296 252.655 90.424 252.655 91.816C252.655 93.4 252.759 94.656 252.967 95.584C253.191 96.512 253.551 97.184 254.047 97.6C254.559 98.016 255.239 98.224 256.087 98.224C256.679 98.224 257.215 98.144 257.695 97.984C258.175 97.824 258.623 97.616 259.039 97.36C259.471 97.088 259.879 96.816 260.263 96.544L260.575 97.936C260.303 98.256 259.911 98.608 259.399 98.992C258.903 99.36 258.319 99.672 257.647 99.928C256.975 100.184 256.215 100.312 255.367 100.312C254.135 100.312 253.127 100.008 252.343 99.4C251.575 98.792 251.007 97.856 250.639 96.592C250.287 95.312 250.111 93.672 250.111 91.672C250.111 89.496 250.335 87.784 250.783 86.536C251.231 85.288 251.967 84.408 252.991 83.896C254.015 83.384 255.391 83.128 257.119 83.128ZM262.303 90.424V100H260.551L260.167 97.552L259.951 97.024V90.424H262.303ZM278.835 83.44V99.064C278.835 99.688 278.539 100 277.947 100H275.883C275.611 100 275.395 99.936 275.235 99.808C275.091 99.68 274.963 99.496 274.851 99.256L269.427 88.072C269.283 87.752 269.115 87.392 268.923 86.992C268.731 86.576 268.587 86.192 268.491 85.84H268.131C268.163 86.208 268.187 86.584 268.203 86.968C268.219 87.336 268.227 87.712 268.227 88.096V100H265.875V84.376C265.875 83.752 266.179 83.44 266.787 83.44H268.779C269.051 83.44 269.267 83.504 269.427 83.632C269.587 83.76 269.723 83.944 269.835 84.184L275.067 95.08C275.243 95.416 275.427 95.8 275.619 96.232C275.827 96.664 276.027 97.088 276.219 97.504H276.603C276.571 97.072 276.547 96.648 276.531 96.232C276.515 95.8 276.507 95.376 276.507 94.96V83.44H278.835Z" fill="white"/>
</svg>
