<svg width="715" height="276" viewBox="0 0 715 276" fill="none" xmlns="http://www.w3.org/2000/svg">
<rect width="714.82" height="276" rx="4" fill="#007EC6"/>
<path d="M236.278 119.328C240.118 119.328 243.168 119.669 245.43 120.352C247.734 120.992 249.398 122.144 250.422 123.808C251.446 125.472 251.958 127.819 251.958 130.848C251.958 134.005 251.339 136.416 250.102 138.08C248.907 139.701 246.923 140.64 244.15 140.896V141.28C247.563 141.579 249.952 142.731 251.318 144.736C252.683 146.699 253.366 149.451 253.366 152.992C253.366 156.021 252.832 158.368 251.766 160.032C250.742 161.696 249.12 162.869 246.902 163.552C244.726 164.192 241.867 164.512 238.326 164.512C235.467 164.512 232.971 164.491 230.838 164.448C228.747 164.448 226.806 164.405 225.014 164.32C223.222 164.235 221.387 164.128 219.51 164L220.47 157.216C221.494 157.259 223.456 157.301 226.358 157.344C229.302 157.387 232.715 157.408 236.598 157.408C238.39 157.408 239.798 157.237 240.822 156.896C241.846 156.555 242.55 155.936 242.934 155.04C243.36 154.101 243.574 152.779 243.574 151.072C243.574 149.237 243.36 147.851 242.934 146.912C242.507 145.931 241.76 145.248 240.694 144.864C239.67 144.48 238.24 144.267 236.406 144.224H220.406V138.016H236.278C237.856 137.973 239.094 137.803 239.99 137.504C240.928 137.205 241.59 136.629 241.974 135.776C242.358 134.923 242.55 133.728 242.55 132.192C242.55 130.613 242.336 129.419 241.91 128.608C241.526 127.755 240.843 127.179 239.862 126.88C238.88 126.581 237.515 126.432 235.766 126.432C233.376 126.432 231.264 126.432 229.43 126.432C227.595 126.432 225.952 126.453 224.502 126.496C223.051 126.496 221.707 126.539 220.47 126.624L219.51 119.84C221.216 119.669 222.859 119.563 224.438 119.52C226.059 119.435 227.808 119.392 229.686 119.392C231.563 119.349 233.76 119.328 236.278 119.328ZM229.11 119.84V164H219.51V119.84H229.11ZM269.535 119.648C271.925 119.648 274.335 119.669 276.767 119.712C279.199 119.712 281.589 119.755 283.935 119.84C286.282 119.925 288.479 120.075 290.527 120.288L290.079 127.392H273.119C272.053 127.392 271.242 127.669 270.687 128.224C270.175 128.779 269.919 129.589 269.919 130.656V153.184C269.919 154.251 270.175 155.061 270.687 155.616C271.242 156.171 272.053 156.448 273.119 156.448H290.079L290.527 163.552C288.479 163.723 286.282 163.872 283.935 164C281.589 164.085 279.199 164.128 276.767 164.128C274.335 164.171 271.925 164.192 269.535 164.192C266.719 164.192 264.437 163.381 262.687 161.76C260.981 160.096 260.127 157.941 260.127 155.296V128.544C260.127 125.856 260.981 123.701 262.687 122.08C264.437 120.459 266.719 119.648 269.535 119.648ZM261.279 137.568H287.711V144.48H261.279V137.568ZM307.303 119.84V164H297.511V119.84H307.303ZM323.687 136.8V144.16H306.791V136.8H323.687ZM332.775 119.84V164H322.983V119.84H332.775ZM362.817 119.84C363.628 119.84 364.332 120.075 364.929 120.544C365.569 121.013 365.996 121.632 366.209 122.4L379.009 164H369.025L360.001 131.552C359.831 130.827 359.66 130.101 359.489 129.376C359.319 128.608 359.169 127.883 359.041 127.2H357.313C357.185 127.883 357.036 128.608 356.865 129.376C356.737 130.101 356.567 130.827 356.353 131.552L347.329 164H337.281L350.145 122.4C350.359 121.632 350.764 121.013 351.361 120.544C352.001 120.075 352.727 119.84 353.537 119.84H362.817ZM369.601 144.992V152.352H346.689V144.992H369.601ZM420.886 119.84V160.48C420.886 162.827 419.712 164 417.366 164H411.99C410.923 164 410.112 163.765 409.558 163.296C409.003 162.784 408.491 162.037 408.022 161.056L395.798 137.888C395.286 136.907 394.774 135.819 394.262 134.624C393.792 133.429 393.387 132.277 393.046 131.168H392.342C392.47 132.32 392.576 133.493 392.662 134.688C392.747 135.84 392.79 136.992 392.79 138.144V164H383.51V123.36C383.51 121.013 384.704 119.84 387.094 119.84H392.406C393.43 119.84 394.198 120.096 394.71 120.608C395.264 121.077 395.798 121.803 396.31 122.784L408.15 145.248C408.662 146.229 409.195 147.317 409.75 148.512C410.304 149.707 410.838 150.944 411.35 152.224H412.118C411.99 150.944 411.883 149.707 411.798 148.512C411.755 147.275 411.734 146.059 411.734 144.864L411.67 119.84H420.886ZM446.977 119.072C449.068 119.072 450.839 119.136 452.289 119.264C453.783 119.349 455.148 119.499 456.385 119.712C457.623 119.925 458.903 120.224 460.225 120.608L459.457 127.776C458.049 127.691 456.748 127.627 455.553 127.584C454.401 127.541 453.143 127.52 451.777 127.52C450.455 127.477 448.855 127.456 446.977 127.456C444.801 127.456 443.095 127.883 441.857 128.736C440.663 129.589 439.809 131.083 439.297 133.216C438.785 135.307 438.529 138.208 438.529 141.92C438.529 145.632 438.785 148.555 439.297 150.688C439.809 152.779 440.663 154.251 441.857 155.104C443.095 155.957 444.801 156.384 446.977 156.384C449.921 156.384 452.396 156.341 454.401 156.256C456.407 156.171 458.391 156.021 460.353 155.808L461.185 162.976C459.137 163.616 457.047 164.064 454.913 164.32C452.78 164.619 450.135 164.768 446.977 164.768C442.412 164.768 438.743 164.043 435.969 162.592C433.239 161.099 431.255 158.688 430.017 155.36C428.823 152.032 428.225 147.552 428.225 141.92C428.225 136.288 428.823 131.808 430.017 128.48C431.255 125.152 433.239 122.763 435.969 121.312C438.743 119.819 442.412 119.072 446.977 119.072ZM476.41 119.648C478.8 119.648 481.21 119.669 483.642 119.712C486.074 119.712 488.464 119.755 490.81 119.84C493.157 119.925 495.354 120.075 497.402 120.288L496.954 127.392H479.994C478.928 127.392 478.117 127.669 477.562 128.224C477.05 128.779 476.794 129.589 476.794 130.656V153.184C476.794 154.251 477.05 155.061 477.562 155.616C478.117 156.171 478.928 156.448 479.994 156.448H496.954L497.402 163.552C495.354 163.723 493.157 163.872 490.81 164C488.464 164.085 486.074 164.128 483.642 164.128C481.21 164.171 478.8 164.192 476.41 164.192C473.594 164.192 471.312 163.381 469.562 161.76C467.856 160.096 467.002 157.941 467.002 155.296V128.544C467.002 125.856 467.856 123.701 469.562 122.08C471.312 120.459 473.594 119.648 476.41 119.648ZM468.154 137.568H494.586V144.48H468.154V137.568Z" fill="white"/>
<path d="M324.164 78.224C325.38 78.224 326.404 78.368 327.236 78.656C328.084 78.944 328.764 79.416 329.276 80.072C329.788 80.712 330.156 81.584 330.38 82.688C330.62 83.776 330.74 85.12 330.74 86.72C330.74 88.32 330.62 89.672 330.38 90.776C330.156 91.864 329.788 92.736 329.276 93.392C328.764 94.032 328.084 94.496 327.236 94.784C326.404 95.072 325.38 95.216 324.164 95.216C323.012 95.216 321.94 95.192 320.948 95.144C319.972 95.112 319.044 95.064 318.164 95L319.172 93.08C319.844 93.112 320.588 93.144 321.404 93.176C322.236 93.192 323.156 93.2 324.164 93.2C325.188 93.2 325.996 93 326.588 92.6C327.18 92.2 327.596 91.536 327.836 90.608C328.092 89.664 328.22 88.368 328.22 86.72C328.22 85.072 328.092 83.784 327.836 82.856C327.596 81.912 327.18 81.24 326.588 80.84C325.996 80.424 325.188 80.216 324.164 80.216C323.172 80.216 322.284 80.224 321.5 80.24C320.716 80.256 319.948 80.272 319.196 80.288L318.164 78.44C319.044 78.376 319.972 78.328 320.948 78.296C321.94 78.248 323.012 78.224 324.164 78.224ZM320.564 78.44V95H318.164V78.44H320.564ZM337.292 78.416C338.092 78.416 338.908 78.416 339.74 78.416C340.572 78.416 341.388 78.432 342.188 78.464C343.004 78.48 343.78 78.512 344.516 78.56L344.42 80.408H337.82C337.34 80.408 336.988 80.528 336.764 80.768C336.54 81.008 336.428 81.392 336.428 81.92V91.52C336.428 92.048 336.54 92.44 336.764 92.696C336.988 92.936 337.34 93.056 337.82 93.056H344.42L344.516 94.88C343.78 94.928 343.004 94.96 342.188 94.976C341.388 94.992 340.572 95 339.74 95C338.908 95.016 338.092 95.024 337.292 95.024C336.3 95.024 335.508 94.76 334.916 94.232C334.34 93.688 334.044 92.968 334.028 92.072V81.368C334.044 80.456 334.34 79.736 334.916 79.208C335.508 78.68 336.3 78.416 337.292 78.416ZM334.46 85.352H343.484V87.2H334.46V85.352ZM352.448 78.152C353.248 78.168 354.072 78.208 354.92 78.272C355.784 78.336 356.64 78.464 357.488 78.656L357.32 80.36C356.632 80.328 355.856 80.304 354.992 80.288C354.144 80.272 353.32 80.264 352.52 80.264C351.96 80.264 351.48 80.28 351.08 80.312C350.68 80.344 350.352 80.432 350.096 80.576C349.84 80.72 349.648 80.952 349.52 81.272C349.408 81.592 349.352 82.032 349.352 82.592C349.352 83.44 349.512 84.04 349.832 84.392C350.152 84.728 350.672 84.984 351.392 85.16L354.728 86.048C356.008 86.368 356.888 86.912 357.368 87.68C357.848 88.432 358.088 89.448 358.088 90.728C358.088 91.688 357.976 92.464 357.752 93.056C357.544 93.648 357.208 94.104 356.744 94.424C356.296 94.744 355.712 94.968 354.992 95.096C354.272 95.224 353.416 95.288 352.424 95.288C351.88 95.288 351.16 95.264 350.264 95.216C349.368 95.168 348.336 95.032 347.168 94.808L347.336 93.056C348.28 93.088 349.048 93.12 349.64 93.152C350.248 93.168 350.768 93.176 351.2 93.176C351.632 93.176 352.064 93.176 352.496 93.176C353.296 93.176 353.928 93.12 354.392 93.008C354.856 92.88 355.184 92.64 355.376 92.288C355.568 91.92 355.664 91.392 355.664 90.704C355.664 90.112 355.592 89.648 355.448 89.312C355.32 88.976 355.104 88.728 354.8 88.568C354.512 88.392 354.136 88.248 353.672 88.136L350.24 87.2C349.04 86.864 348.192 86.32 347.696 85.568C347.2 84.816 346.952 83.816 346.952 82.568C346.952 81.608 347.056 80.832 347.264 80.24C347.488 79.648 347.824 79.208 348.272 78.92C348.72 78.616 349.288 78.416 349.976 78.32C350.664 78.208 351.488 78.152 352.448 78.152ZM363.689 78.44V95H361.289V78.44H363.689ZM374.119 78.128C374.711 78.128 375.271 78.144 375.799 78.176C376.343 78.208 376.863 78.264 377.359 78.344C377.871 78.408 378.367 78.512 378.847 78.656L378.607 80.432C378.095 80.384 377.583 80.352 377.071 80.336C376.575 80.304 376.087 80.288 375.607 80.288C375.127 80.272 374.663 80.264 374.215 80.264C373.367 80.264 372.647 80.344 372.055 80.504C371.463 80.664 370.991 80.976 370.639 81.44C370.303 81.904 370.055 82.568 369.895 83.432C369.735 84.296 369.655 85.424 369.655 86.816C369.655 88.4 369.759 89.656 369.967 90.584C370.191 91.512 370.551 92.184 371.047 92.6C371.559 93.016 372.239 93.224 373.087 93.224C373.679 93.224 374.215 93.144 374.695 92.984C375.175 92.824 375.623 92.616 376.039 92.36C376.471 92.088 376.879 91.816 377.263 91.544L377.575 92.936C377.303 93.256 376.911 93.608 376.399 93.992C375.903 94.36 375.319 94.672 374.647 94.928C373.975 95.184 373.215 95.312 372.367 95.312C371.135 95.312 370.127 95.008 369.343 94.4C368.575 93.792 368.007 92.856 367.639 91.592C367.287 90.312 367.111 88.672 367.111 86.672C367.111 84.496 367.335 82.784 367.783 81.536C368.231 80.288 368.967 79.408 369.991 78.896C371.015 78.384 372.391 78.128 374.119 78.128ZM379.303 85.424V95H377.551L377.167 92.552L376.951 92.024V85.424H379.303ZM395.835 78.44V94.064C395.835 94.688 395.539 95 394.947 95H392.883C392.611 95 392.395 94.936 392.235 94.808C392.091 94.68 391.963 94.496 391.851 94.256L386.427 83.072C386.283 82.752 386.115 82.392 385.923 81.992C385.731 81.576 385.587 81.192 385.491 80.84H385.131C385.163 81.208 385.187 81.584 385.203 81.968C385.219 82.336 385.227 82.712 385.227 83.096V95H382.875V79.376C382.875 78.752 383.179 78.44 383.787 78.44H385.779C386.051 78.44 386.267 78.504 386.427 78.632C386.587 78.76 386.723 78.944 386.835 79.184L392.067 90.08C392.243 90.416 392.427 90.8 392.619 91.232C392.827 91.664 393.027 92.088 393.219 92.504H393.603C393.571 92.072 393.547 91.648 393.531 91.232C393.515 90.8 393.507 90.376 393.507 89.96V78.44H395.835Z" fill="white"/>
</svg>
