<svg width="700" height="248" viewBox="0 0 700 248" fill="none" xmlns="http://www.w3.org/2000/svg">
<rect width="700" height="248" rx="4" fill="#007EC6"/>
<path d="M228.778 119.328C232.618 119.328 235.668 119.669 237.93 120.352C240.234 120.992 241.898 122.144 242.922 123.808C243.946 125.472 244.458 127.819 244.458 130.848C244.458 134.005 243.839 136.416 242.602 138.08C241.407 139.701 239.423 140.64 236.65 140.896V141.28C240.063 141.579 242.452 142.731 243.818 144.736C245.183 146.699 245.866 149.451 245.866 152.992C245.866 156.021 245.332 158.368 244.266 160.032C243.242 161.696 241.62 162.869 239.402 163.552C237.226 164.192 234.367 164.512 230.826 164.512C227.967 164.512 225.471 164.491 223.338 164.448C221.247 164.448 219.306 164.405 217.514 164.32C215.722 164.235 213.887 164.128 212.01 164L212.97 157.216C213.994 157.259 215.956 157.301 218.858 157.344C221.802 157.387 225.215 157.408 229.098 157.408C230.89 157.408 232.298 157.237 233.322 156.896C234.346 156.555 235.05 155.936 235.434 155.04C235.86 154.101 236.074 152.779 236.074 151.072C236.074 149.237 235.86 147.851 235.434 146.912C235.007 145.931 234.26 145.248 233.194 144.864C232.17 144.48 230.74 144.267 228.906 144.224H212.906V138.016H228.778C230.356 137.973 231.594 137.803 232.49 137.504C233.428 137.205 234.09 136.629 234.474 135.776C234.858 134.923 235.05 133.728 235.05 132.192C235.05 130.613 234.836 129.419 234.41 128.608C234.026 127.755 233.343 127.179 232.362 126.88C231.38 126.581 230.015 126.432 228.266 126.432C225.876 126.432 223.764 126.432 221.93 126.432C220.095 126.432 218.452 126.453 217.002 126.496C215.551 126.496 214.207 126.539 212.97 126.624L212.01 119.84C213.716 119.669 215.359 119.563 216.938 119.52C218.559 119.435 220.308 119.392 222.186 119.392C224.063 119.349 226.26 119.328 228.778 119.328ZM221.61 119.84V164H212.01V119.84H221.61ZM262.035 119.648C264.425 119.648 266.835 119.669 269.267 119.712C271.699 119.712 274.089 119.755 276.435 119.84C278.782 119.925 280.979 120.075 283.027 120.288L282.579 127.392H265.619C264.553 127.392 263.742 127.669 263.187 128.224C262.675 128.779 262.419 129.589 262.419 130.656V153.184C262.419 154.251 262.675 155.061 263.187 155.616C263.742 156.171 264.553 156.448 265.619 156.448H282.579L283.027 163.552C280.979 163.723 278.782 163.872 276.435 164C274.089 164.085 271.699 164.128 269.267 164.128C266.835 164.171 264.425 164.192 262.035 164.192C259.219 164.192 256.937 163.381 255.187 161.76C253.481 160.096 252.627 157.941 252.627 155.296V128.544C252.627 125.856 253.481 123.701 255.187 122.08C256.937 120.459 259.219 119.648 262.035 119.648ZM253.779 137.568H280.211V144.48H253.779V137.568ZM299.803 119.84V164H290.011V119.84H299.803ZM316.187 136.8V144.16H299.291V136.8H316.187ZM325.275 119.84V164H315.483V119.84H325.275ZM355.317 119.84C356.128 119.84 356.832 120.075 357.429 120.544C358.069 121.013 358.496 121.632 358.709 122.4L371.509 164H361.525L352.501 131.552C352.331 130.827 352.16 130.101 351.989 129.376C351.819 128.608 351.669 127.883 351.541 127.2H349.813C349.685 127.883 349.536 128.608 349.365 129.376C349.237 130.101 349.067 130.827 348.853 131.552L339.829 164H329.781L342.645 122.4C342.859 121.632 343.264 121.013 343.861 120.544C344.501 120.075 345.227 119.84 346.037 119.84H355.317ZM362.101 144.992V152.352H339.189V144.992H362.101ZM413.386 119.84V160.48C413.386 162.827 412.212 164 409.866 164H404.49C403.423 164 402.612 163.765 402.058 163.296C401.503 162.784 400.991 162.037 400.522 161.056L388.298 137.888C387.786 136.907 387.274 135.819 386.762 134.624C386.292 133.429 385.887 132.277 385.546 131.168H384.842C384.97 132.32 385.076 133.493 385.162 134.688C385.247 135.84 385.29 136.992 385.29 138.144V164H376.01V123.36C376.01 121.013 377.204 119.84 379.594 119.84H384.906C385.93 119.84 386.698 120.096 387.21 120.608C387.764 121.077 388.298 121.803 388.81 122.784L400.65 145.248C401.162 146.229 401.695 147.317 402.25 148.512C402.804 149.707 403.338 150.944 403.85 152.224H404.618C404.49 150.944 404.383 149.707 404.298 148.512C404.255 147.275 404.234 146.059 404.234 144.864L404.17 119.84H413.386ZM439.477 119.072C441.568 119.072 443.339 119.136 444.789 119.264C446.283 119.349 447.648 119.499 448.885 119.712C450.123 119.925 451.403 120.224 452.725 120.608L451.957 127.776C450.549 127.691 449.248 127.627 448.053 127.584C446.901 127.541 445.643 127.52 444.277 127.52C442.955 127.477 441.355 127.456 439.477 127.456C437.301 127.456 435.595 127.883 434.357 128.736C433.163 129.589 432.309 131.083 431.797 133.216C431.285 135.307 431.029 138.208 431.029 141.92C431.029 145.632 431.285 148.555 431.797 150.688C432.309 152.779 433.163 154.251 434.357 155.104C435.595 155.957 437.301 156.384 439.477 156.384C442.421 156.384 444.896 156.341 446.901 156.256C448.907 156.171 450.891 156.021 452.853 155.808L453.685 162.976C451.637 163.616 449.547 164.064 447.413 164.32C445.28 164.619 442.635 164.768 439.477 164.768C434.912 164.768 431.243 164.043 428.469 162.592C425.739 161.099 423.755 158.688 422.517 155.36C421.323 152.032 420.725 147.552 420.725 141.92C420.725 136.288 421.323 131.808 422.517 128.48C423.755 125.152 425.739 122.763 428.469 121.312C431.243 119.819 434.912 119.072 439.477 119.072ZM468.91 119.648C471.3 119.648 473.71 119.669 476.142 119.712C478.574 119.712 480.964 119.755 483.31 119.84C485.657 119.925 487.854 120.075 489.902 120.288L489.454 127.392H472.494C471.428 127.392 470.617 127.669 470.062 128.224C469.55 128.779 469.294 129.589 469.294 130.656V153.184C469.294 154.251 469.55 155.061 470.062 155.616C470.617 156.171 471.428 156.448 472.494 156.448H489.454L489.902 163.552C487.854 163.723 485.657 163.872 483.31 164C480.964 164.085 478.574 164.128 476.142 164.128C473.71 164.171 471.3 164.192 468.91 164.192C466.094 164.192 463.812 163.381 462.062 161.76C460.356 160.096 459.502 157.941 459.502 155.296V128.544C459.502 125.856 460.356 123.701 462.062 122.08C463.812 120.459 466.094 119.648 468.91 119.648ZM460.654 137.568H487.086V144.48H460.654V137.568Z" fill="white"/>
<path d="M316.664 78.224C317.88 78.224 318.904 78.368 319.736 78.656C320.584 78.944 321.264 79.416 321.776 80.072C322.288 80.712 322.656 81.584 322.88 82.688C323.12 83.776 323.24 85.12 323.24 86.72C323.24 88.32 323.12 89.672 322.88 90.776C322.656 91.864 322.288 92.736 321.776 93.392C321.264 94.032 320.584 94.496 319.736 94.784C318.904 95.072 317.88 95.216 316.664 95.216C315.512 95.216 314.44 95.192 313.448 95.144C312.472 95.112 311.544 95.064 310.664 95L311.672 93.08C312.344 93.112 313.088 93.144 313.904 93.176C314.736 93.192 315.656 93.2 316.664 93.2C317.688 93.2 318.496 93 319.088 92.6C319.68 92.2 320.096 91.536 320.336 90.608C320.592 89.664 320.72 88.368 320.72 86.72C320.72 85.072 320.592 83.784 320.336 82.856C320.096 81.912 319.68 81.24 319.088 80.84C318.496 80.424 317.688 80.216 316.664 80.216C315.672 80.216 314.784 80.224 314 80.24C313.216 80.256 312.448 80.272 311.696 80.288L310.664 78.44C311.544 78.376 312.472 78.328 313.448 78.296C314.44 78.248 315.512 78.224 316.664 78.224ZM313.064 78.44V95H310.664V78.44H313.064ZM329.792 78.416C330.592 78.416 331.408 78.416 332.24 78.416C333.072 78.416 333.888 78.432 334.688 78.464C335.504 78.48 336.28 78.512 337.016 78.56L336.92 80.408H330.32C329.84 80.408 329.488 80.528 329.264 80.768C329.04 81.008 328.928 81.392 328.928 81.92V91.52C328.928 92.048 329.04 92.44 329.264 92.696C329.488 92.936 329.84 93.056 330.32 93.056H336.92L337.016 94.88C336.28 94.928 335.504 94.96 334.688 94.976C333.888 94.992 333.072 95 332.24 95C331.408 95.016 330.592 95.024 329.792 95.024C328.8 95.024 328.008 94.76 327.416 94.232C326.84 93.688 326.544 92.968 326.528 92.072V81.368C326.544 80.456 326.84 79.736 327.416 79.208C328.008 78.68 328.8 78.416 329.792 78.416ZM326.96 85.352H335.984V87.2H326.96V85.352ZM344.948 78.152C345.748 78.168 346.572 78.208 347.42 78.272C348.284 78.336 349.14 78.464 349.988 78.656L349.82 80.36C349.132 80.328 348.356 80.304 347.492 80.288C346.644 80.272 345.82 80.264 345.02 80.264C344.46 80.264 343.98 80.28 343.58 80.312C343.18 80.344 342.852 80.432 342.596 80.576C342.34 80.72 342.148 80.952 342.02 81.272C341.908 81.592 341.852 82.032 341.852 82.592C341.852 83.44 342.012 84.04 342.332 84.392C342.652 84.728 343.172 84.984 343.892 85.16L347.228 86.048C348.508 86.368 349.388 86.912 349.868 87.68C350.348 88.432 350.588 89.448 350.588 90.728C350.588 91.688 350.476 92.464 350.252 93.056C350.044 93.648 349.708 94.104 349.244 94.424C348.796 94.744 348.212 94.968 347.492 95.096C346.772 95.224 345.916 95.288 344.924 95.288C344.38 95.288 343.66 95.264 342.764 95.216C341.868 95.168 340.836 95.032 339.668 94.808L339.836 93.056C340.78 93.088 341.548 93.12 342.14 93.152C342.748 93.168 343.268 93.176 343.7 93.176C344.132 93.176 344.564 93.176 344.996 93.176C345.796 93.176 346.428 93.12 346.892 93.008C347.356 92.88 347.684 92.64 347.876 92.288C348.068 91.92 348.164 91.392 348.164 90.704C348.164 90.112 348.092 89.648 347.948 89.312C347.82 88.976 347.604 88.728 347.3 88.568C347.012 88.392 346.636 88.248 346.172 88.136L342.74 87.2C341.54 86.864 340.692 86.32 340.196 85.568C339.7 84.816 339.452 83.816 339.452 82.568C339.452 81.608 339.556 80.832 339.764 80.24C339.988 79.648 340.324 79.208 340.772 78.92C341.22 78.616 341.788 78.416 342.476 78.32C343.164 78.208 343.988 78.152 344.948 78.152ZM356.189 78.44V95H353.789V78.44H356.189ZM366.619 78.128C367.211 78.128 367.771 78.144 368.299 78.176C368.843 78.208 369.363 78.264 369.859 78.344C370.371 78.408 370.867 78.512 371.347 78.656L371.107 80.432C370.595 80.384 370.083 80.352 369.571 80.336C369.075 80.304 368.587 80.288 368.107 80.288C367.627 80.272 367.163 80.264 366.715 80.264C365.867 80.264 365.147 80.344 364.555 80.504C363.963 80.664 363.491 80.976 363.139 81.44C362.803 81.904 362.555 82.568 362.395 83.432C362.235 84.296 362.155 85.424 362.155 86.816C362.155 88.4 362.259 89.656 362.467 90.584C362.691 91.512 363.051 92.184 363.547 92.6C364.059 93.016 364.739 93.224 365.587 93.224C366.179 93.224 366.715 93.144 367.195 92.984C367.675 92.824 368.123 92.616 368.539 92.36C368.971 92.088 369.379 91.816 369.763 91.544L370.075 92.936C369.803 93.256 369.411 93.608 368.899 93.992C368.403 94.36 367.819 94.672 367.147 94.928C366.475 95.184 365.715 95.312 364.867 95.312C363.635 95.312 362.627 95.008 361.843 94.4C361.075 93.792 360.507 92.856 360.139 91.592C359.787 90.312 359.611 88.672 359.611 86.672C359.611 84.496 359.835 82.784 360.283 81.536C360.731 80.288 361.467 79.408 362.491 78.896C363.515 78.384 364.891 78.128 366.619 78.128ZM371.803 85.424V95H370.051L369.667 92.552L369.451 92.024V85.424H371.803ZM388.335 78.44V94.064C388.335 94.688 388.039 95 387.447 95H385.383C385.111 95 384.895 94.936 384.735 94.808C384.591 94.68 384.463 94.496 384.351 94.256L378.927 83.072C378.783 82.752 378.615 82.392 378.423 81.992C378.231 81.576 378.087 81.192 377.991 80.84H377.631C377.663 81.208 377.687 81.584 377.703 81.968C377.719 82.336 377.727 82.712 377.727 83.096V95H375.375V79.376C375.375 78.752 375.679 78.44 376.287 78.44H378.279C378.551 78.44 378.767 78.504 378.927 78.632C379.087 78.76 379.223 78.944 379.335 79.184L384.567 90.08C384.743 90.416 384.927 90.8 385.119 91.232C385.327 91.664 385.527 92.088 385.719 92.504H386.103C386.071 92.072 386.047 91.648 386.031 91.232C386.015 90.8 386.007 90.376 386.007 89.96V78.44H388.335Z" fill="white"/>
</svg>
