<svg width="379" height="139" viewBox="0 0 379 139" fill="none" xmlns="http://www.w3.org/2000/svg">
<rect width="379" height="139" rx="4" fill="#007EC6"/>
<path d="M143.944 62.248C145.384 62.248 146.528 62.376 147.376 62.632C148.24 62.872 148.864 63.304 149.248 63.928C149.632 64.552 149.824 65.432 149.824 66.568C149.824 67.752 149.592 68.656 149.128 69.28C148.68 69.888 147.936 70.24 146.896 70.336V70.48C148.176 70.592 149.072 71.024 149.584 71.776C150.096 72.512 150.352 73.544 150.352 74.872C150.352 76.008 150.152 76.888 149.752 77.512C149.368 78.136 148.76 78.576 147.928 78.832C147.112 79.072 146.04 79.192 144.712 79.192C143.64 79.192 142.704 79.184 141.904 79.168C141.12 79.168 140.392 79.152 139.72 79.12C139.048 79.088 138.36 79.048 137.656 79L138.016 76.456C138.4 76.472 139.136 76.488 140.224 76.504C141.328 76.52 142.608 76.528 144.064 76.528C144.736 76.528 145.264 76.464 145.648 76.336C146.032 76.208 146.296 75.976 146.44 75.64C146.6 75.288 146.68 74.792 146.68 74.152C146.68 73.464 146.6 72.944 146.44 72.592C146.28 72.224 146 71.968 145.6 71.824C145.216 71.68 144.68 71.6 143.992 71.584H137.992V69.256H143.944C144.536 69.24 145 69.176 145.336 69.064C145.688 68.952 145.936 68.736 146.08 68.416C146.224 68.096 146.296 67.648 146.296 67.072C146.296 66.48 146.216 66.032 146.056 65.728C145.912 65.408 145.656 65.192 145.288 65.08C144.92 64.968 144.408 64.912 143.752 64.912C142.856 64.912 142.064 64.912 141.376 64.912C140.688 64.912 140.072 64.92 139.528 64.936C138.984 64.936 138.48 64.952 138.016 64.984L137.656 62.44C138.296 62.376 138.912 62.336 139.504 62.32C140.112 62.288 140.768 62.272 141.472 62.272C142.176 62.256 143 62.248 143.944 62.248ZM141.256 62.44V79H137.656V62.44H141.256ZM156.416 62.368C157.312 62.368 158.216 62.376 159.128 62.392C160.04 62.392 160.936 62.408 161.816 62.44C162.696 62.472 163.52 62.528 164.288 62.608L164.12 65.272H157.76C157.36 65.272 157.056 65.376 156.848 65.584C156.656 65.792 156.56 66.096 156.56 66.496V74.944C156.56 75.344 156.656 75.648 156.848 75.856C157.056 76.064 157.36 76.168 157.76 76.168H164.12L164.288 78.832C163.52 78.896 162.696 78.952 161.816 79C160.936 79.032 160.04 79.048 159.128 79.048C158.216 79.064 157.312 79.072 156.416 79.072C155.36 79.072 154.504 78.768 153.848 78.16C153.208 77.536 152.888 76.728 152.888 75.736V65.704C152.888 64.696 153.208 63.888 153.848 63.28C154.504 62.672 155.36 62.368 156.416 62.368ZM153.32 69.088H163.232V71.68H153.32V69.088ZM170.579 62.44V79H166.907V62.44H170.579ZM176.723 68.8V71.56H170.387V68.8H176.723ZM180.131 62.44V79H176.459V62.44H180.131ZM191.396 62.44C191.7 62.44 191.964 62.528 192.188 62.704C192.428 62.88 192.588 63.112 192.668 63.4L197.468 79H193.724L190.34 66.832C190.276 66.56 190.212 66.288 190.148 66.016C190.084 65.728 190.028 65.456 189.98 65.2H189.332C189.284 65.456 189.228 65.728 189.164 66.016C189.116 66.288 189.052 66.56 188.972 66.832L185.588 79H181.82L186.644 63.4C186.724 63.112 186.876 62.88 187.1 62.704C187.34 62.528 187.612 62.44 187.916 62.44H191.396ZM193.94 71.872V74.632H185.348V71.872H193.94ZM213.172 62.44V77.68C213.172 78.56 212.732 79 211.852 79H209.836C209.436 79 209.132 78.912 208.924 78.736C208.716 78.544 208.524 78.264 208.348 77.896L203.764 69.208C203.572 68.84 203.38 68.432 203.188 67.984C203.012 67.536 202.86 67.104 202.732 66.688H202.468C202.516 67.12 202.556 67.56 202.588 68.008C202.62 68.44 202.636 68.872 202.636 69.304V79H199.156V63.76C199.156 62.88 199.604 62.44 200.5 62.44H202.492C202.876 62.44 203.164 62.536 203.356 62.728C203.564 62.904 203.764 63.176 203.956 63.544L208.396 71.968C208.588 72.336 208.788 72.744 208.996 73.192C209.204 73.64 209.404 74.104 209.596 74.584H209.884C209.836 74.104 209.796 73.64 209.764 73.192C209.748 72.728 209.74 72.272 209.74 71.824L209.716 62.44H213.172ZM222.956 62.152C223.74 62.152 224.404 62.176 224.948 62.224C225.508 62.256 226.02 62.312 226.484 62.392C226.948 62.472 227.428 62.584 227.924 62.728L227.636 65.416C227.108 65.384 226.62 65.36 226.172 65.344C225.74 65.328 225.268 65.32 224.756 65.32C224.26 65.304 223.66 65.296 222.956 65.296C222.14 65.296 221.5 65.456 221.036 65.776C220.588 66.096 220.268 66.656 220.076 67.456C219.884 68.24 219.788 69.328 219.788 70.72C219.788 72.112 219.884 73.208 220.076 74.008C220.268 74.792 220.588 75.344 221.036 75.664C221.5 75.984 222.14 76.144 222.956 76.144C224.06 76.144 224.988 76.128 225.74 76.096C226.492 76.064 227.236 76.008 227.972 75.928L228.284 78.616C227.516 78.856 226.732 79.024 225.932 79.12C225.132 79.232 224.14 79.288 222.956 79.288C221.244 79.288 219.868 79.016 218.828 78.472C217.804 77.912 217.06 77.008 216.596 75.76C216.148 74.512 215.924 72.832 215.924 70.72C215.924 68.608 216.148 66.928 216.596 65.68C217.06 64.432 217.804 63.536 218.828 62.992C219.868 62.432 221.244 62.152 222.956 62.152ZM233.994 62.368C234.89 62.368 235.794 62.376 236.706 62.392C237.618 62.392 238.514 62.408 239.394 62.44C240.274 62.472 241.098 62.528 241.866 62.608L241.698 65.272H235.338C234.938 65.272 234.634 65.376 234.426 65.584C234.234 65.792 234.138 66.096 234.138 66.496V74.944C234.138 75.344 234.234 75.648 234.426 75.856C234.634 76.064 234.938 76.168 235.338 76.168H241.698L241.866 78.832C241.098 78.896 240.274 78.952 239.394 79C238.514 79.032 237.618 79.048 236.706 79.048C235.794 79.064 234.89 79.072 233.994 79.072C232.938 79.072 232.082 78.768 231.426 78.16C230.786 77.536 230.466 76.728 230.466 75.736V65.704C230.466 64.696 230.786 63.888 231.426 63.28C232.082 62.672 232.938 62.368 233.994 62.368ZM230.898 69.088H240.81V71.68H230.898V69.088Z" fill="white"/>
<path d="M173.008 46.612C173.616 46.612 174.128 46.684 174.544 46.828C174.968 46.972 175.308 47.208 175.564 47.536C175.82 47.856 176.004 48.292 176.116 48.844C176.236 49.388 176.296 50.06 176.296 50.86C176.296 51.66 176.236 52.336 176.116 52.888C176.004 53.432 175.82 53.868 175.564 54.196C175.308 54.516 174.968 54.748 174.544 54.892C174.128 55.036 173.616 55.108 173.008 55.108C172.432 55.108 171.896 55.096 171.4 55.072C170.912 55.056 170.448 55.032 170.008 55L170.512 54.04C170.848 54.056 171.22 54.072 171.628 54.088C172.044 54.096 172.504 54.1 173.008 54.1C173.52 54.1 173.924 54 174.22 53.8C174.516 53.6 174.724 53.268 174.844 52.804C174.972 52.332 175.036 51.684 175.036 50.86C175.036 50.036 174.972 49.392 174.844 48.928C174.724 48.456 174.516 48.12 174.22 47.92C173.924 47.712 173.52 47.608 173.008 47.608C172.512 47.608 172.068 47.612 171.676 47.62C171.284 47.628 170.9 47.636 170.524 47.644L170.008 46.72C170.448 46.688 170.912 46.664 171.4 46.648C171.896 46.624 172.432 46.612 173.008 46.612ZM171.208 46.72V55H170.008V46.72H171.208ZM179.572 46.708C179.972 46.708 180.38 46.708 180.796 46.708C181.212 46.708 181.62 46.716 182.02 46.732C182.428 46.74 182.816 46.756 183.184 46.78L183.136 47.704H179.836C179.596 47.704 179.42 47.764 179.308 47.884C179.196 48.004 179.14 48.196 179.14 48.46V53.26C179.14 53.524 179.196 53.72 179.308 53.848C179.42 53.968 179.596 54.028 179.836 54.028H183.136L183.184 54.94C182.816 54.964 182.428 54.98 182.02 54.988C181.62 54.996 181.212 55 180.796 55C180.38 55.008 179.972 55.012 179.572 55.012C179.076 55.012 178.68 54.88 178.384 54.616C178.096 54.344 177.948 53.984 177.94 53.536V48.184C177.948 47.728 178.096 47.368 178.384 47.104C178.68 46.84 179.076 46.708 179.572 46.708ZM178.156 50.176H182.668V51.1H178.156V50.176ZM187.15 46.576C187.55 46.584 187.962 46.604 188.386 46.636C188.818 46.668 189.246 46.732 189.67 46.828L189.586 47.68C189.242 47.664 188.854 47.652 188.422 47.644C187.998 47.636 187.586 47.632 187.186 47.632C186.906 47.632 186.666 47.64 186.466 47.656C186.266 47.672 186.102 47.716 185.974 47.788C185.846 47.86 185.75 47.976 185.686 48.136C185.63 48.296 185.602 48.516 185.602 48.796C185.602 49.22 185.682 49.52 185.842 49.696C186.002 49.864 186.262 49.992 186.622 50.08L188.29 50.524C188.93 50.684 189.37 50.956 189.61 51.34C189.85 51.716 189.97 52.224 189.97 52.864C189.97 53.344 189.914 53.732 189.802 54.028C189.698 54.324 189.53 54.552 189.298 54.712C189.074 54.872 188.782 54.984 188.422 55.048C188.062 55.112 187.634 55.144 187.138 55.144C186.866 55.144 186.506 55.132 186.058 55.108C185.61 55.084 185.094 55.016 184.51 54.904L184.594 54.028C185.066 54.044 185.45 54.06 185.746 54.076C186.05 54.084 186.31 54.088 186.526 54.088C186.742 54.088 186.958 54.088 187.174 54.088C187.574 54.088 187.89 54.06 188.122 54.004C188.354 53.94 188.518 53.82 188.614 53.644C188.71 53.46 188.758 53.196 188.758 52.852C188.758 52.556 188.722 52.324 188.65 52.156C188.586 51.988 188.478 51.864 188.326 51.784C188.182 51.696 187.994 51.624 187.762 51.568L186.046 51.1C185.446 50.932 185.022 50.66 184.774 50.284C184.526 49.908 184.402 49.408 184.402 48.784C184.402 48.304 184.454 47.916 184.558 47.62C184.67 47.324 184.838 47.104 185.062 46.96C185.286 46.808 185.57 46.708 185.914 46.66C186.258 46.604 186.67 46.576 187.15 46.576ZM192.771 46.72V55H191.571V46.72H192.771ZM197.985 46.564C198.281 46.564 198.561 46.572 198.825 46.588C199.097 46.604 199.357 46.632 199.605 46.672C199.861 46.704 200.109 46.756 200.349 46.828L200.229 47.716C199.973 47.692 199.717 47.676 199.461 47.668C199.213 47.652 198.969 47.644 198.729 47.644C198.489 47.636 198.257 47.632 198.033 47.632C197.609 47.632 197.249 47.672 196.953 47.752C196.657 47.832 196.421 47.988 196.245 48.22C196.077 48.452 195.953 48.784 195.873 49.216C195.793 49.648 195.753 50.212 195.753 50.908C195.753 51.7 195.805 52.328 195.909 52.792C196.021 53.256 196.201 53.592 196.449 53.8C196.705 54.008 197.045 54.112 197.469 54.112C197.765 54.112 198.033 54.072 198.273 53.992C198.513 53.912 198.737 53.808 198.945 53.68C199.161 53.544 199.365 53.408 199.557 53.272L199.713 53.968C199.577 54.128 199.381 54.304 199.125 54.496C198.877 54.68 198.585 54.836 198.249 54.964C197.913 55.092 197.533 55.156 197.109 55.156C196.493 55.156 195.989 55.004 195.597 54.7C195.213 54.396 194.929 53.928 194.745 53.296C194.569 52.656 194.481 51.836 194.481 50.836C194.481 49.748 194.593 48.892 194.817 48.268C195.041 47.644 195.409 47.204 195.921 46.948C196.433 46.692 197.121 46.564 197.985 46.564ZM200.577 50.212V55H199.701L199.509 53.776L199.401 53.512V50.212H200.577ZM208.843 46.72V54.532C208.843 54.844 208.695 55 208.399 55H207.367C207.231 55 207.123 54.968 207.043 54.904C206.971 54.84 206.907 54.748 206.851 54.628L204.139 49.036C204.067 48.876 203.983 48.696 203.887 48.496C203.791 48.288 203.719 48.096 203.671 47.92H203.491C203.507 48.104 203.519 48.292 203.527 48.484C203.535 48.668 203.539 48.856 203.539 49.048V55H202.363V47.188C202.363 46.876 202.515 46.72 202.819 46.72H203.815C203.951 46.72 204.059 46.752 204.139 46.816C204.219 46.88 204.287 46.972 204.343 47.092L206.959 52.54C207.047 52.708 207.139 52.9 207.235 53.116C207.339 53.332 207.439 53.544 207.535 53.752H207.727C207.711 53.536 207.699 53.324 207.691 53.116C207.683 52.9 207.679 52.688 207.679 52.48V46.72H208.843Z" fill="white"/>
</svg>
