<svg width="780" height="253" viewBox="0 0 780 253" fill="none" xmlns="http://www.w3.org/2000/svg">
<rect width="780" height="253" rx="4" fill="black"/>
<path d="M241.564 119.2C245.702 119.2 248.945 119.627 251.292 120.48C253.638 121.333 255.302 122.805 256.284 124.896C257.308 126.987 257.819 129.909 257.819 133.664C257.819 137.419 257.329 140.341 256.347 142.432C255.409 144.523 253.852 145.995 251.676 146.848C249.5 147.659 246.556 148.064 242.844 148.064C240.881 148.064 238.961 147.979 237.083 147.808C235.206 147.637 233.457 147.424 231.836 147.168C230.214 146.912 228.828 146.656 227.676 146.4C226.524 146.101 225.734 145.824 225.308 145.568L225.5 140.704C228.017 140.704 230.62 140.704 233.308 140.704C236.038 140.704 238.726 140.704 241.372 140.704C243.078 140.661 244.401 140.448 245.34 140.064C246.321 139.68 247.004 138.976 247.388 137.952C247.814 136.928 248.028 135.499 248.028 133.664C248.028 131.787 247.814 130.336 247.388 129.312C247.004 128.288 246.321 127.584 245.34 127.2C244.401 126.773 243.078 126.56 241.372 126.56C237.446 126.56 234.076 126.581 231.26 126.624C228.444 126.667 226.545 126.752 225.564 126.88L224.604 119.84C226.396 119.627 228.081 119.477 229.66 119.392C231.238 119.307 232.945 119.264 234.78 119.264C236.657 119.221 238.918 119.2 241.564 119.2ZM234.396 119.84V164H224.604V119.84H234.396ZM281.766 118.944C285.265 118.944 288.23 119.328 290.662 120.096C293.094 120.821 295.035 122.059 296.486 123.808C297.979 125.515 299.067 127.861 299.75 130.848C300.433 133.792 300.774 137.483 300.774 141.92C300.774 146.357 300.433 150.069 299.75 153.056C299.067 156 297.979 158.347 296.486 160.096C295.035 161.803 293.094 163.04 290.662 163.808C288.23 164.533 285.265 164.896 281.766 164.896C278.267 164.896 275.302 164.533 272.87 163.808C270.438 163.04 268.475 161.803 266.982 160.096C265.489 158.347 264.401 156 263.718 153.056C263.035 150.069 262.694 146.357 262.694 141.92C262.694 137.483 263.035 133.792 263.718 130.848C264.401 127.861 265.489 125.515 266.982 123.808C268.475 122.059 270.438 120.821 272.87 120.096C275.302 119.328 278.267 118.944 281.766 118.944ZM281.766 126.688C279.505 126.688 277.734 127.136 276.454 128.032C275.217 128.928 274.321 130.485 273.766 132.704C273.254 134.88 272.998 137.952 272.998 141.92C272.998 145.845 273.254 148.917 273.766 151.136C274.321 153.355 275.217 154.912 276.454 155.808C277.734 156.704 279.505 157.152 281.766 157.152C283.985 157.152 285.713 156.704 286.95 155.808C288.23 154.912 289.126 153.355 289.638 151.136C290.193 148.917 290.47 145.845 290.47 141.92C290.47 137.952 290.193 134.88 289.638 132.704C289.126 130.485 288.23 128.928 286.95 128.032C285.713 127.136 283.985 126.688 281.766 126.688ZM325.253 119.2C329.135 119.2 332.271 119.605 334.661 120.416C337.093 121.184 338.863 122.528 339.972 124.448C341.125 126.325 341.701 128.949 341.701 132.32C341.701 134.368 341.423 136.181 340.869 137.76C340.357 139.296 339.482 140.533 338.245 141.472C337.007 142.411 335.322 143.008 333.189 143.264V143.584C333.957 143.712 334.746 144.011 335.557 144.48C336.41 144.949 337.199 145.653 337.925 146.592C338.65 147.488 339.183 148.704 339.525 150.24L343.365 164H333.061L329.669 150.56C329.285 149.109 328.709 148.107 327.941 147.552C327.215 146.997 326.191 146.72 324.869 146.72C321.967 146.72 319.514 146.72 317.509 146.72C315.546 146.677 313.882 146.635 312.517 146.592C311.194 146.549 309.999 146.507 308.933 146.464L309.125 139.36H325.061C326.767 139.36 328.111 139.189 329.093 138.848C330.117 138.464 330.821 137.803 331.205 136.864C331.631 135.925 331.845 134.624 331.845 132.96C331.845 131.253 331.631 129.952 331.205 129.056C330.821 128.117 330.117 127.477 329.093 127.136C328.111 126.752 326.767 126.56 325.061 126.56C321.05 126.56 317.658 126.581 314.885 126.624C312.111 126.667 310.213 126.731 309.189 126.816L308.229 119.84C310.021 119.627 311.706 119.477 313.285 119.392C314.863 119.307 316.591 119.264 318.469 119.264C320.346 119.221 322.607 119.2 325.253 119.2ZM317.893 119.84V164H308.229V119.84H317.893ZM368.878 119.84V164H359.086V119.84H368.878ZM382.19 119.84V127.52H345.838V119.84H382.19ZM397.074 119.648C399.335 119.648 401.639 119.669 403.986 119.712C406.375 119.712 408.701 119.776 410.962 119.904C413.266 119.989 415.399 120.139 417.362 120.352L416.85 127.392H400.85C399.698 127.392 398.823 127.669 398.226 128.224C397.629 128.779 397.33 129.589 397.33 130.656V164H387.538V128.672C387.538 125.941 388.413 123.765 390.162 122.144C391.911 120.48 394.215 119.648 397.074 119.648ZM388.69 138.336H414.482V145.248H388.69V138.336ZM440.704 118.944C444.202 118.944 447.168 119.328 449.6 120.096C452.032 120.821 453.973 122.059 455.424 123.808C456.917 125.515 458.005 127.861 458.688 130.848C459.37 133.792 459.712 137.483 459.712 141.92C459.712 146.357 459.37 150.069 458.688 153.056C458.005 156 456.917 158.347 455.424 160.096C453.973 161.803 452.032 163.04 449.6 163.808C447.168 164.533 444.202 164.896 440.704 164.896C437.205 164.896 434.24 164.533 431.808 163.808C429.376 163.04 427.413 161.803 425.92 160.096C424.426 158.347 423.338 156 422.656 153.056C421.973 150.069 421.632 146.357 421.632 141.92C421.632 137.483 421.973 133.792 422.656 130.848C423.338 127.861 424.426 125.515 425.92 123.808C427.413 122.059 429.376 120.821 431.808 120.096C434.24 119.328 437.205 118.944 440.704 118.944ZM440.704 126.688C438.442 126.688 436.672 127.136 435.392 128.032C434.154 128.928 433.258 130.485 432.704 132.704C432.192 134.88 431.936 137.952 431.936 141.92C431.936 145.845 432.192 148.917 432.704 151.136C433.258 153.355 434.154 154.912 435.392 155.808C436.672 156.704 438.442 157.152 440.704 157.152C442.922 157.152 444.65 156.704 445.888 155.808C447.168 154.912 448.064 153.355 448.576 151.136C449.13 148.917 449.408 145.845 449.408 141.92C449.408 137.952 449.13 134.88 448.576 132.704C448.064 130.485 447.168 128.928 445.888 128.032C444.65 127.136 442.922 126.688 440.704 126.688ZM476.83 119.84V152.864C476.83 153.931 477.129 154.741 477.726 155.296C478.323 155.851 479.177 156.128 480.286 156.128H495.71L496.158 163.488C493.129 163.829 489.95 164.021 486.622 164.064C483.337 164.149 480.051 164.192 476.766 164.192C473.566 164.192 471.134 163.339 469.47 161.632C467.849 159.883 467.038 157.664 467.038 154.976V119.84H476.83ZM511.271 119.84V164H501.543V119.84H511.271ZM537.766 118.944C541.265 118.944 544.23 119.328 546.662 120.096C549.094 120.821 551.035 122.059 552.486 123.808C553.979 125.515 555.067 127.861 555.75 130.848C556.433 133.792 556.774 137.483 556.774 141.92C556.774 146.357 556.433 150.069 555.75 153.056C555.067 156 553.979 158.347 552.486 160.096C551.035 161.803 549.094 163.04 546.662 163.808C544.23 164.533 541.265 164.896 537.766 164.896C534.267 164.896 531.302 164.533 528.87 163.808C526.438 163.04 524.475 161.803 522.982 160.096C521.489 158.347 520.401 156 519.718 153.056C519.035 150.069 518.694 146.357 518.694 141.92C518.694 137.483 519.035 133.792 519.718 130.848C520.401 127.861 521.489 125.515 522.982 123.808C524.475 122.059 526.438 120.821 528.87 120.096C531.302 119.328 534.267 118.944 537.766 118.944ZM537.766 126.688C535.505 126.688 533.734 127.136 532.454 128.032C531.217 128.928 530.321 130.485 529.766 132.704C529.254 134.88 528.998 137.952 528.998 141.92C528.998 145.845 529.254 148.917 529.766 151.136C530.321 153.355 531.217 154.912 532.454 155.808C533.734 156.704 535.505 157.152 537.766 157.152C539.985 157.152 541.713 156.704 542.95 155.808C544.23 154.912 545.126 153.355 545.638 151.136C546.193 148.917 546.47 145.845 546.47 141.92C546.47 137.952 546.193 134.88 545.638 132.704C545.126 130.485 544.23 128.928 542.95 128.032C541.713 127.136 539.985 126.688 537.766 126.688Z" fill="white"/>
<path d="M334.133 83.224C335.349 83.224 336.373 83.368 337.205 83.656C338.053 83.944 338.733 84.416 339.245 85.072C339.757 85.712 340.125 86.584 340.349 87.688C340.589 88.776 340.709 90.12 340.709 91.72C340.709 93.32 340.589 94.672 340.349 95.776C340.125 96.864 339.757 97.736 339.245 98.392C338.733 99.032 338.053 99.496 337.205 99.784C336.373 100.072 335.349 100.216 334.133 100.216C332.981 100.216 331.909 100.192 330.917 100.144C329.941 100.112 329.013 100.064 328.133 100L329.141 98.08C329.813 98.112 330.557 98.144 331.373 98.176C332.205 98.192 333.125 98.2 334.133 98.2C335.157 98.2 335.965 98 336.557 97.6C337.149 97.2 337.565 96.536 337.805 95.608C338.061 94.664 338.189 93.368 338.189 91.72C338.189 90.072 338.061 88.784 337.805 87.856C337.565 86.912 337.149 86.24 336.557 85.84C335.965 85.424 335.157 85.216 334.133 85.216C333.141 85.216 332.253 85.224 331.469 85.24C330.685 85.256 329.917 85.272 329.165 85.288L328.133 83.44C329.013 83.376 329.941 83.328 330.917 83.296C331.909 83.248 332.981 83.224 334.133 83.224ZM330.533 83.44V100H328.133V83.44H330.533ZM347.261 83.416C348.061 83.416 348.877 83.416 349.709 83.416C350.541 83.416 351.357 83.432 352.157 83.464C352.973 83.48 353.749 83.512 354.485 83.56L354.389 85.408H347.789C347.309 85.408 346.957 85.528 346.733 85.768C346.509 86.008 346.397 86.392 346.397 86.92V96.52C346.397 97.048 346.509 97.44 346.733 97.696C346.957 97.936 347.309 98.056 347.789 98.056H354.389L354.485 99.88C353.749 99.928 352.973 99.96 352.157 99.976C351.357 99.992 350.541 100 349.709 100C348.877 100.016 348.061 100.024 347.261 100.024C346.269 100.024 345.477 99.76 344.885 99.232C344.309 98.688 344.013 97.968 343.997 97.072V86.368C344.013 85.456 344.309 84.736 344.885 84.208C345.477 83.68 346.269 83.416 347.261 83.416ZM344.429 90.352H353.453V92.2H344.429V90.352ZM370.048 83.44L365.104 99.328C365.04 99.504 364.928 99.664 364.768 99.808C364.608 99.936 364.424 100 364.216 100H361.84C361.616 100 361.424 99.936 361.264 99.808C361.104 99.664 360.992 99.504 360.928 99.328L356.008 83.44H358.504L362.248 96.352C362.328 96.656 362.408 96.96 362.488 97.264C362.568 97.552 362.64 97.848 362.704 98.152H363.352C363.416 97.848 363.488 97.544 363.568 97.24C363.648 96.936 363.736 96.632 363.832 96.328L367.552 83.44H370.048ZM375.55 83.416C376.35 83.416 377.166 83.416 377.998 83.416C378.83 83.416 379.646 83.432 380.446 83.464C381.262 83.48 382.038 83.512 382.774 83.56L382.678 85.408H376.078C375.598 85.408 375.246 85.528 375.022 85.768C374.798 86.008 374.686 86.392 374.686 86.92V96.52C374.686 97.048 374.798 97.44 375.022 97.696C375.246 97.936 375.598 98.056 376.078 98.056H382.678L382.774 99.88C382.038 99.928 381.262 99.96 380.446 99.976C379.646 99.992 378.83 100 377.998 100C377.166 100.016 376.35 100.024 375.55 100.024C374.558 100.024 373.766 99.76 373.174 99.232C372.598 98.688 372.302 97.968 372.286 97.072V86.368C372.302 85.456 372.598 84.736 373.174 84.208C373.766 83.68 374.558 83.416 375.55 83.416ZM372.718 90.352H381.742V92.2H372.718V90.352ZM388.282 83.44V96.496C388.282 97.008 388.41 97.392 388.666 97.648C388.922 97.888 389.314 98.008 389.842 98.008H395.77L395.89 99.856C394.818 99.936 393.73 99.984 392.626 100C391.522 100.016 390.418 100.024 389.314 100.024C388.098 100.024 387.226 99.728 386.698 99.136C386.17 98.528 385.906 97.768 385.906 96.856V83.44H388.282ZM404.072 83.128C405.288 83.128 406.32 83.272 407.168 83.56C408.032 83.848 408.72 84.32 409.232 84.976C409.744 85.632 410.112 86.512 410.336 87.616C410.576 88.72 410.696 90.088 410.696 91.72C410.696 93.336 410.576 94.704 410.336 95.824C410.112 96.928 409.744 97.808 409.232 98.464C408.72 99.12 408.032 99.592 407.168 99.88C406.32 100.168 405.288 100.312 404.072 100.312C402.856 100.312 401.816 100.168 400.952 99.88C400.104 99.592 399.416 99.12 398.888 98.464C398.376 97.808 398 96.928 397.76 95.824C397.52 94.704 397.4 93.336 397.4 91.72C397.4 90.088 397.52 88.72 397.76 87.616C398 86.512 398.376 85.632 398.888 84.976C399.416 84.32 400.104 83.848 400.952 83.56C401.816 83.272 402.856 83.128 404.072 83.128ZM404.072 85.216C403.032 85.216 402.208 85.416 401.6 85.816C400.992 86.216 400.56 86.888 400.304 87.832C400.064 88.76 399.944 90.056 399.944 91.72C399.944 93.368 400.064 94.664 400.304 95.608C400.56 96.552 400.992 97.224 401.6 97.624C402.208 98.024 403.032 98.224 404.072 98.224C405.112 98.224 405.928 98.024 406.52 97.624C407.128 97.224 407.56 96.552 407.816 95.608C408.072 94.664 408.2 93.368 408.2 91.72C408.2 90.056 408.072 88.76 407.816 87.832C407.56 86.888 407.128 86.216 406.52 85.816C405.928 85.416 405.112 85.216 404.072 85.216ZM419.957 83.224C421.317 83.224 422.397 83.376 423.197 83.68C423.997 83.984 424.565 84.512 424.901 85.264C425.253 86.016 425.429 87.08 425.429 88.456C425.429 89.816 425.261 90.88 424.925 91.648C424.589 92.4 424.037 92.928 423.269 93.232C422.517 93.52 421.509 93.664 420.245 93.664C419.557 93.664 418.893 93.648 418.253 93.616C417.629 93.584 417.053 93.536 416.525 93.472C415.997 93.408 415.541 93.344 415.157 93.28C414.789 93.2 414.533 93.128 414.389 93.064L414.461 91.672C415.325 91.672 416.221 91.672 417.149 91.672C418.077 91.672 419.005 91.672 419.933 91.672C420.701 91.656 421.309 91.56 421.757 91.384C422.205 91.208 422.525 90.888 422.717 90.424C422.909 89.96 423.005 89.304 423.005 88.456C423.005 87.592 422.909 86.928 422.717 86.464C422.525 86 422.205 85.68 421.757 85.504C421.309 85.312 420.701 85.216 419.933 85.216C418.589 85.216 417.429 85.224 416.453 85.24C415.477 85.256 414.821 85.28 414.485 85.312L414.149 83.44C414.757 83.376 415.333 83.328 415.877 83.296C416.421 83.264 417.013 83.248 417.653 83.248C418.293 83.232 419.061 83.224 419.957 83.224ZM416.549 83.44V100H414.149V83.44H416.549ZM431.542 83.416C432.342 83.416 433.158 83.416 433.99 83.416C434.822 83.416 435.638 83.432 436.438 83.464C437.254 83.48 438.03 83.512 438.766 83.56L438.67 85.408H432.07C431.59 85.408 431.238 85.528 431.014 85.768C430.79 86.008 430.678 86.392 430.678 86.92V96.52C430.678 97.048 430.79 97.44 431.014 97.696C431.238 97.936 431.59 98.056 432.07 98.056H438.67L438.766 99.88C438.03 99.928 437.254 99.96 436.438 99.976C435.638 99.992 434.822 100 433.99 100C433.158 100.016 432.342 100.024 431.542 100.024C430.55 100.024 429.758 99.76 429.166 99.232C428.59 98.688 428.294 97.968 428.278 97.072V86.368C428.294 85.456 428.59 84.736 429.166 84.208C429.758 83.68 430.55 83.416 431.542 83.416ZM428.71 90.352H437.734V92.2H428.71V90.352ZM447.778 83.224C449.09 83.224 450.146 83.368 450.946 83.656C451.762 83.928 452.354 84.416 452.722 85.12C453.09 85.808 453.274 86.776 453.274 88.024C453.274 88.904 453.17 89.64 452.962 90.232C452.754 90.824 452.426 91.288 451.978 91.624C451.546 91.96 450.954 92.176 450.202 92.272V92.392C450.474 92.456 450.746 92.584 451.018 92.776C451.29 92.968 451.546 93.232 451.786 93.568C452.026 93.888 452.202 94.296 452.314 94.792L453.874 100H451.33L449.89 94.84C449.698 94.232 449.434 93.8 449.098 93.544C448.762 93.288 448.322 93.16 447.778 93.16C446.77 93.16 445.906 93.16 445.186 93.16C444.466 93.144 443.858 93.128 443.362 93.112C442.882 93.096 442.49 93.088 442.186 93.088L442.258 91.168H447.73C448.514 91.152 449.13 91.064 449.578 90.904C450.026 90.728 450.346 90.424 450.538 89.992C450.746 89.56 450.85 88.952 450.85 88.168C450.85 87.384 450.746 86.784 450.538 86.368C450.346 85.936 450.026 85.64 449.578 85.48C449.13 85.304 448.514 85.216 447.73 85.216C446.386 85.216 445.226 85.224 444.25 85.24C443.274 85.256 442.618 85.264 442.282 85.264L441.946 83.44C442.554 83.376 443.13 83.328 443.674 83.296C444.218 83.264 444.81 83.248 445.45 83.248C446.106 83.232 446.882 83.224 447.778 83.224ZM444.322 83.44V100H441.946V83.44H444.322Z" fill="white"/>
</svg>
