<svg width="700" height="253" viewBox="0 0 700 253" fill="none" xmlns="http://www.w3.org/2000/svg">
<rect width="700" height="253" rx="4" fill="black"/>
<path d="M201.564 119.2C205.702 119.2 208.945 119.627 211.292 120.48C213.638 121.333 215.302 122.805 216.284 124.896C217.308 126.987 217.819 129.909 217.819 133.664C217.819 137.419 217.329 140.341 216.347 142.432C215.409 144.523 213.852 145.995 211.676 146.848C209.5 147.659 206.556 148.064 202.844 148.064C200.881 148.064 198.961 147.979 197.083 147.808C195.206 147.637 193.457 147.424 191.836 147.168C190.214 146.912 188.828 146.656 187.676 146.4C186.524 146.101 185.734 145.824 185.308 145.568L185.5 140.704C188.017 140.704 190.62 140.704 193.308 140.704C196.038 140.704 198.726 140.704 201.372 140.704C203.078 140.661 204.401 140.448 205.34 140.064C206.321 139.68 207.004 138.976 207.388 137.952C207.814 136.928 208.028 135.499 208.028 133.664C208.028 131.787 207.814 130.336 207.388 129.312C207.004 128.288 206.321 127.584 205.34 127.2C204.401 126.773 203.078 126.56 201.372 126.56C197.446 126.56 194.076 126.581 191.26 126.624C188.444 126.667 186.545 126.752 185.564 126.88L184.604 119.84C186.396 119.627 188.081 119.477 189.66 119.392C191.238 119.307 192.945 119.264 194.78 119.264C196.657 119.221 198.918 119.2 201.564 119.2ZM194.396 119.84V164H184.604V119.84H194.396ZM241.766 118.944C245.265 118.944 248.23 119.328 250.662 120.096C253.094 120.821 255.035 122.059 256.486 123.808C257.979 125.515 259.067 127.861 259.75 130.848C260.433 133.792 260.774 137.483 260.774 141.92C260.774 146.357 260.433 150.069 259.75 153.056C259.067 156 257.979 158.347 256.486 160.096C255.035 161.803 253.094 163.04 250.662 163.808C248.23 164.533 245.265 164.896 241.766 164.896C238.267 164.896 235.302 164.533 232.87 163.808C230.438 163.04 228.475 161.803 226.982 160.096C225.489 158.347 224.401 156 223.718 153.056C223.035 150.069 222.694 146.357 222.694 141.92C222.694 137.483 223.035 133.792 223.718 130.848C224.401 127.861 225.489 125.515 226.982 123.808C228.475 122.059 230.438 120.821 232.87 120.096C235.302 119.328 238.267 118.944 241.766 118.944ZM241.766 126.688C239.505 126.688 237.734 127.136 236.454 128.032C235.217 128.928 234.321 130.485 233.766 132.704C233.254 134.88 232.998 137.952 232.998 141.92C232.998 145.845 233.254 148.917 233.766 151.136C234.321 153.355 235.217 154.912 236.454 155.808C237.734 156.704 239.505 157.152 241.766 157.152C243.985 157.152 245.713 156.704 246.95 155.808C248.23 154.912 249.126 153.355 249.638 151.136C250.193 148.917 250.47 145.845 250.47 141.92C250.47 137.952 250.193 134.88 249.638 132.704C249.126 130.485 248.23 128.928 246.95 128.032C245.713 127.136 243.985 126.688 241.766 126.688ZM285.253 119.2C289.135 119.2 292.271 119.605 294.661 120.416C297.093 121.184 298.863 122.528 299.972 124.448C301.125 126.325 301.701 128.949 301.701 132.32C301.701 134.368 301.423 136.181 300.869 137.76C300.357 139.296 299.482 140.533 298.245 141.472C297.007 142.411 295.322 143.008 293.189 143.264V143.584C293.957 143.712 294.746 144.011 295.557 144.48C296.41 144.949 297.199 145.653 297.925 146.592C298.65 147.488 299.183 148.704 299.525 150.24L303.365 164H293.061L289.669 150.56C289.285 149.109 288.709 148.107 287.941 147.552C287.215 146.997 286.191 146.72 284.869 146.72C281.967 146.72 279.514 146.72 277.509 146.72C275.546 146.677 273.882 146.635 272.517 146.592C271.194 146.549 269.999 146.507 268.933 146.464L269.125 139.36H285.061C286.767 139.36 288.111 139.189 289.093 138.848C290.117 138.464 290.821 137.803 291.205 136.864C291.631 135.925 291.845 134.624 291.845 132.96C291.845 131.253 291.631 129.952 291.205 129.056C290.821 128.117 290.117 127.477 289.093 127.136C288.111 126.752 286.767 126.56 285.061 126.56C281.05 126.56 277.658 126.581 274.885 126.624C272.111 126.667 270.213 126.731 269.189 126.816L268.229 119.84C270.021 119.627 271.706 119.477 273.285 119.392C274.863 119.307 276.591 119.264 278.469 119.264C280.346 119.221 282.607 119.2 285.253 119.2ZM277.893 119.84V164H268.229V119.84H277.893ZM328.878 119.84V164H319.086V119.84H328.878ZM342.19 119.84V127.52H305.838V119.84H342.19ZM357.074 119.648C359.335 119.648 361.639 119.669 363.986 119.712C366.375 119.712 368.701 119.776 370.962 119.904C373.266 119.989 375.399 120.139 377.362 120.352L376.85 127.392H360.85C359.698 127.392 358.823 127.669 358.226 128.224C357.629 128.779 357.33 129.589 357.33 130.656V164H347.538V128.672C347.538 125.941 348.413 123.765 350.162 122.144C351.911 120.48 354.215 119.648 357.074 119.648ZM348.69 138.336H374.482V145.248H348.69V138.336ZM400.704 118.944C404.202 118.944 407.168 119.328 409.6 120.096C412.032 120.821 413.973 122.059 415.424 123.808C416.917 125.515 418.005 127.861 418.688 130.848C419.37 133.792 419.712 137.483 419.712 141.92C419.712 146.357 419.37 150.069 418.688 153.056C418.005 156 416.917 158.347 415.424 160.096C413.973 161.803 412.032 163.04 409.6 163.808C407.168 164.533 404.202 164.896 400.704 164.896C397.205 164.896 394.24 164.533 391.808 163.808C389.376 163.04 387.413 161.803 385.92 160.096C384.426 158.347 383.338 156 382.656 153.056C381.973 150.069 381.632 146.357 381.632 141.92C381.632 137.483 381.973 133.792 382.656 130.848C383.338 127.861 384.426 125.515 385.92 123.808C387.413 122.059 389.376 120.821 391.808 120.096C394.24 119.328 397.205 118.944 400.704 118.944ZM400.704 126.688C398.442 126.688 396.672 127.136 395.392 128.032C394.154 128.928 393.258 130.485 392.704 132.704C392.192 134.88 391.936 137.952 391.936 141.92C391.936 145.845 392.192 148.917 392.704 151.136C393.258 153.355 394.154 154.912 395.392 155.808C396.672 156.704 398.442 157.152 400.704 157.152C402.922 157.152 404.65 156.704 405.888 155.808C407.168 154.912 408.064 153.355 408.576 151.136C409.13 148.917 409.408 145.845 409.408 141.92C409.408 137.952 409.13 134.88 408.576 132.704C408.064 130.485 407.168 128.928 405.888 128.032C404.65 127.136 402.922 126.688 400.704 126.688ZM436.83 119.84V152.864C436.83 153.931 437.129 154.741 437.726 155.296C438.323 155.851 439.177 156.128 440.286 156.128H455.71L456.158 163.488C453.129 163.829 449.95 164.021 446.622 164.064C443.337 164.149 440.051 164.192 436.766 164.192C433.566 164.192 431.134 163.339 429.47 161.632C427.849 159.883 427.038 157.664 427.038 154.976V119.84H436.83ZM471.271 119.84V164H461.543V119.84H471.271ZM497.766 118.944C501.265 118.944 504.23 119.328 506.662 120.096C509.094 120.821 511.035 122.059 512.486 123.808C513.979 125.515 515.067 127.861 515.75 130.848C516.433 133.792 516.774 137.483 516.774 141.92C516.774 146.357 516.433 150.069 515.75 153.056C515.067 156 513.979 158.347 512.486 160.096C511.035 161.803 509.094 163.04 506.662 163.808C504.23 164.533 501.265 164.896 497.766 164.896C494.267 164.896 491.302 164.533 488.87 163.808C486.438 163.04 484.475 161.803 482.982 160.096C481.489 158.347 480.401 156 479.718 153.056C479.035 150.069 478.694 146.357 478.694 141.92C478.694 137.483 479.035 133.792 479.718 130.848C480.401 127.861 481.489 125.515 482.982 123.808C484.475 122.059 486.438 120.821 488.87 120.096C491.302 119.328 494.267 118.944 497.766 118.944ZM497.766 126.688C495.505 126.688 493.734 127.136 492.454 128.032C491.217 128.928 490.321 130.485 489.766 132.704C489.254 134.88 488.998 137.952 488.998 141.92C488.998 145.845 489.254 148.917 489.766 151.136C490.321 153.355 491.217 154.912 492.454 155.808C493.734 156.704 495.505 157.152 497.766 157.152C499.985 157.152 501.713 156.704 502.95 155.808C504.23 154.912 505.126 153.355 505.638 151.136C506.193 148.917 506.47 145.845 506.47 141.92C506.47 137.952 506.193 134.88 505.638 132.704C505.126 130.485 504.23 128.928 502.95 128.032C501.713 127.136 499.985 126.688 497.766 126.688Z" fill="white"/>
<path d="M294.133 83.224C295.349 83.224 296.373 83.368 297.205 83.656C298.053 83.944 298.733 84.416 299.245 85.072C299.757 85.712 300.125 86.584 300.349 87.688C300.589 88.776 300.709 90.12 300.709 91.72C300.709 93.32 300.589 94.672 300.349 95.776C300.125 96.864 299.757 97.736 299.245 98.392C298.733 99.032 298.053 99.496 297.205 99.784C296.373 100.072 295.349 100.216 294.133 100.216C292.981 100.216 291.909 100.192 290.917 100.144C289.941 100.112 289.013 100.064 288.133 100L289.141 98.08C289.813 98.112 290.557 98.144 291.373 98.176C292.205 98.192 293.125 98.2 294.133 98.2C295.157 98.2 295.965 98 296.557 97.6C297.149 97.2 297.565 96.536 297.805 95.608C298.061 94.664 298.189 93.368 298.189 91.72C298.189 90.072 298.061 88.784 297.805 87.856C297.565 86.912 297.149 86.24 296.557 85.84C295.965 85.424 295.157 85.216 294.133 85.216C293.141 85.216 292.253 85.224 291.469 85.24C290.685 85.256 289.917 85.272 289.165 85.288L288.133 83.44C289.013 83.376 289.941 83.328 290.917 83.296C291.909 83.248 292.981 83.224 294.133 83.224ZM290.533 83.44V100H288.133V83.44H290.533ZM307.261 83.416C308.061 83.416 308.877 83.416 309.709 83.416C310.541 83.416 311.357 83.432 312.157 83.464C312.973 83.48 313.749 83.512 314.485 83.56L314.389 85.408H307.789C307.309 85.408 306.957 85.528 306.733 85.768C306.509 86.008 306.397 86.392 306.397 86.92V96.52C306.397 97.048 306.509 97.44 306.733 97.696C306.957 97.936 307.309 98.056 307.789 98.056H314.389L314.485 99.88C313.749 99.928 312.973 99.96 312.157 99.976C311.357 99.992 310.541 100 309.709 100C308.877 100.016 308.061 100.024 307.261 100.024C306.269 100.024 305.477 99.76 304.885 99.232C304.309 98.688 304.013 97.968 303.997 97.072V86.368C304.013 85.456 304.309 84.736 304.885 84.208C305.477 83.68 306.269 83.416 307.261 83.416ZM304.429 90.352H313.453V92.2H304.429V90.352ZM330.048 83.44L325.104 99.328C325.04 99.504 324.928 99.664 324.768 99.808C324.608 99.936 324.424 100 324.216 100H321.84C321.616 100 321.424 99.936 321.264 99.808C321.104 99.664 320.992 99.504 320.928 99.328L316.008 83.44H318.504L322.248 96.352C322.328 96.656 322.408 96.96 322.488 97.264C322.568 97.552 322.64 97.848 322.704 98.152H323.352C323.416 97.848 323.488 97.544 323.568 97.24C323.648 96.936 323.736 96.632 323.832 96.328L327.552 83.44H330.048ZM335.55 83.416C336.35 83.416 337.166 83.416 337.998 83.416C338.83 83.416 339.646 83.432 340.446 83.464C341.262 83.48 342.038 83.512 342.774 83.56L342.678 85.408H336.078C335.598 85.408 335.246 85.528 335.022 85.768C334.798 86.008 334.686 86.392 334.686 86.92V96.52C334.686 97.048 334.798 97.44 335.022 97.696C335.246 97.936 335.598 98.056 336.078 98.056H342.678L342.774 99.88C342.038 99.928 341.262 99.96 340.446 99.976C339.646 99.992 338.83 100 337.998 100C337.166 100.016 336.35 100.024 335.55 100.024C334.558 100.024 333.766 99.76 333.174 99.232C332.598 98.688 332.302 97.968 332.286 97.072V86.368C332.302 85.456 332.598 84.736 333.174 84.208C333.766 83.68 334.558 83.416 335.55 83.416ZM332.718 90.352H341.742V92.2H332.718V90.352ZM348.282 83.44V96.496C348.282 97.008 348.41 97.392 348.666 97.648C348.922 97.888 349.314 98.008 349.842 98.008H355.77L355.89 99.856C354.818 99.936 353.73 99.984 352.626 100C351.522 100.016 350.418 100.024 349.314 100.024C348.098 100.024 347.226 99.728 346.698 99.136C346.17 98.528 345.906 97.768 345.906 96.856V83.44H348.282ZM364.072 83.128C365.288 83.128 366.32 83.272 367.168 83.56C368.032 83.848 368.72 84.32 369.232 84.976C369.744 85.632 370.112 86.512 370.336 87.616C370.576 88.72 370.696 90.088 370.696 91.72C370.696 93.336 370.576 94.704 370.336 95.824C370.112 96.928 369.744 97.808 369.232 98.464C368.72 99.12 368.032 99.592 367.168 99.88C366.32 100.168 365.288 100.312 364.072 100.312C362.856 100.312 361.816 100.168 360.952 99.88C360.104 99.592 359.416 99.12 358.888 98.464C358.376 97.808 358 96.928 357.76 95.824C357.52 94.704 357.4 93.336 357.4 91.72C357.4 90.088 357.52 88.72 357.76 87.616C358 86.512 358.376 85.632 358.888 84.976C359.416 84.32 360.104 83.848 360.952 83.56C361.816 83.272 362.856 83.128 364.072 83.128ZM364.072 85.216C363.032 85.216 362.208 85.416 361.6 85.816C360.992 86.216 360.56 86.888 360.304 87.832C360.064 88.76 359.944 90.056 359.944 91.72C359.944 93.368 360.064 94.664 360.304 95.608C360.56 96.552 360.992 97.224 361.6 97.624C362.208 98.024 363.032 98.224 364.072 98.224C365.112 98.224 365.928 98.024 366.52 97.624C367.128 97.224 367.56 96.552 367.816 95.608C368.072 94.664 368.2 93.368 368.2 91.72C368.2 90.056 368.072 88.76 367.816 87.832C367.56 86.888 367.128 86.216 366.52 85.816C365.928 85.416 365.112 85.216 364.072 85.216ZM379.957 83.224C381.317 83.224 382.397 83.376 383.197 83.68C383.997 83.984 384.565 84.512 384.901 85.264C385.253 86.016 385.429 87.08 385.429 88.456C385.429 89.816 385.261 90.88 384.925 91.648C384.589 92.4 384.037 92.928 383.269 93.232C382.517 93.52 381.509 93.664 380.245 93.664C379.557 93.664 378.893 93.648 378.253 93.616C377.629 93.584 377.053 93.536 376.525 93.472C375.997 93.408 375.541 93.344 375.157 93.28C374.789 93.2 374.533 93.128 374.389 93.064L374.461 91.672C375.325 91.672 376.221 91.672 377.149 91.672C378.077 91.672 379.005 91.672 379.933 91.672C380.701 91.656 381.309 91.56 381.757 91.384C382.205 91.208 382.525 90.888 382.717 90.424C382.909 89.96 383.005 89.304 383.005 88.456C383.005 87.592 382.909 86.928 382.717 86.464C382.525 86 382.205 85.68 381.757 85.504C381.309 85.312 380.701 85.216 379.933 85.216C378.589 85.216 377.429 85.224 376.453 85.24C375.477 85.256 374.821 85.28 374.485 85.312L374.149 83.44C374.757 83.376 375.333 83.328 375.877 83.296C376.421 83.264 377.013 83.248 377.653 83.248C378.293 83.232 379.061 83.224 379.957 83.224ZM376.549 83.44V100H374.149V83.44H376.549ZM391.542 83.416C392.342 83.416 393.158 83.416 393.99 83.416C394.822 83.416 395.638 83.432 396.438 83.464C397.254 83.48 398.03 83.512 398.766 83.56L398.67 85.408H392.07C391.59 85.408 391.238 85.528 391.014 85.768C390.79 86.008 390.678 86.392 390.678 86.92V96.52C390.678 97.048 390.79 97.44 391.014 97.696C391.238 97.936 391.59 98.056 392.07 98.056H398.67L398.766 99.88C398.03 99.928 397.254 99.96 396.438 99.976C395.638 99.992 394.822 100 393.99 100C393.158 100.016 392.342 100.024 391.542 100.024C390.55 100.024 389.758 99.76 389.166 99.232C388.59 98.688 388.294 97.968 388.278 97.072V86.368C388.294 85.456 388.59 84.736 389.166 84.208C389.758 83.68 390.55 83.416 391.542 83.416ZM388.71 90.352H397.734V92.2H388.71V90.352ZM407.778 83.224C409.09 83.224 410.146 83.368 410.946 83.656C411.762 83.928 412.354 84.416 412.722 85.12C413.09 85.808 413.274 86.776 413.274 88.024C413.274 88.904 413.17 89.64 412.962 90.232C412.754 90.824 412.426 91.288 411.978 91.624C411.546 91.96 410.954 92.176 410.202 92.272V92.392C410.474 92.456 410.746 92.584 411.018 92.776C411.29 92.968 411.546 93.232 411.786 93.568C412.026 93.888 412.202 94.296 412.314 94.792L413.874 100H411.33L409.89 94.84C409.698 94.232 409.434 93.8 409.098 93.544C408.762 93.288 408.322 93.16 407.778 93.16C406.77 93.16 405.906 93.16 405.186 93.16C404.466 93.144 403.858 93.128 403.362 93.112C402.882 93.096 402.49 93.088 402.186 93.088L402.258 91.168H407.73C408.514 91.152 409.13 91.064 409.578 90.904C410.026 90.728 410.346 90.424 410.538 89.992C410.746 89.56 410.85 88.952 410.85 88.168C410.85 87.384 410.746 86.784 410.538 86.368C410.346 85.936 410.026 85.64 409.578 85.48C409.13 85.304 408.514 85.216 407.73 85.216C406.386 85.216 405.226 85.224 404.25 85.24C403.274 85.256 402.618 85.264 402.282 85.264L401.946 83.44C402.554 83.376 403.13 83.328 403.674 83.296C404.218 83.264 404.81 83.248 405.45 83.248C406.106 83.232 406.882 83.224 407.778 83.224ZM404.322 83.44V100H401.946V83.44H404.322Z" fill="white"/>
</svg>
