<svg width="480" height="180" viewBox="0 0 480 180" fill="none" xmlns="http://www.w3.org/2000/svg">
<rect width="480" height="180" rx="4" fill="black"/>
<path d="M142.589 89.6C145.305 89.6 147.433 89.88 148.973 90.44C150.513 91 151.605 91.966 152.249 93.338C152.921 94.71 153.257 96.628 153.257 99.092C153.257 101.556 152.935 103.474 152.291 104.846C151.675 106.218 150.653 107.184 149.225 107.744C147.797 108.276 145.865 108.542 143.429 108.542C142.141 108.542 140.881 108.486 139.649 108.374C138.417 108.262 137.269 108.122 136.205 107.954C135.141 107.786 134.231 107.618 133.475 107.45C132.719 107.254 132.201 107.072 131.921 106.904L132.047 103.712C133.699 103.712 135.407 103.712 137.171 103.712C138.963 103.712 140.727 103.712 142.463 103.712C143.583 103.684 144.451 103.544 145.067 103.292C145.711 103.04 146.159 102.578 146.411 101.906C146.691 101.234 146.831 100.296 146.831 99.092C146.831 97.86 146.691 96.908 146.411 96.236C146.159 95.564 145.711 95.102 145.067 94.85C144.451 94.57 143.583 94.43 142.463 94.43C139.887 94.43 137.675 94.444 135.827 94.472C133.979 94.5 132.733 94.556 132.089 94.64L131.459 90.02C132.635 89.88 133.741 89.782 134.777 89.726C135.813 89.67 136.933 89.642 138.137 89.642C139.369 89.614 140.853 89.6 142.589 89.6ZM137.885 90.02V119H131.459V90.02H137.885ZM168.971 89.432C171.267 89.432 173.213 89.684 174.809 90.188C176.405 90.664 177.679 91.476 178.631 92.624C179.611 93.744 180.325 95.284 180.773 97.244C181.221 99.176 181.445 101.598 181.445 104.51C181.445 107.422 181.221 109.858 180.773 111.818C180.325 113.75 179.611 115.29 178.631 116.438C177.679 117.558 176.405 118.37 174.809 118.874C173.213 119.35 171.267 119.588 168.971 119.588C166.675 119.588 164.729 119.35 163.133 118.874C161.537 118.37 160.249 117.558 159.269 116.438C158.289 115.29 157.575 113.75 157.127 111.818C156.679 109.858 156.455 107.422 156.455 104.51C156.455 101.598 156.679 99.176 157.127 97.244C157.575 95.284 158.289 93.744 159.269 92.624C160.249 91.476 161.537 90.664 163.133 90.188C164.729 89.684 166.675 89.432 168.971 89.432ZM168.971 94.514C167.487 94.514 166.325 94.808 165.485 95.396C164.673 95.984 164.085 97.006 163.721 98.462C163.385 99.89 163.217 101.906 163.217 104.51C163.217 107.086 163.385 109.102 163.721 110.558C164.085 112.014 164.673 113.036 165.485 113.624C166.325 114.212 167.487 114.506 168.971 114.506C170.427 114.506 171.561 114.212 172.373 113.624C173.213 113.036 173.801 112.014 174.137 110.558C174.501 109.102 174.683 107.086 174.683 104.51C174.683 101.906 174.501 99.89 174.137 98.462C173.801 97.006 173.213 95.984 172.373 95.396C171.561 94.808 170.427 94.514 168.971 94.514ZM197.509 89.6C200.057 89.6 202.115 89.866 203.683 90.398C205.279 90.902 206.441 91.784 207.169 93.044C207.925 94.276 208.303 95.998 208.303 98.21C208.303 99.554 208.121 100.744 207.757 101.78C207.421 102.788 206.847 103.6 206.035 104.216C205.223 104.832 204.117 105.224 202.717 105.392V105.602C203.221 105.686 203.739 105.882 204.271 106.19C204.831 106.498 205.349 106.96 205.825 107.576C206.301 108.164 206.651 108.962 206.875 109.97L209.395 119H202.633L200.407 110.18C200.155 109.228 199.777 108.57 199.273 108.206C198.797 107.842 198.125 107.66 197.257 107.66C195.353 107.66 193.743 107.66 192.427 107.66C191.139 107.632 190.047 107.604 189.151 107.576C188.283 107.548 187.499 107.52 186.799 107.492L186.925 102.83H197.383C198.503 102.83 199.385 102.718 200.029 102.494C200.701 102.242 201.163 101.808 201.415 101.192C201.695 100.576 201.835 99.722 201.835 98.63C201.835 97.51 201.695 96.656 201.415 96.068C201.163 95.452 200.701 95.032 200.029 94.808C199.385 94.556 198.503 94.43 197.383 94.43C194.751 94.43 192.525 94.444 190.705 94.472C188.885 94.5 187.639 94.542 186.967 94.598L186.337 90.02C187.513 89.88 188.619 89.782 189.655 89.726C190.691 89.67 191.825 89.642 193.057 89.642C194.289 89.614 195.773 89.6 197.509 89.6ZM192.679 90.02V119H186.337V90.02H192.679ZM226.139 90.02V119H219.713V90.02H226.139ZM234.875 90.02V95.06H211.019V90.02H234.875ZM244.642 89.894C246.126 89.894 247.638 89.908 249.178 89.936C250.746 89.936 252.272 89.978 253.756 90.062C255.268 90.118 256.668 90.216 257.956 90.356L257.62 94.976H247.12C246.364 94.976 245.79 95.158 245.398 95.522C245.006 95.886 244.81 96.418 244.81 97.118V119H238.384V95.816C238.384 94.024 238.958 92.596 240.106 91.532C241.254 90.44 242.766 89.894 244.642 89.894ZM239.14 102.158H256.066V106.694H239.14V102.158ZM273.274 89.432C275.57 89.432 277.516 89.684 279.112 90.188C280.708 90.664 281.982 91.476 282.934 92.624C283.914 93.744 284.628 95.284 285.076 97.244C285.524 99.176 285.748 101.598 285.748 104.51C285.748 107.422 285.524 109.858 285.076 111.818C284.628 113.75 283.914 115.29 282.934 116.438C281.982 117.558 280.708 118.37 279.112 118.874C277.516 119.35 275.57 119.588 273.274 119.588C270.978 119.588 269.032 119.35 267.436 118.874C265.84 118.37 264.552 117.558 263.572 116.438C262.592 115.29 261.878 113.75 261.43 111.818C260.982 109.858 260.758 107.422 260.758 104.51C260.758 101.598 260.982 99.176 261.43 97.244C261.878 95.284 262.592 93.744 263.572 92.624C264.552 91.476 265.84 90.664 267.436 90.188C269.032 89.684 270.978 89.432 273.274 89.432ZM273.274 94.514C271.79 94.514 270.628 94.808 269.788 95.396C268.976 95.984 268.388 97.006 268.024 98.462C267.688 99.89 267.52 101.906 267.52 104.51C267.52 107.086 267.688 109.102 268.024 110.558C268.388 112.014 268.976 113.036 269.788 113.624C270.628 114.212 271.79 114.506 273.274 114.506C274.73 114.506 275.864 114.212 276.676 113.624C277.516 113.036 278.104 112.014 278.44 110.558C278.804 109.102 278.986 107.086 278.986 104.51C278.986 101.906 278.804 99.89 278.44 98.462C278.104 97.006 277.516 95.984 276.676 95.396C275.864 94.808 274.73 94.514 273.274 94.514ZM296.982 90.02V111.692C296.982 112.392 297.178 112.924 297.57 113.288C297.962 113.652 298.522 113.834 299.25 113.834H309.372L309.666 118.664C307.678 118.888 305.592 119.014 303.408 119.042C301.252 119.098 299.096 119.126 296.94 119.126C294.84 119.126 293.244 118.566 292.152 117.446C291.088 116.298 290.556 114.842 290.556 113.078V90.02H296.982ZM319.584 90.02V119H313.2V90.02H319.584ZM336.971 89.432C339.267 89.432 341.213 89.684 342.809 90.188C344.405 90.664 345.679 91.476 346.631 92.624C347.611 93.744 348.325 95.284 348.773 97.244C349.221 99.176 349.445 101.598 349.445 104.51C349.445 107.422 349.221 109.858 348.773 111.818C348.325 113.75 347.611 115.29 346.631 116.438C345.679 117.558 344.405 118.37 342.809 118.874C341.213 119.35 339.267 119.588 336.971 119.588C334.675 119.588 332.729 119.35 331.133 118.874C329.537 118.37 328.249 117.558 327.269 116.438C326.289 115.29 325.575 113.75 325.127 111.818C324.679 109.858 324.455 107.422 324.455 104.51C324.455 101.598 324.679 99.176 325.127 97.244C325.575 95.284 326.289 93.744 327.269 92.624C328.249 91.476 329.537 90.664 331.133 90.188C332.729 89.684 334.675 89.432 336.971 89.432ZM336.971 94.514C335.487 94.514 334.325 94.808 333.485 95.396C332.673 95.984 332.085 97.006 331.721 98.462C331.385 99.89 331.217 101.906 331.217 104.51C331.217 107.086 331.385 109.102 331.721 110.558C332.085 112.014 332.673 113.036 333.485 113.624C334.325 114.212 335.487 114.506 336.971 114.506C338.427 114.506 339.561 114.212 340.373 113.624C341.213 113.036 341.801 112.014 342.137 110.558C342.501 109.102 342.683 107.086 342.683 104.51C342.683 101.906 342.501 99.89 342.137 98.462C341.801 97.006 341.213 95.984 340.373 95.396C339.561 94.808 338.427 94.514 336.971 94.514Z" fill="white"/>
<path d="M183.633 60.224C184.849 60.224 185.873 60.368 186.705 60.656C187.553 60.944 188.233 61.416 188.745 62.072C189.257 62.712 189.625 63.584 189.849 64.688C190.089 65.776 190.209 67.12 190.209 68.72C190.209 70.32 190.089 71.672 189.849 72.776C189.625 73.864 189.257 74.736 188.745 75.392C188.233 76.032 187.553 76.496 186.705 76.784C185.873 77.072 184.849 77.216 183.633 77.216C182.481 77.216 181.409 77.192 180.417 77.144C179.441 77.112 178.513 77.064 177.633 77L178.641 75.08C179.313 75.112 180.057 75.144 180.873 75.176C181.705 75.192 182.625 75.2 183.633 75.2C184.657 75.2 185.465 75 186.057 74.6C186.649 74.2 187.065 73.536 187.305 72.608C187.561 71.664 187.689 70.368 187.689 68.72C187.689 67.072 187.561 65.784 187.305 64.856C187.065 63.912 186.649 63.24 186.057 62.84C185.465 62.424 184.657 62.216 183.633 62.216C182.641 62.216 181.753 62.224 180.969 62.24C180.185 62.256 179.417 62.272 178.665 62.288L177.633 60.44C178.513 60.376 179.441 60.328 180.417 60.296C181.409 60.248 182.481 60.224 183.633 60.224ZM180.033 60.44V77H177.633V60.44H180.033ZM196.761 60.416C197.561 60.416 198.377 60.416 199.209 60.416C200.041 60.416 200.857 60.432 201.657 60.464C202.473 60.48 203.249 60.512 203.985 60.56L203.889 62.408H197.289C196.809 62.408 196.457 62.528 196.233 62.768C196.009 63.008 195.897 63.392 195.897 63.92V73.52C195.897 74.048 196.009 74.44 196.233 74.696C196.457 74.936 196.809 75.056 197.289 75.056H203.889L203.985 76.88C203.249 76.928 202.473 76.96 201.657 76.976C200.857 76.992 200.041 77 199.209 77C198.377 77.016 197.561 77.024 196.761 77.024C195.769 77.024 194.977 76.76 194.385 76.232C193.809 75.688 193.513 74.968 193.497 74.072V63.368C193.513 62.456 193.809 61.736 194.385 61.208C194.977 60.68 195.769 60.416 196.761 60.416ZM193.929 67.352H202.953V69.2H193.929V67.352ZM219.548 60.44L214.604 76.328C214.54 76.504 214.428 76.664 214.268 76.808C214.108 76.936 213.924 77 213.716 77H211.34C211.116 77 210.924 76.936 210.764 76.808C210.604 76.664 210.492 76.504 210.428 76.328L205.508 60.44H208.004L211.748 73.352C211.828 73.656 211.908 73.96 211.988 74.264C212.068 74.552 212.14 74.848 212.204 75.152H212.852C212.916 74.848 212.988 74.544 213.068 74.24C213.148 73.936 213.236 73.632 213.332 73.328L217.052 60.44H219.548ZM225.05 60.416C225.85 60.416 226.666 60.416 227.498 60.416C228.33 60.416 229.146 60.432 229.946 60.464C230.762 60.48 231.538 60.512 232.274 60.56L232.178 62.408H225.578C225.098 62.408 224.746 62.528 224.522 62.768C224.298 63.008 224.186 63.392 224.186 63.92V73.52C224.186 74.048 224.298 74.44 224.522 74.696C224.746 74.936 225.098 75.056 225.578 75.056H232.178L232.274 76.88C231.538 76.928 230.762 76.96 229.946 76.976C229.146 76.992 228.33 77 227.498 77C226.666 77.016 225.85 77.024 225.05 77.024C224.058 77.024 223.266 76.76 222.674 76.232C222.098 75.688 221.802 74.968 221.786 74.072V63.368C221.802 62.456 222.098 61.736 222.674 61.208C223.266 60.68 224.058 60.416 225.05 60.416ZM222.218 67.352H231.242V69.2H222.218V67.352ZM237.782 60.44V73.496C237.782 74.008 237.91 74.392 238.166 74.648C238.422 74.888 238.814 75.008 239.342 75.008H245.27L245.39 76.856C244.318 76.936 243.23 76.984 242.126 77C241.022 77.016 239.918 77.024 238.814 77.024C237.598 77.024 236.726 76.728 236.198 76.136C235.67 75.528 235.406 74.768 235.406 73.856V60.44H237.782ZM253.572 60.128C254.788 60.128 255.82 60.272 256.668 60.56C257.532 60.848 258.22 61.32 258.732 61.976C259.244 62.632 259.612 63.512 259.836 64.616C260.076 65.72 260.196 67.088 260.196 68.72C260.196 70.336 260.076 71.704 259.836 72.824C259.612 73.928 259.244 74.808 258.732 75.464C258.22 76.12 257.532 76.592 256.668 76.88C255.82 77.168 254.788 77.312 253.572 77.312C252.356 77.312 251.316 77.168 250.452 76.88C249.604 76.592 248.916 76.12 248.388 75.464C247.876 74.808 247.5 73.928 247.26 72.824C247.02 71.704 246.9 70.336 246.9 68.72C246.9 67.088 247.02 65.72 247.26 64.616C247.5 63.512 247.876 62.632 248.388 61.976C248.916 61.32 249.604 60.848 250.452 60.56C251.316 60.272 252.356 60.128 253.572 60.128ZM253.572 62.216C252.532 62.216 251.708 62.416 251.1 62.816C250.492 63.216 250.06 63.888 249.804 64.832C249.564 65.76 249.444 67.056 249.444 68.72C249.444 70.368 249.564 71.664 249.804 72.608C250.06 73.552 250.492 74.224 251.1 74.624C251.708 75.024 252.532 75.224 253.572 75.224C254.612 75.224 255.428 75.024 256.02 74.624C256.628 74.224 257.06 73.552 257.316 72.608C257.572 71.664 257.7 70.368 257.7 68.72C257.7 67.056 257.572 65.76 257.316 64.832C257.06 63.888 256.628 63.216 256.02 62.816C255.428 62.416 254.612 62.216 253.572 62.216ZM269.457 60.224C270.817 60.224 271.897 60.376 272.697 60.68C273.497 60.984 274.065 61.512 274.401 62.264C274.753 63.016 274.929 64.08 274.929 65.456C274.929 66.816 274.761 67.88 274.425 68.648C274.089 69.4 273.537 69.928 272.769 70.232C272.017 70.52 271.009 70.664 269.745 70.664C269.057 70.664 268.393 70.648 267.753 70.616C267.129 70.584 266.553 70.536 266.025 70.472C265.497 70.408 265.041 70.344 264.657 70.28C264.289 70.2 264.033 70.128 263.889 70.064L263.961 68.672C264.825 68.672 265.721 68.672 266.649 68.672C267.577 68.672 268.505 68.672 269.433 68.672C270.201 68.656 270.809 68.56 271.257 68.384C271.705 68.208 272.025 67.888 272.217 67.424C272.409 66.96 272.505 66.304 272.505 65.456C272.505 64.592 272.409 63.928 272.217 63.464C272.025 63 271.705 62.68 271.257 62.504C270.809 62.312 270.201 62.216 269.433 62.216C268.089 62.216 266.929 62.224 265.953 62.24C264.977 62.256 264.321 62.28 263.985 62.312L263.649 60.44C264.257 60.376 264.833 60.328 265.377 60.296C265.921 60.264 266.513 60.248 267.153 60.248C267.793 60.232 268.561 60.224 269.457 60.224ZM266.049 60.44V77H263.649V60.44H266.049ZM281.042 60.416C281.842 60.416 282.658 60.416 283.49 60.416C284.322 60.416 285.138 60.432 285.938 60.464C286.754 60.48 287.53 60.512 288.266 60.56L288.17 62.408H281.57C281.09 62.408 280.738 62.528 280.514 62.768C280.29 63.008 280.178 63.392 280.178 63.92V73.52C280.178 74.048 280.29 74.44 280.514 74.696C280.738 74.936 281.09 75.056 281.57 75.056H288.17L288.266 76.88C287.53 76.928 286.754 76.96 285.938 76.976C285.138 76.992 284.322 77 283.49 77C282.658 77.016 281.842 77.024 281.042 77.024C280.05 77.024 279.258 76.76 278.666 76.232C278.09 75.688 277.794 74.968 277.778 74.072V63.368C277.794 62.456 278.09 61.736 278.666 61.208C279.258 60.68 280.05 60.416 281.042 60.416ZM278.21 67.352H287.234V69.2H278.21V67.352ZM297.278 60.224C298.59 60.224 299.646 60.368 300.446 60.656C301.262 60.928 301.854 61.416 302.222 62.12C302.59 62.808 302.774 63.776 302.774 65.024C302.774 65.904 302.67 66.64 302.462 67.232C302.254 67.824 301.926 68.288 301.478 68.624C301.046 68.96 300.454 69.176 299.702 69.272V69.392C299.974 69.456 300.246 69.584 300.518 69.776C300.79 69.968 301.046 70.232 301.286 70.568C301.526 70.888 301.702 71.296 301.814 71.792L303.374 77H300.83L299.39 71.84C299.198 71.232 298.934 70.8 298.598 70.544C298.262 70.288 297.822 70.16 297.278 70.16C296.27 70.16 295.406 70.16 294.686 70.16C293.966 70.144 293.358 70.128 292.862 70.112C292.382 70.096 291.99 70.088 291.686 70.088L291.758 68.168H297.23C298.014 68.152 298.63 68.064 299.078 67.904C299.526 67.728 299.846 67.424 300.038 66.992C300.246 66.56 300.35 65.952 300.35 65.168C300.35 64.384 300.246 63.784 300.038 63.368C299.846 62.936 299.526 62.64 299.078 62.48C298.63 62.304 298.014 62.216 297.23 62.216C295.886 62.216 294.726 62.224 293.75 62.24C292.774 62.256 292.118 62.264 291.782 62.264L291.446 60.44C292.054 60.376 292.63 60.328 293.174 60.296C293.718 60.264 294.31 60.248 294.95 60.248C295.606 60.232 296.382 60.224 297.278 60.224ZM293.822 60.44V77H291.446V60.44H293.822Z" fill="white"/>
</svg>
