<svg width="540" height="253" viewBox="0 0 540 253" fill="none" xmlns="http://www.w3.org/2000/svg">
<rect width="540" height="253" rx="4" fill="black"/>
<path d="M121.564 119.2C125.702 119.2 128.945 119.627 131.292 120.48C133.638 121.333 135.302 122.805 136.284 124.896C137.308 126.987 137.819 129.909 137.819 133.664C137.819 137.419 137.329 140.341 136.347 142.432C135.409 144.523 133.852 145.995 131.676 146.848C129.5 147.659 126.556 148.064 122.844 148.064C120.881 148.064 118.961 147.979 117.083 147.808C115.206 147.637 113.457 147.424 111.836 147.168C110.214 146.912 108.828 146.656 107.676 146.4C106.524 146.101 105.734 145.824 105.308 145.568L105.5 140.704C108.017 140.704 110.62 140.704 113.308 140.704C116.038 140.704 118.726 140.704 121.372 140.704C123.078 140.661 124.401 140.448 125.34 140.064C126.321 139.68 127.004 138.976 127.388 137.952C127.814 136.928 128.028 135.499 128.028 133.664C128.028 131.787 127.814 130.336 127.388 129.312C127.004 128.288 126.321 127.584 125.34 127.2C124.401 126.773 123.078 126.56 121.372 126.56C117.446 126.56 114.076 126.581 111.26 126.624C108.444 126.667 106.545 126.752 105.564 126.88L104.604 119.84C106.396 119.627 108.081 119.477 109.66 119.392C111.238 119.307 112.945 119.264 114.78 119.264C116.657 119.221 118.918 119.2 121.564 119.2ZM114.396 119.84V164H104.604V119.84H114.396ZM161.766 118.944C165.265 118.944 168.23 119.328 170.662 120.096C173.094 120.821 175.035 122.059 176.486 123.808C177.979 125.515 179.067 127.861 179.75 130.848C180.433 133.792 180.774 137.483 180.774 141.92C180.774 146.357 180.433 150.069 179.75 153.056C179.067 156 177.979 158.347 176.486 160.096C175.035 161.803 173.094 163.04 170.662 163.808C168.23 164.533 165.265 164.896 161.766 164.896C158.267 164.896 155.302 164.533 152.87 163.808C150.438 163.04 148.475 161.803 146.982 160.096C145.489 158.347 144.401 156 143.718 153.056C143.035 150.069 142.694 146.357 142.694 141.92C142.694 137.483 143.035 133.792 143.718 130.848C144.401 127.861 145.489 125.515 146.982 123.808C148.475 122.059 150.438 120.821 152.87 120.096C155.302 119.328 158.267 118.944 161.766 118.944ZM161.766 126.688C159.505 126.688 157.734 127.136 156.454 128.032C155.217 128.928 154.321 130.485 153.766 132.704C153.254 134.88 152.998 137.952 152.998 141.92C152.998 145.845 153.254 148.917 153.766 151.136C154.321 153.355 155.217 154.912 156.454 155.808C157.734 156.704 159.505 157.152 161.766 157.152C163.985 157.152 165.713 156.704 166.95 155.808C168.23 154.912 169.126 153.355 169.638 151.136C170.193 148.917 170.47 145.845 170.47 141.92C170.47 137.952 170.193 134.88 169.638 132.704C169.126 130.485 168.23 128.928 166.95 128.032C165.713 127.136 163.985 126.688 161.766 126.688ZM205.253 119.2C209.135 119.2 212.271 119.605 214.661 120.416C217.093 121.184 218.863 122.528 219.972 124.448C221.125 126.325 221.701 128.949 221.701 132.32C221.701 134.368 221.423 136.181 220.869 137.76C220.357 139.296 219.482 140.533 218.245 141.472C217.007 142.411 215.322 143.008 213.189 143.264V143.584C213.957 143.712 214.746 144.011 215.557 144.48C216.41 144.949 217.199 145.653 217.925 146.592C218.65 147.488 219.183 148.704 219.525 150.24L223.365 164H213.061L209.669 150.56C209.285 149.109 208.709 148.107 207.941 147.552C207.215 146.997 206.191 146.72 204.869 146.72C201.967 146.72 199.514 146.72 197.509 146.72C195.546 146.677 193.882 146.635 192.517 146.592C191.194 146.549 189.999 146.507 188.933 146.464L189.125 139.36H205.061C206.767 139.36 208.111 139.189 209.093 138.848C210.117 138.464 210.821 137.803 211.205 136.864C211.631 135.925 211.845 134.624 211.845 132.96C211.845 131.253 211.631 129.952 211.205 129.056C210.821 128.117 210.117 127.477 209.093 127.136C208.111 126.752 206.767 126.56 205.061 126.56C201.05 126.56 197.658 126.581 194.885 126.624C192.111 126.667 190.213 126.731 189.189 126.816L188.229 119.84C190.021 119.627 191.706 119.477 193.285 119.392C194.863 119.307 196.591 119.264 198.469 119.264C200.346 119.221 202.607 119.2 205.253 119.2ZM197.893 119.84V164H188.229V119.84H197.893ZM248.878 119.84V164H239.086V119.84H248.878ZM262.19 119.84V127.52H225.838V119.84H262.19ZM277.074 119.648C279.335 119.648 281.639 119.669 283.986 119.712C286.375 119.712 288.701 119.776 290.962 119.904C293.266 119.989 295.399 120.139 297.362 120.352L296.85 127.392H280.85C279.698 127.392 278.823 127.669 278.226 128.224C277.629 128.779 277.33 129.589 277.33 130.656V164H267.538V128.672C267.538 125.941 268.413 123.765 270.162 122.144C271.911 120.48 274.215 119.648 277.074 119.648ZM268.69 138.336H294.482V145.248H268.69V138.336ZM320.704 118.944C324.202 118.944 327.168 119.328 329.6 120.096C332.032 120.821 333.973 122.059 335.424 123.808C336.917 125.515 338.005 127.861 338.688 130.848C339.37 133.792 339.712 137.483 339.712 141.92C339.712 146.357 339.37 150.069 338.688 153.056C338.005 156 336.917 158.347 335.424 160.096C333.973 161.803 332.032 163.04 329.6 163.808C327.168 164.533 324.202 164.896 320.704 164.896C317.205 164.896 314.24 164.533 311.808 163.808C309.376 163.04 307.413 161.803 305.92 160.096C304.426 158.347 303.338 156 302.656 153.056C301.973 150.069 301.632 146.357 301.632 141.92C301.632 137.483 301.973 133.792 302.656 130.848C303.338 127.861 304.426 125.515 305.92 123.808C307.413 122.059 309.376 120.821 311.808 120.096C314.24 119.328 317.205 118.944 320.704 118.944ZM320.704 126.688C318.442 126.688 316.672 127.136 315.392 128.032C314.154 128.928 313.258 130.485 312.704 132.704C312.192 134.88 311.936 137.952 311.936 141.92C311.936 145.845 312.192 148.917 312.704 151.136C313.258 153.355 314.154 154.912 315.392 155.808C316.672 156.704 318.442 157.152 320.704 157.152C322.922 157.152 324.65 156.704 325.888 155.808C327.168 154.912 328.064 153.355 328.576 151.136C329.13 148.917 329.408 145.845 329.408 141.92C329.408 137.952 329.13 134.88 328.576 132.704C328.064 130.485 327.168 128.928 325.888 128.032C324.65 127.136 322.922 126.688 320.704 126.688ZM356.83 119.84V152.864C356.83 153.931 357.129 154.741 357.726 155.296C358.323 155.851 359.177 156.128 360.286 156.128H375.71L376.158 163.488C373.129 163.829 369.95 164.021 366.622 164.064C363.337 164.149 360.051 164.192 356.766 164.192C353.566 164.192 351.134 163.339 349.47 161.632C347.849 159.883 347.038 157.664 347.038 154.976V119.84H356.83ZM391.271 119.84V164H381.543V119.84H391.271ZM417.766 118.944C421.265 118.944 424.23 119.328 426.662 120.096C429.094 120.821 431.035 122.059 432.486 123.808C433.979 125.515 435.067 127.861 435.75 130.848C436.433 133.792 436.774 137.483 436.774 141.92C436.774 146.357 436.433 150.069 435.75 153.056C435.067 156 433.979 158.347 432.486 160.096C431.035 161.803 429.094 163.04 426.662 163.808C424.23 164.533 421.265 164.896 417.766 164.896C414.267 164.896 411.302 164.533 408.87 163.808C406.438 163.04 404.475 161.803 402.982 160.096C401.489 158.347 400.401 156 399.718 153.056C399.035 150.069 398.694 146.357 398.694 141.92C398.694 137.483 399.035 133.792 399.718 130.848C400.401 127.861 401.489 125.515 402.982 123.808C404.475 122.059 406.438 120.821 408.87 120.096C411.302 119.328 414.267 118.944 417.766 118.944ZM417.766 126.688C415.505 126.688 413.734 127.136 412.454 128.032C411.217 128.928 410.321 130.485 409.766 132.704C409.254 134.88 408.998 137.952 408.998 141.92C408.998 145.845 409.254 148.917 409.766 151.136C410.321 153.355 411.217 154.912 412.454 155.808C413.734 156.704 415.505 157.152 417.766 157.152C419.985 157.152 421.713 156.704 422.95 155.808C424.23 154.912 425.126 153.355 425.638 151.136C426.193 148.917 426.47 145.845 426.47 141.92C426.47 137.952 426.193 134.88 425.638 132.704C425.126 130.485 424.23 128.928 422.95 128.032C421.713 127.136 419.985 126.688 417.766 126.688Z" fill="white"/>
<path d="M214.133 83.224C215.349 83.224 216.373 83.368 217.205 83.656C218.053 83.944 218.733 84.416 219.245 85.072C219.757 85.712 220.125 86.584 220.349 87.688C220.589 88.776 220.709 90.12 220.709 91.72C220.709 93.32 220.589 94.672 220.349 95.776C220.125 96.864 219.757 97.736 219.245 98.392C218.733 99.032 218.053 99.496 217.205 99.784C216.373 100.072 215.349 100.216 214.133 100.216C212.981 100.216 211.909 100.192 210.917 100.144C209.941 100.112 209.013 100.064 208.133 100L209.141 98.08C209.813 98.112 210.557 98.144 211.373 98.176C212.205 98.192 213.125 98.2 214.133 98.2C215.157 98.2 215.965 98 216.557 97.6C217.149 97.2 217.565 96.536 217.805 95.608C218.061 94.664 218.189 93.368 218.189 91.72C218.189 90.072 218.061 88.784 217.805 87.856C217.565 86.912 217.149 86.24 216.557 85.84C215.965 85.424 215.157 85.216 214.133 85.216C213.141 85.216 212.253 85.224 211.469 85.24C210.685 85.256 209.917 85.272 209.165 85.288L208.133 83.44C209.013 83.376 209.941 83.328 210.917 83.296C211.909 83.248 212.981 83.224 214.133 83.224ZM210.533 83.44V100H208.133V83.44H210.533ZM227.261 83.416C228.061 83.416 228.877 83.416 229.709 83.416C230.541 83.416 231.357 83.432 232.157 83.464C232.973 83.48 233.749 83.512 234.485 83.56L234.389 85.408H227.789C227.309 85.408 226.957 85.528 226.733 85.768C226.509 86.008 226.397 86.392 226.397 86.92V96.52C226.397 97.048 226.509 97.44 226.733 97.696C226.957 97.936 227.309 98.056 227.789 98.056H234.389L234.485 99.88C233.749 99.928 232.973 99.96 232.157 99.976C231.357 99.992 230.541 100 229.709 100C228.877 100.016 228.061 100.024 227.261 100.024C226.269 100.024 225.477 99.76 224.885 99.232C224.309 98.688 224.013 97.968 223.997 97.072V86.368C224.013 85.456 224.309 84.736 224.885 84.208C225.477 83.68 226.269 83.416 227.261 83.416ZM224.429 90.352H233.453V92.2H224.429V90.352ZM250.048 83.44L245.104 99.328C245.04 99.504 244.928 99.664 244.768 99.808C244.608 99.936 244.424 100 244.216 100H241.84C241.616 100 241.424 99.936 241.264 99.808C241.104 99.664 240.992 99.504 240.928 99.328L236.008 83.44H238.504L242.248 96.352C242.328 96.656 242.408 96.96 242.488 97.264C242.568 97.552 242.64 97.848 242.704 98.152H243.352C243.416 97.848 243.488 97.544 243.568 97.24C243.648 96.936 243.736 96.632 243.832 96.328L247.552 83.44H250.048ZM255.55 83.416C256.35 83.416 257.166 83.416 257.998 83.416C258.83 83.416 259.646 83.432 260.446 83.464C261.262 83.48 262.038 83.512 262.774 83.56L262.678 85.408H256.078C255.598 85.408 255.246 85.528 255.022 85.768C254.798 86.008 254.686 86.392 254.686 86.92V96.52C254.686 97.048 254.798 97.44 255.022 97.696C255.246 97.936 255.598 98.056 256.078 98.056H262.678L262.774 99.88C262.038 99.928 261.262 99.96 260.446 99.976C259.646 99.992 258.83 100 257.998 100C257.166 100.016 256.35 100.024 255.55 100.024C254.558 100.024 253.766 99.76 253.174 99.232C252.598 98.688 252.302 97.968 252.286 97.072V86.368C252.302 85.456 252.598 84.736 253.174 84.208C253.766 83.68 254.558 83.416 255.55 83.416ZM252.718 90.352H261.742V92.2H252.718V90.352ZM268.282 83.44V96.496C268.282 97.008 268.41 97.392 268.666 97.648C268.922 97.888 269.314 98.008 269.842 98.008H275.77L275.89 99.856C274.818 99.936 273.73 99.984 272.626 100C271.522 100.016 270.418 100.024 269.314 100.024C268.098 100.024 267.226 99.728 266.698 99.136C266.17 98.528 265.906 97.768 265.906 96.856V83.44H268.282ZM284.072 83.128C285.288 83.128 286.32 83.272 287.168 83.56C288.032 83.848 288.72 84.32 289.232 84.976C289.744 85.632 290.112 86.512 290.336 87.616C290.576 88.72 290.696 90.088 290.696 91.72C290.696 93.336 290.576 94.704 290.336 95.824C290.112 96.928 289.744 97.808 289.232 98.464C288.72 99.12 288.032 99.592 287.168 99.88C286.32 100.168 285.288 100.312 284.072 100.312C282.856 100.312 281.816 100.168 280.952 99.88C280.104 99.592 279.416 99.12 278.888 98.464C278.376 97.808 278 96.928 277.76 95.824C277.52 94.704 277.4 93.336 277.4 91.72C277.4 90.088 277.52 88.72 277.76 87.616C278 86.512 278.376 85.632 278.888 84.976C279.416 84.32 280.104 83.848 280.952 83.56C281.816 83.272 282.856 83.128 284.072 83.128ZM284.072 85.216C283.032 85.216 282.208 85.416 281.6 85.816C280.992 86.216 280.56 86.888 280.304 87.832C280.064 88.76 279.944 90.056 279.944 91.72C279.944 93.368 280.064 94.664 280.304 95.608C280.56 96.552 280.992 97.224 281.6 97.624C282.208 98.024 283.032 98.224 284.072 98.224C285.112 98.224 285.928 98.024 286.52 97.624C287.128 97.224 287.56 96.552 287.816 95.608C288.072 94.664 288.2 93.368 288.2 91.72C288.2 90.056 288.072 88.76 287.816 87.832C287.56 86.888 287.128 86.216 286.52 85.816C285.928 85.416 285.112 85.216 284.072 85.216ZM299.957 83.224C301.317 83.224 302.397 83.376 303.197 83.68C303.997 83.984 304.565 84.512 304.901 85.264C305.253 86.016 305.429 87.08 305.429 88.456C305.429 89.816 305.261 90.88 304.925 91.648C304.589 92.4 304.037 92.928 303.269 93.232C302.517 93.52 301.509 93.664 300.245 93.664C299.557 93.664 298.893 93.648 298.253 93.616C297.629 93.584 297.053 93.536 296.525 93.472C295.997 93.408 295.541 93.344 295.157 93.28C294.789 93.2 294.533 93.128 294.389 93.064L294.461 91.672C295.325 91.672 296.221 91.672 297.149 91.672C298.077 91.672 299.005 91.672 299.933 91.672C300.701 91.656 301.309 91.56 301.757 91.384C302.205 91.208 302.525 90.888 302.717 90.424C302.909 89.96 303.005 89.304 303.005 88.456C303.005 87.592 302.909 86.928 302.717 86.464C302.525 86 302.205 85.68 301.757 85.504C301.309 85.312 300.701 85.216 299.933 85.216C298.589 85.216 297.429 85.224 296.453 85.24C295.477 85.256 294.821 85.28 294.485 85.312L294.149 83.44C294.757 83.376 295.333 83.328 295.877 83.296C296.421 83.264 297.013 83.248 297.653 83.248C298.293 83.232 299.061 83.224 299.957 83.224ZM296.549 83.44V100H294.149V83.44H296.549ZM311.542 83.416C312.342 83.416 313.158 83.416 313.99 83.416C314.822 83.416 315.638 83.432 316.438 83.464C317.254 83.48 318.03 83.512 318.766 83.56L318.67 85.408H312.07C311.59 85.408 311.238 85.528 311.014 85.768C310.79 86.008 310.678 86.392 310.678 86.92V96.52C310.678 97.048 310.79 97.44 311.014 97.696C311.238 97.936 311.59 98.056 312.07 98.056H318.67L318.766 99.88C318.03 99.928 317.254 99.96 316.438 99.976C315.638 99.992 314.822 100 313.99 100C313.158 100.016 312.342 100.024 311.542 100.024C310.55 100.024 309.758 99.76 309.166 99.232C308.59 98.688 308.294 97.968 308.278 97.072V86.368C308.294 85.456 308.59 84.736 309.166 84.208C309.758 83.68 310.55 83.416 311.542 83.416ZM308.71 90.352H317.734V92.2H308.71V90.352ZM327.778 83.224C329.09 83.224 330.146 83.368 330.946 83.656C331.762 83.928 332.354 84.416 332.722 85.12C333.09 85.808 333.274 86.776 333.274 88.024C333.274 88.904 333.17 89.64 332.962 90.232C332.754 90.824 332.426 91.288 331.978 91.624C331.546 91.96 330.954 92.176 330.202 92.272V92.392C330.474 92.456 330.746 92.584 331.018 92.776C331.29 92.968 331.546 93.232 331.786 93.568C332.026 93.888 332.202 94.296 332.314 94.792L333.874 100H331.33L329.89 94.84C329.698 94.232 329.434 93.8 329.098 93.544C328.762 93.288 328.322 93.16 327.778 93.16C326.77 93.16 325.906 93.16 325.186 93.16C324.466 93.144 323.858 93.128 323.362 93.112C322.882 93.096 322.49 93.088 322.186 93.088L322.258 91.168H327.73C328.514 91.152 329.13 91.064 329.578 90.904C330.026 90.728 330.346 90.424 330.538 89.992C330.746 89.56 330.85 88.952 330.85 88.168C330.85 87.384 330.746 86.784 330.538 86.368C330.346 85.936 330.026 85.64 329.578 85.48C329.13 85.304 328.514 85.216 327.73 85.216C326.386 85.216 325.226 85.224 324.25 85.24C323.274 85.256 322.618 85.264 322.282 85.264L321.946 83.44C322.554 83.376 323.13 83.328 323.674 83.296C324.218 83.264 324.81 83.248 325.45 83.248C326.106 83.232 326.882 83.224 327.778 83.224ZM324.322 83.44V100H321.946V83.44H324.322Z" fill="white"/>
</svg>
