<svg width="715" height="276" viewBox="0 0 715 276" fill="none" xmlns="http://www.w3.org/2000/svg">
<rect width="714.82" height="276" rx="4" fill="black"/>
<path d="M208.376 119.2C212.515 119.2 215.757 119.627 218.104 120.48C220.451 121.333 222.115 122.805 223.096 124.896C224.12 126.987 224.632 129.909 224.632 133.664C224.632 137.419 224.141 140.341 223.16 142.432C222.221 144.523 220.664 145.995 218.488 146.848C216.312 147.659 213.368 148.064 209.656 148.064C207.693 148.064 205.773 147.979 203.896 147.808C202.019 147.637 200.269 147.424 198.648 147.168C197.027 146.912 195.64 146.656 194.488 146.4C193.336 146.101 192.547 145.824 192.12 145.568L192.312 140.704C194.829 140.704 197.432 140.704 200.12 140.704C202.851 140.704 205.539 140.704 208.184 140.704C209.891 140.661 211.213 140.448 212.152 140.064C213.133 139.68 213.816 138.976 214.2 137.952C214.627 136.928 214.84 135.499 214.84 133.664C214.84 131.787 214.627 130.336 214.2 129.312C213.816 128.288 213.133 127.584 212.152 127.2C211.213 126.773 209.891 126.56 208.184 126.56C204.259 126.56 200.888 126.581 198.072 126.624C195.256 126.667 193.357 126.752 192.376 126.88L191.416 119.84C193.208 119.627 194.893 119.477 196.472 119.392C198.051 119.307 199.757 119.264 201.592 119.264C203.469 119.221 205.731 119.2 208.376 119.2ZM201.208 119.84V164H191.416V119.84H201.208ZM248.579 118.944C252.077 118.944 255.043 119.328 257.475 120.096C259.907 120.821 261.848 122.059 263.299 123.808C264.792 125.515 265.88 127.861 266.562 130.848C267.245 133.792 267.587 137.483 267.587 141.92C267.587 146.357 267.245 150.069 266.562 153.056C265.88 156 264.792 158.347 263.299 160.096C261.848 161.803 259.907 163.04 257.475 163.808C255.043 164.533 252.077 164.896 248.579 164.896C245.08 164.896 242.115 164.533 239.683 163.808C237.251 163.04 235.288 161.803 233.795 160.096C232.301 158.347 231.213 156 230.531 153.056C229.848 150.069 229.507 146.357 229.507 141.92C229.507 137.483 229.848 133.792 230.531 130.848C231.213 127.861 232.301 125.515 233.795 123.808C235.288 122.059 237.251 120.821 239.683 120.096C242.115 119.328 245.08 118.944 248.579 118.944ZM248.579 126.688C246.317 126.688 244.547 127.136 243.267 128.032C242.029 128.928 241.133 130.485 240.579 132.704C240.067 134.88 239.811 137.952 239.811 141.92C239.811 145.845 240.067 148.917 240.579 151.136C241.133 153.355 242.029 154.912 243.267 155.808C244.547 156.704 246.317 157.152 248.579 157.152C250.797 157.152 252.525 156.704 253.763 155.808C255.043 154.912 255.939 153.355 256.451 151.136C257.005 148.917 257.283 145.845 257.283 141.92C257.283 137.952 257.005 134.88 256.451 132.704C255.939 130.485 255.043 128.928 253.763 128.032C252.525 127.136 250.797 126.688 248.579 126.688ZM292.065 119.2C295.948 119.2 299.084 119.605 301.473 120.416C303.905 121.184 305.676 122.528 306.785 124.448C307.937 126.325 308.513 128.949 308.513 132.32C308.513 134.368 308.236 136.181 307.681 137.76C307.169 139.296 306.294 140.533 305.057 141.472C303.82 142.411 302.134 143.008 300.001 143.264V143.584C300.769 143.712 301.558 144.011 302.369 144.48C303.222 144.949 304.012 145.653 304.737 146.592C305.462 147.488 305.996 148.704 306.337 150.24L310.177 164H299.873L296.481 150.56C296.097 149.109 295.521 148.107 294.753 147.552C294.028 146.997 293.004 146.72 291.681 146.72C288.78 146.72 286.326 146.72 284.321 146.72C282.358 146.677 280.694 146.635 279.329 146.592C278.006 146.549 276.812 146.507 275.745 146.464L275.937 139.36H291.873C293.58 139.36 294.924 139.189 295.905 138.848C296.929 138.464 297.633 137.803 298.017 136.864C298.444 135.925 298.657 134.624 298.657 132.96C298.657 131.253 298.444 129.952 298.017 129.056C297.633 128.117 296.929 127.477 295.905 127.136C294.924 126.752 293.58 126.56 291.873 126.56C287.862 126.56 284.47 126.581 281.697 126.624C278.924 126.667 277.025 126.731 276.001 126.816L275.041 119.84C276.833 119.627 278.518 119.477 280.097 119.392C281.676 119.307 283.404 119.264 285.281 119.264C287.158 119.221 289.42 119.2 292.065 119.2ZM284.705 119.84V164H275.041V119.84H284.705ZM335.691 119.84V164H325.899V119.84H335.691ZM349.003 119.84V127.52H312.651V119.84H349.003ZM363.887 119.648C366.148 119.648 368.452 119.669 370.799 119.712C373.188 119.712 375.513 119.776 377.775 119.904C380.079 119.989 382.212 120.139 384.175 120.352L383.663 127.392H367.663C366.511 127.392 365.636 127.669 365.039 128.224C364.441 128.779 364.143 129.589 364.143 130.656V164H354.351V128.672C354.351 125.941 355.225 123.765 356.975 122.144C358.724 120.48 361.028 119.648 363.887 119.648ZM355.503 138.336H381.295V145.248H355.503V138.336ZM407.516 118.944C411.015 118.944 413.98 119.328 416.412 120.096C418.844 120.821 420.785 122.059 422.236 123.808C423.729 125.515 424.817 127.861 425.5 130.848C426.183 133.792 426.524 137.483 426.524 141.92C426.524 146.357 426.183 150.069 425.5 153.056C424.817 156 423.729 158.347 422.236 160.096C420.785 161.803 418.844 163.04 416.412 163.808C413.98 164.533 411.015 164.896 407.516 164.896C404.017 164.896 401.052 164.533 398.62 163.808C396.188 163.04 394.225 161.803 392.732 160.096C391.239 158.347 390.151 156 389.468 153.056C388.785 150.069 388.444 146.357 388.444 141.92C388.444 137.483 388.785 133.792 389.468 130.848C390.151 127.861 391.239 125.515 392.732 123.808C394.225 122.059 396.188 120.821 398.62 120.096C401.052 119.328 404.017 118.944 407.516 118.944ZM407.516 126.688C405.255 126.688 403.484 127.136 402.204 128.032C400.967 128.928 400.071 130.485 399.516 132.704C399.004 134.88 398.748 137.952 398.748 141.92C398.748 145.845 399.004 148.917 399.516 151.136C400.071 153.355 400.967 154.912 402.204 155.808C403.484 156.704 405.255 157.152 407.516 157.152C409.735 157.152 411.463 156.704 412.7 155.808C413.98 154.912 414.876 153.355 415.388 151.136C415.943 148.917 416.22 145.845 416.22 141.92C416.22 137.952 415.943 134.88 415.388 132.704C414.876 130.485 413.98 128.928 412.7 128.032C411.463 127.136 409.735 126.688 407.516 126.688ZM443.643 119.84V152.864C443.643 153.931 443.941 154.741 444.539 155.296C445.136 155.851 445.989 156.128 447.099 156.128H462.523L462.971 163.488C459.941 163.829 456.763 164.021 453.435 164.064C450.149 164.149 446.864 164.192 443.579 164.192C440.379 164.192 437.947 163.339 436.283 161.632C434.661 159.883 433.851 157.664 433.851 154.976V119.84H443.643ZM478.083 119.84V164H468.355V119.84H478.083ZM504.579 118.944C508.077 118.944 511.043 119.328 513.475 120.096C515.907 120.821 517.848 122.059 519.299 123.808C520.792 125.515 521.88 127.861 522.562 130.848C523.245 133.792 523.587 137.483 523.587 141.92C523.587 146.357 523.245 150.069 522.562 153.056C521.88 156 520.792 158.347 519.299 160.096C517.848 161.803 515.907 163.04 513.475 163.808C511.043 164.533 508.077 164.896 504.579 164.896C501.08 164.896 498.115 164.533 495.683 163.808C493.251 163.04 491.288 161.803 489.795 160.096C488.301 158.347 487.213 156 486.531 153.056C485.848 150.069 485.507 146.357 485.507 141.92C485.507 137.483 485.848 133.792 486.531 130.848C487.213 127.861 488.301 125.515 489.795 123.808C491.288 122.059 493.251 120.821 495.683 120.096C498.115 119.328 501.08 118.944 504.579 118.944ZM504.579 126.688C502.317 126.688 500.547 127.136 499.267 128.032C498.029 128.928 497.133 130.485 496.579 132.704C496.067 134.88 495.811 137.952 495.811 141.92C495.811 145.845 496.067 148.917 496.579 151.136C497.133 153.355 498.029 154.912 499.267 155.808C500.547 156.704 502.317 157.152 504.579 157.152C506.797 157.152 508.525 156.704 509.763 155.808C511.043 154.912 511.939 153.355 512.451 151.136C513.005 148.917 513.283 145.845 513.283 141.92C513.283 137.952 513.005 134.88 512.451 132.704C511.939 130.485 511.043 128.928 509.763 128.032C508.525 127.136 506.797 126.688 504.579 126.688Z" fill="white"/>
<path d="M301.133 83.224C302.349 83.224 303.373 83.368 304.205 83.656C305.053 83.944 305.733 84.416 306.245 85.072C306.757 85.712 307.125 86.584 307.349 87.688C307.589 88.776 307.709 90.12 307.709 91.72C307.709 93.32 307.589 94.672 307.349 95.776C307.125 96.864 306.757 97.736 306.245 98.392C305.733 99.032 305.053 99.496 304.205 99.784C303.373 100.072 302.349 100.216 301.133 100.216C299.981 100.216 298.909 100.192 297.917 100.144C296.941 100.112 296.013 100.064 295.133 100L296.141 98.08C296.813 98.112 297.557 98.144 298.373 98.176C299.205 98.192 300.125 98.2 301.133 98.2C302.157 98.2 302.965 98 303.557 97.6C304.149 97.2 304.565 96.536 304.805 95.608C305.061 94.664 305.189 93.368 305.189 91.72C305.189 90.072 305.061 88.784 304.805 87.856C304.565 86.912 304.149 86.24 303.557 85.84C302.965 85.424 302.157 85.216 301.133 85.216C300.141 85.216 299.253 85.224 298.469 85.24C297.685 85.256 296.917 85.272 296.165 85.288L295.133 83.44C296.013 83.376 296.941 83.328 297.917 83.296C298.909 83.248 299.981 83.224 301.133 83.224ZM297.533 83.44V100H295.133V83.44H297.533ZM314.261 83.416C315.061 83.416 315.877 83.416 316.709 83.416C317.541 83.416 318.357 83.432 319.157 83.464C319.973 83.48 320.749 83.512 321.485 83.56L321.389 85.408H314.789C314.309 85.408 313.957 85.528 313.733 85.768C313.509 86.008 313.397 86.392 313.397 86.92V96.52C313.397 97.048 313.509 97.44 313.733 97.696C313.957 97.936 314.309 98.056 314.789 98.056H321.389L321.485 99.88C320.749 99.928 319.973 99.96 319.157 99.976C318.357 99.992 317.541 100 316.709 100C315.877 100.016 315.061 100.024 314.261 100.024C313.269 100.024 312.477 99.76 311.885 99.232C311.309 98.688 311.013 97.968 310.997 97.072V86.368C311.013 85.456 311.309 84.736 311.885 84.208C312.477 83.68 313.269 83.416 314.261 83.416ZM311.429 90.352H320.453V92.2H311.429V90.352ZM337.048 83.44L332.104 99.328C332.04 99.504 331.928 99.664 331.768 99.808C331.608 99.936 331.424 100 331.216 100H328.84C328.616 100 328.424 99.936 328.264 99.808C328.104 99.664 327.992 99.504 327.928 99.328L323.008 83.44H325.504L329.248 96.352C329.328 96.656 329.408 96.96 329.488 97.264C329.568 97.552 329.64 97.848 329.704 98.152H330.352C330.416 97.848 330.488 97.544 330.568 97.24C330.648 96.936 330.736 96.632 330.832 96.328L334.552 83.44H337.048ZM342.55 83.416C343.35 83.416 344.166 83.416 344.998 83.416C345.83 83.416 346.646 83.432 347.446 83.464C348.262 83.48 349.038 83.512 349.774 83.56L349.678 85.408H343.078C342.598 85.408 342.246 85.528 342.022 85.768C341.798 86.008 341.686 86.392 341.686 86.92V96.52C341.686 97.048 341.798 97.44 342.022 97.696C342.246 97.936 342.598 98.056 343.078 98.056H349.678L349.774 99.88C349.038 99.928 348.262 99.96 347.446 99.976C346.646 99.992 345.83 100 344.998 100C344.166 100.016 343.35 100.024 342.55 100.024C341.558 100.024 340.766 99.76 340.174 99.232C339.598 98.688 339.302 97.968 339.286 97.072V86.368C339.302 85.456 339.598 84.736 340.174 84.208C340.766 83.68 341.558 83.416 342.55 83.416ZM339.718 90.352H348.742V92.2H339.718V90.352ZM355.282 83.44V96.496C355.282 97.008 355.41 97.392 355.666 97.648C355.922 97.888 356.314 98.008 356.842 98.008H362.77L362.89 99.856C361.818 99.936 360.73 99.984 359.626 100C358.522 100.016 357.418 100.024 356.314 100.024C355.098 100.024 354.226 99.728 353.698 99.136C353.17 98.528 352.906 97.768 352.906 96.856V83.44H355.282ZM371.072 83.128C372.288 83.128 373.32 83.272 374.168 83.56C375.032 83.848 375.72 84.32 376.232 84.976C376.744 85.632 377.112 86.512 377.336 87.616C377.576 88.72 377.696 90.088 377.696 91.72C377.696 93.336 377.576 94.704 377.336 95.824C377.112 96.928 376.744 97.808 376.232 98.464C375.72 99.12 375.032 99.592 374.168 99.88C373.32 100.168 372.288 100.312 371.072 100.312C369.856 100.312 368.816 100.168 367.952 99.88C367.104 99.592 366.416 99.12 365.888 98.464C365.376 97.808 365 96.928 364.76 95.824C364.52 94.704 364.4 93.336 364.4 91.72C364.4 90.088 364.52 88.72 364.76 87.616C365 86.512 365.376 85.632 365.888 84.976C366.416 84.32 367.104 83.848 367.952 83.56C368.816 83.272 369.856 83.128 371.072 83.128ZM371.072 85.216C370.032 85.216 369.208 85.416 368.6 85.816C367.992 86.216 367.56 86.888 367.304 87.832C367.064 88.76 366.944 90.056 366.944 91.72C366.944 93.368 367.064 94.664 367.304 95.608C367.56 96.552 367.992 97.224 368.6 97.624C369.208 98.024 370.032 98.224 371.072 98.224C372.112 98.224 372.928 98.024 373.52 97.624C374.128 97.224 374.56 96.552 374.816 95.608C375.072 94.664 375.2 93.368 375.2 91.72C375.2 90.056 375.072 88.76 374.816 87.832C374.56 86.888 374.128 86.216 373.52 85.816C372.928 85.416 372.112 85.216 371.072 85.216ZM386.957 83.224C388.317 83.224 389.397 83.376 390.197 83.68C390.997 83.984 391.565 84.512 391.901 85.264C392.253 86.016 392.429 87.08 392.429 88.456C392.429 89.816 392.261 90.88 391.925 91.648C391.589 92.4 391.037 92.928 390.269 93.232C389.517 93.52 388.509 93.664 387.245 93.664C386.557 93.664 385.893 93.648 385.253 93.616C384.629 93.584 384.053 93.536 383.525 93.472C382.997 93.408 382.541 93.344 382.157 93.28C381.789 93.2 381.533 93.128 381.389 93.064L381.461 91.672C382.325 91.672 383.221 91.672 384.149 91.672C385.077 91.672 386.005 91.672 386.933 91.672C387.701 91.656 388.309 91.56 388.757 91.384C389.205 91.208 389.525 90.888 389.717 90.424C389.909 89.96 390.005 89.304 390.005 88.456C390.005 87.592 389.909 86.928 389.717 86.464C389.525 86 389.205 85.68 388.757 85.504C388.309 85.312 387.701 85.216 386.933 85.216C385.589 85.216 384.429 85.224 383.453 85.24C382.477 85.256 381.821 85.28 381.485 85.312L381.149 83.44C381.757 83.376 382.333 83.328 382.877 83.296C383.421 83.264 384.013 83.248 384.653 83.248C385.293 83.232 386.061 83.224 386.957 83.224ZM383.549 83.44V100H381.149V83.44H383.549ZM398.542 83.416C399.342 83.416 400.158 83.416 400.99 83.416C401.822 83.416 402.638 83.432 403.438 83.464C404.254 83.48 405.03 83.512 405.766 83.56L405.67 85.408H399.07C398.59 85.408 398.238 85.528 398.014 85.768C397.79 86.008 397.678 86.392 397.678 86.92V96.52C397.678 97.048 397.79 97.44 398.014 97.696C398.238 97.936 398.59 98.056 399.07 98.056H405.67L405.766 99.88C405.03 99.928 404.254 99.96 403.438 99.976C402.638 99.992 401.822 100 400.99 100C400.158 100.016 399.342 100.024 398.542 100.024C397.55 100.024 396.758 99.76 396.166 99.232C395.59 98.688 395.294 97.968 395.278 97.072V86.368C395.294 85.456 395.59 84.736 396.166 84.208C396.758 83.68 397.55 83.416 398.542 83.416ZM395.71 90.352H404.734V92.2H395.71V90.352ZM414.778 83.224C416.09 83.224 417.146 83.368 417.946 83.656C418.762 83.928 419.354 84.416 419.722 85.12C420.09 85.808 420.274 86.776 420.274 88.024C420.274 88.904 420.17 89.64 419.962 90.232C419.754 90.824 419.426 91.288 418.978 91.624C418.546 91.96 417.954 92.176 417.202 92.272V92.392C417.474 92.456 417.746 92.584 418.018 92.776C418.29 92.968 418.546 93.232 418.786 93.568C419.026 93.888 419.202 94.296 419.314 94.792L420.874 100H418.33L416.89 94.84C416.698 94.232 416.434 93.8 416.098 93.544C415.762 93.288 415.322 93.16 414.778 93.16C413.77 93.16 412.906 93.16 412.186 93.16C411.466 93.144 410.858 93.128 410.362 93.112C409.882 93.096 409.49 93.088 409.186 93.088L409.258 91.168H414.73C415.514 91.152 416.13 91.064 416.578 90.904C417.026 90.728 417.346 90.424 417.538 89.992C417.746 89.56 417.85 88.952 417.85 88.168C417.85 87.384 417.746 86.784 417.538 86.368C417.346 85.936 417.026 85.64 416.578 85.48C416.13 85.304 415.514 85.216 414.73 85.216C413.386 85.216 412.226 85.224 411.25 85.24C410.274 85.256 409.618 85.264 409.282 85.264L408.946 83.44C409.554 83.376 410.13 83.328 410.674 83.296C411.218 83.264 411.81 83.248 412.45 83.248C413.106 83.232 413.882 83.224 414.778 83.224ZM411.322 83.44V100H408.946V83.44H411.322Z" fill="white"/>
</svg>
