<svg width="480" height="238" viewBox="0 0 480 238" fill="none" xmlns="http://www.w3.org/2000/svg">
<rect width="480" height="238" rx="4" fill="black"/>
<path d="M119.395 115.6C122.758 115.6 125.393 115.947 127.299 116.64C129.206 117.333 130.558 118.529 131.355 120.228C132.187 121.927 132.603 124.301 132.603 127.352C132.603 130.403 132.205 132.777 131.407 134.476C130.645 136.175 129.379 137.371 127.611 138.064C125.843 138.723 123.451 139.052 120.435 139.052C118.841 139.052 117.281 138.983 115.755 138.844C114.23 138.705 112.809 138.532 111.491 138.324C110.174 138.116 109.047 137.908 108.111 137.7C107.175 137.457 106.534 137.232 106.187 137.024L106.343 133.072C108.389 133.072 110.503 133.072 112.687 133.072C114.906 133.072 117.09 133.072 119.239 133.072C120.626 133.037 121.701 132.864 122.463 132.552C123.261 132.24 123.815 131.668 124.127 130.836C124.474 130.004 124.647 128.843 124.647 127.352C124.647 125.827 124.474 124.648 124.127 123.816C123.815 122.984 123.261 122.412 122.463 122.1C121.701 121.753 120.626 121.58 119.239 121.58C116.05 121.58 113.311 121.597 111.023 121.632C108.735 121.667 107.193 121.736 106.395 121.84L105.615 116.12C107.071 115.947 108.441 115.825 109.723 115.756C111.006 115.687 112.393 115.652 113.883 115.652C115.409 115.617 117.246 115.6 119.395 115.6ZM113.571 116.12V152H105.615V116.12H113.571ZM152.06 115.392C154.903 115.392 157.312 115.704 159.288 116.328C161.264 116.917 162.841 117.923 164.02 119.344C165.233 120.731 166.117 122.637 166.672 125.064C167.227 127.456 167.504 130.455 167.504 134.06C167.504 137.665 167.227 140.681 166.672 143.108C166.117 145.5 165.233 147.407 164.02 148.828C162.841 150.215 161.264 151.22 159.288 151.844C157.312 152.433 154.903 152.728 152.06 152.728C149.217 152.728 146.808 152.433 144.832 151.844C142.856 151.22 141.261 150.215 140.048 148.828C138.835 147.407 137.951 145.5 137.396 143.108C136.841 140.681 136.564 137.665 136.564 134.06C136.564 130.455 136.841 127.456 137.396 125.064C137.951 122.637 138.835 120.731 140.048 119.344C141.261 117.923 142.856 116.917 144.832 116.328C146.808 115.704 149.217 115.392 152.06 115.392ZM152.06 121.684C150.223 121.684 148.784 122.048 147.744 122.776C146.739 123.504 146.011 124.769 145.56 126.572C145.144 128.34 144.936 130.836 144.936 134.06C144.936 137.249 145.144 139.745 145.56 141.548C146.011 143.351 146.739 144.616 147.744 145.344C148.784 146.072 150.223 146.436 152.06 146.436C153.863 146.436 155.267 146.072 156.272 145.344C157.312 144.616 158.04 143.351 158.456 141.548C158.907 139.745 159.132 137.249 159.132 134.06C159.132 130.836 158.907 128.34 158.456 126.572C158.04 124.769 157.312 123.504 156.272 122.776C155.267 122.048 153.863 121.684 152.06 121.684ZM187.393 115.6C190.547 115.6 193.095 115.929 195.037 116.588C197.013 117.212 198.451 118.304 199.353 119.864C200.289 121.389 200.757 123.521 200.757 126.26C200.757 127.924 200.531 129.397 200.081 130.68C199.665 131.928 198.954 132.933 197.949 133.696C196.943 134.459 195.574 134.944 193.841 135.152V135.412C194.465 135.516 195.106 135.759 195.765 136.14C196.458 136.521 197.099 137.093 197.689 137.856C198.278 138.584 198.711 139.572 198.989 140.82L202.109 152H193.737L190.981 141.08C190.669 139.901 190.201 139.087 189.577 138.636C188.987 138.185 188.155 137.96 187.081 137.96C184.723 137.96 182.73 137.96 181.101 137.96C179.506 137.925 178.154 137.891 177.045 137.856C175.97 137.821 174.999 137.787 174.133 137.752L174.289 131.98H187.237C188.623 131.98 189.715 131.841 190.513 131.564C191.345 131.252 191.917 130.715 192.229 129.952C192.575 129.189 192.749 128.132 192.749 126.78C192.749 125.393 192.575 124.336 192.229 123.608C191.917 122.845 191.345 122.325 190.513 122.048C189.715 121.736 188.623 121.58 187.237 121.58C183.978 121.58 181.222 121.597 178.969 121.632C176.715 121.667 175.173 121.719 174.341 121.788L173.561 116.12C175.017 115.947 176.386 115.825 177.669 115.756C178.951 115.687 180.355 115.652 181.881 115.652C183.406 115.617 185.243 115.6 187.393 115.6ZM181.413 116.12V152H173.561V116.12H181.413ZM222.838 116.12V152H214.882V116.12H222.838ZM233.654 116.12V122.36H204.118V116.12H233.654ZM245.748 115.964C247.585 115.964 249.457 115.981 251.364 116.016C253.305 116.016 255.194 116.068 257.032 116.172C258.904 116.241 260.637 116.363 262.232 116.536L261.816 122.256H248.816C247.88 122.256 247.169 122.481 246.684 122.932C246.198 123.383 245.956 124.041 245.956 124.908V152H238V123.296C238 121.077 238.71 119.309 240.132 117.992C241.553 116.64 243.425 115.964 245.748 115.964ZM238.936 131.148H259.892V136.764H238.936V131.148ZM281.197 115.392C284.039 115.392 286.449 115.704 288.425 116.328C290.401 116.917 291.978 117.923 293.157 119.344C294.37 120.731 295.254 122.637 295.809 125.064C296.363 127.456 296.641 130.455 296.641 134.06C296.641 137.665 296.363 140.681 295.809 143.108C295.254 145.5 294.37 147.407 293.157 148.828C291.978 150.215 290.401 151.22 288.425 151.844C286.449 152.433 284.039 152.728 281.197 152.728C278.354 152.728 275.945 152.433 273.969 151.844C271.993 151.22 270.398 150.215 269.185 148.828C267.971 147.407 267.087 145.5 266.533 143.108C265.978 140.681 265.701 137.665 265.701 134.06C265.701 130.455 265.978 127.456 266.533 125.064C267.087 122.637 267.971 120.731 269.185 119.344C270.398 117.923 271.993 116.917 273.969 116.328C275.945 115.704 278.354 115.392 281.197 115.392ZM281.197 121.684C279.359 121.684 277.921 122.048 276.881 122.776C275.875 123.504 275.147 124.769 274.697 126.572C274.281 128.34 274.073 130.836 274.073 134.06C274.073 137.249 274.281 139.745 274.697 141.548C275.147 143.351 275.875 144.616 276.881 145.344C277.921 146.072 279.359 146.436 281.197 146.436C282.999 146.436 284.403 146.072 285.409 145.344C286.449 144.616 287.177 143.351 287.593 141.548C288.043 139.745 288.269 137.249 288.269 134.06C288.269 130.836 288.043 128.34 287.593 126.572C287.177 124.769 286.449 123.504 285.409 122.776C284.403 122.048 282.999 121.684 281.197 121.684ZM310.549 116.12V142.952C310.549 143.819 310.792 144.477 311.277 144.928C311.763 145.379 312.456 145.604 313.357 145.604H325.889L326.253 151.584C323.792 151.861 321.209 152.017 318.505 152.052C315.836 152.121 313.167 152.156 310.497 152.156C307.897 152.156 305.921 151.463 304.569 150.076C303.252 148.655 302.593 146.852 302.593 144.668V116.12H310.549ZM338.532 116.12V152H330.628V116.12H338.532ZM360.06 115.392C362.903 115.392 365.312 115.704 367.288 116.328C369.264 116.917 370.841 117.923 372.02 119.344C373.233 120.731 374.117 122.637 374.672 125.064C375.227 127.456 375.504 130.455 375.504 134.06C375.504 137.665 375.227 140.681 374.672 143.108C374.117 145.5 373.233 147.407 372.02 148.828C370.841 150.215 369.264 151.22 367.288 151.844C365.312 152.433 362.903 152.728 360.06 152.728C357.217 152.728 354.808 152.433 352.832 151.844C350.856 151.22 349.261 150.215 348.048 148.828C346.835 147.407 345.951 145.5 345.396 143.108C344.841 140.681 344.564 137.665 344.564 134.06C344.564 130.455 344.841 127.456 345.396 125.064C345.951 122.637 346.835 120.731 348.048 119.344C349.261 117.923 350.856 116.917 352.832 116.328C354.808 115.704 357.217 115.392 360.06 115.392ZM360.06 121.684C358.223 121.684 356.784 122.048 355.744 122.776C354.739 123.504 354.011 124.769 353.56 126.572C353.144 128.34 352.936 130.836 352.936 134.06C352.936 137.249 353.144 139.745 353.56 141.548C354.011 143.351 354.739 144.616 355.744 145.344C356.784 146.072 358.223 146.436 360.06 146.436C361.863 146.436 363.267 146.072 364.272 145.344C365.312 144.616 366.04 143.351 366.456 141.548C366.907 139.745 367.132 137.249 367.132 134.06C367.132 130.836 366.907 128.34 366.456 126.572C366.04 124.769 365.312 123.504 364.272 122.776C363.267 122.048 361.863 121.684 360.06 121.684Z" fill="white"/>
<path d="M184.133 83.224C185.349 83.224 186.373 83.368 187.205 83.656C188.053 83.944 188.733 84.416 189.245 85.072C189.757 85.712 190.125 86.584 190.349 87.688C190.589 88.776 190.709 90.12 190.709 91.72C190.709 93.32 190.589 94.672 190.349 95.776C190.125 96.864 189.757 97.736 189.245 98.392C188.733 99.032 188.053 99.496 187.205 99.784C186.373 100.072 185.349 100.216 184.133 100.216C182.981 100.216 181.909 100.192 180.917 100.144C179.941 100.112 179.013 100.064 178.133 100L179.141 98.08C179.813 98.112 180.557 98.144 181.373 98.176C182.205 98.192 183.125 98.2 184.133 98.2C185.157 98.2 185.965 98 186.557 97.6C187.149 97.2 187.565 96.536 187.805 95.608C188.061 94.664 188.189 93.368 188.189 91.72C188.189 90.072 188.061 88.784 187.805 87.856C187.565 86.912 187.149 86.24 186.557 85.84C185.965 85.424 185.157 85.216 184.133 85.216C183.141 85.216 182.253 85.224 181.469 85.24C180.685 85.256 179.917 85.272 179.165 85.288L178.133 83.44C179.013 83.376 179.941 83.328 180.917 83.296C181.909 83.248 182.981 83.224 184.133 83.224ZM180.533 83.44V100H178.133V83.44H180.533ZM197.261 83.416C198.061 83.416 198.877 83.416 199.709 83.416C200.541 83.416 201.357 83.432 202.157 83.464C202.973 83.48 203.749 83.512 204.485 83.56L204.389 85.408H197.789C197.309 85.408 196.957 85.528 196.733 85.768C196.509 86.008 196.397 86.392 196.397 86.92V96.52C196.397 97.048 196.509 97.44 196.733 97.696C196.957 97.936 197.309 98.056 197.789 98.056H204.389L204.485 99.88C203.749 99.928 202.973 99.96 202.157 99.976C201.357 99.992 200.541 100 199.709 100C198.877 100.016 198.061 100.024 197.261 100.024C196.269 100.024 195.477 99.76 194.885 99.232C194.309 98.688 194.013 97.968 193.997 97.072V86.368C194.013 85.456 194.309 84.736 194.885 84.208C195.477 83.68 196.269 83.416 197.261 83.416ZM194.429 90.352H203.453V92.2H194.429V90.352ZM220.048 83.44L215.104 99.328C215.04 99.504 214.928 99.664 214.768 99.808C214.608 99.936 214.424 100 214.216 100H211.84C211.616 100 211.424 99.936 211.264 99.808C211.104 99.664 210.992 99.504 210.928 99.328L206.008 83.44H208.504L212.248 96.352C212.328 96.656 212.408 96.96 212.488 97.264C212.568 97.552 212.64 97.848 212.704 98.152H213.352C213.416 97.848 213.488 97.544 213.568 97.24C213.648 96.936 213.736 96.632 213.832 96.328L217.552 83.44H220.048ZM225.55 83.416C226.35 83.416 227.166 83.416 227.998 83.416C228.83 83.416 229.646 83.432 230.446 83.464C231.262 83.48 232.038 83.512 232.774 83.56L232.678 85.408H226.078C225.598 85.408 225.246 85.528 225.022 85.768C224.798 86.008 224.686 86.392 224.686 86.92V96.52C224.686 97.048 224.798 97.44 225.022 97.696C225.246 97.936 225.598 98.056 226.078 98.056H232.678L232.774 99.88C232.038 99.928 231.262 99.96 230.446 99.976C229.646 99.992 228.83 100 227.998 100C227.166 100.016 226.35 100.024 225.55 100.024C224.558 100.024 223.766 99.76 223.174 99.232C222.598 98.688 222.302 97.968 222.286 97.072V86.368C222.302 85.456 222.598 84.736 223.174 84.208C223.766 83.68 224.558 83.416 225.55 83.416ZM222.718 90.352H231.742V92.2H222.718V90.352ZM238.282 83.44V96.496C238.282 97.008 238.41 97.392 238.666 97.648C238.922 97.888 239.314 98.008 239.842 98.008H245.77L245.89 99.856C244.818 99.936 243.73 99.984 242.626 100C241.522 100.016 240.418 100.024 239.314 100.024C238.098 100.024 237.226 99.728 236.698 99.136C236.17 98.528 235.906 97.768 235.906 96.856V83.44H238.282ZM254.072 83.128C255.288 83.128 256.32 83.272 257.168 83.56C258.032 83.848 258.72 84.32 259.232 84.976C259.744 85.632 260.112 86.512 260.336 87.616C260.576 88.72 260.696 90.088 260.696 91.72C260.696 93.336 260.576 94.704 260.336 95.824C260.112 96.928 259.744 97.808 259.232 98.464C258.72 99.12 258.032 99.592 257.168 99.88C256.32 100.168 255.288 100.312 254.072 100.312C252.856 100.312 251.816 100.168 250.952 99.88C250.104 99.592 249.416 99.12 248.888 98.464C248.376 97.808 248 96.928 247.76 95.824C247.52 94.704 247.4 93.336 247.4 91.72C247.4 90.088 247.52 88.72 247.76 87.616C248 86.512 248.376 85.632 248.888 84.976C249.416 84.32 250.104 83.848 250.952 83.56C251.816 83.272 252.856 83.128 254.072 83.128ZM254.072 85.216C253.032 85.216 252.208 85.416 251.6 85.816C250.992 86.216 250.56 86.888 250.304 87.832C250.064 88.76 249.944 90.056 249.944 91.72C249.944 93.368 250.064 94.664 250.304 95.608C250.56 96.552 250.992 97.224 251.6 97.624C252.208 98.024 253.032 98.224 254.072 98.224C255.112 98.224 255.928 98.024 256.52 97.624C257.128 97.224 257.56 96.552 257.816 95.608C258.072 94.664 258.2 93.368 258.2 91.72C258.2 90.056 258.072 88.76 257.816 87.832C257.56 86.888 257.128 86.216 256.52 85.816C255.928 85.416 255.112 85.216 254.072 85.216ZM269.957 83.224C271.317 83.224 272.397 83.376 273.197 83.68C273.997 83.984 274.565 84.512 274.901 85.264C275.253 86.016 275.429 87.08 275.429 88.456C275.429 89.816 275.261 90.88 274.925 91.648C274.589 92.4 274.037 92.928 273.269 93.232C272.517 93.52 271.509 93.664 270.245 93.664C269.557 93.664 268.893 93.648 268.253 93.616C267.629 93.584 267.053 93.536 266.525 93.472C265.997 93.408 265.541 93.344 265.157 93.28C264.789 93.2 264.533 93.128 264.389 93.064L264.461 91.672C265.325 91.672 266.221 91.672 267.149 91.672C268.077 91.672 269.005 91.672 269.933 91.672C270.701 91.656 271.309 91.56 271.757 91.384C272.205 91.208 272.525 90.888 272.717 90.424C272.909 89.96 273.005 89.304 273.005 88.456C273.005 87.592 272.909 86.928 272.717 86.464C272.525 86 272.205 85.68 271.757 85.504C271.309 85.312 270.701 85.216 269.933 85.216C268.589 85.216 267.429 85.224 266.453 85.24C265.477 85.256 264.821 85.28 264.485 85.312L264.149 83.44C264.757 83.376 265.333 83.328 265.877 83.296C266.421 83.264 267.013 83.248 267.653 83.248C268.293 83.232 269.061 83.224 269.957 83.224ZM266.549 83.44V100H264.149V83.44H266.549ZM281.542 83.416C282.342 83.416 283.158 83.416 283.99 83.416C284.822 83.416 285.638 83.432 286.438 83.464C287.254 83.48 288.03 83.512 288.766 83.56L288.67 85.408H282.07C281.59 85.408 281.238 85.528 281.014 85.768C280.79 86.008 280.678 86.392 280.678 86.92V96.52C280.678 97.048 280.79 97.44 281.014 97.696C281.238 97.936 281.59 98.056 282.07 98.056H288.67L288.766 99.88C288.03 99.928 287.254 99.96 286.438 99.976C285.638 99.992 284.822 100 283.99 100C283.158 100.016 282.342 100.024 281.542 100.024C280.55 100.024 279.758 99.76 279.166 99.232C278.59 98.688 278.294 97.968 278.278 97.072V86.368C278.294 85.456 278.59 84.736 279.166 84.208C279.758 83.68 280.55 83.416 281.542 83.416ZM278.71 90.352H287.734V92.2H278.71V90.352ZM297.778 83.224C299.09 83.224 300.146 83.368 300.946 83.656C301.762 83.928 302.354 84.416 302.722 85.12C303.09 85.808 303.274 86.776 303.274 88.024C303.274 88.904 303.17 89.64 302.962 90.232C302.754 90.824 302.426 91.288 301.978 91.624C301.546 91.96 300.954 92.176 300.202 92.272V92.392C300.474 92.456 300.746 92.584 301.018 92.776C301.29 92.968 301.546 93.232 301.786 93.568C302.026 93.888 302.202 94.296 302.314 94.792L303.874 100H301.33L299.89 94.84C299.698 94.232 299.434 93.8 299.098 93.544C298.762 93.288 298.322 93.16 297.778 93.16C296.77 93.16 295.906 93.16 295.186 93.16C294.466 93.144 293.858 93.128 293.362 93.112C292.882 93.096 292.49 93.088 292.186 93.088L292.258 91.168H297.73C298.514 91.152 299.13 91.064 299.578 90.904C300.026 90.728 300.346 90.424 300.538 89.992C300.746 89.56 300.85 88.952 300.85 88.168C300.85 87.384 300.746 86.784 300.538 86.368C300.346 85.936 300.026 85.64 299.578 85.48C299.13 85.304 298.514 85.216 297.73 85.216C296.386 85.216 295.226 85.224 294.25 85.24C293.274 85.256 292.618 85.264 292.282 85.264L291.946 83.44C292.554 83.376 293.13 83.328 293.674 83.296C294.218 83.264 294.81 83.248 295.45 83.248C296.106 83.232 296.882 83.224 297.778 83.224ZM294.322 83.44V100H291.946V83.44H294.322Z" fill="white"/>
</svg>
