<svg width="360" height="139" viewBox="0 0 360 139" fill="none" xmlns="http://www.w3.org/2000/svg">
<rect width="360" height="139" rx="4" fill="black"/>
<path d="M124.016 62.2C125.568 62.2 126.784 62.36 127.664 62.68C128.544 63 129.168 63.552 129.536 64.336C129.92 65.12 130.112 66.216 130.112 67.624C130.112 69.032 129.928 70.128 129.56 70.912C129.208 71.696 128.624 72.248 127.808 72.568C126.992 72.872 125.888 73.024 124.496 73.024C123.76 73.024 123.04 72.992 122.336 72.928C121.632 72.864 120.976 72.784 120.368 72.688C119.76 72.592 119.24 72.496 118.808 72.4C118.376 72.288 118.08 72.184 117.92 72.088L117.992 70.264C118.936 70.264 119.912 70.264 120.92 70.264C121.944 70.264 122.952 70.264 123.944 70.264C124.584 70.248 125.08 70.168 125.432 70.024C125.8 69.88 126.056 69.616 126.2 69.232C126.36 68.848 126.44 68.312 126.44 67.624C126.44 66.92 126.36 66.376 126.2 65.992C126.056 65.608 125.8 65.344 125.432 65.2C125.08 65.04 124.584 64.96 123.944 64.96C122.472 64.96 121.208 64.968 120.152 64.984C119.096 65 118.384 65.032 118.016 65.08L117.656 62.44C118.328 62.36 118.96 62.304 119.552 62.272C120.144 62.24 120.784 62.224 121.472 62.224C122.176 62.208 123.024 62.2 124.016 62.2ZM121.328 62.44V79H117.656V62.44H121.328ZM139.092 62.104C140.404 62.104 141.516 62.248 142.428 62.536C143.34 62.808 144.068 63.272 144.612 63.928C145.172 64.568 145.58 65.448 145.836 66.568C146.092 67.672 146.22 69.056 146.22 70.72C146.22 72.384 146.092 73.776 145.836 74.896C145.58 76 145.172 76.88 144.612 77.536C144.068 78.176 143.34 78.64 142.428 78.928C141.516 79.2 140.404 79.336 139.092 79.336C137.78 79.336 136.668 79.2 135.756 78.928C134.844 78.64 134.108 78.176 133.548 77.536C132.988 76.88 132.58 76 132.324 74.896C132.068 73.776 131.94 72.384 131.94 70.72C131.94 69.056 132.068 67.672 132.324 66.568C132.58 65.448 132.988 64.568 133.548 63.928C134.108 63.272 134.844 62.808 135.756 62.536C136.668 62.248 137.78 62.104 139.092 62.104ZM139.092 65.008C138.244 65.008 137.58 65.176 137.1 65.512C136.636 65.848 136.3 66.432 136.092 67.264C135.9 68.08 135.804 69.232 135.804 70.72C135.804 72.192 135.9 73.344 136.092 74.176C136.3 75.008 136.636 75.592 137.1 75.928C137.58 76.264 138.244 76.432 139.092 76.432C139.924 76.432 140.572 76.264 141.036 75.928C141.516 75.592 141.852 75.008 142.044 74.176C142.252 73.344 142.356 72.192 142.356 70.72C142.356 69.232 142.252 68.08 142.044 67.264C141.852 66.432 141.516 65.848 141.036 65.512C140.572 65.176 139.924 65.008 139.092 65.008ZM155.399 62.2C156.855 62.2 158.031 62.352 158.927 62.656C159.839 62.944 160.503 63.448 160.919 64.168C161.351 64.872 161.567 65.856 161.567 67.12C161.567 67.888 161.463 68.568 161.255 69.16C161.063 69.736 160.735 70.2 160.271 70.552C159.807 70.904 159.175 71.128 158.375 71.224V71.344C158.663 71.392 158.959 71.504 159.263 71.68C159.583 71.856 159.879 72.12 160.151 72.472C160.423 72.808 160.623 73.264 160.751 73.84L162.191 79H158.327L157.055 73.96C156.911 73.416 156.695 73.04 156.407 72.832C156.135 72.624 155.751 72.52 155.255 72.52C154.167 72.52 153.247 72.52 152.495 72.52C151.759 72.504 151.135 72.488 150.623 72.472C150.127 72.456 149.679 72.44 149.279 72.424L149.351 69.76H155.327C155.967 69.76 156.471 69.696 156.839 69.568C157.223 69.424 157.487 69.176 157.631 68.824C157.791 68.472 157.871 67.984 157.871 67.36C157.871 66.72 157.791 66.232 157.631 65.896C157.487 65.544 157.223 65.304 156.839 65.176C156.471 65.032 155.967 64.96 155.327 64.96C153.823 64.96 152.551 64.968 151.511 64.984C150.471 65 149.759 65.024 149.375 65.056L149.015 62.44C149.687 62.36 150.319 62.304 150.911 62.272C151.503 62.24 152.151 62.224 152.855 62.224C153.559 62.208 154.407 62.2 155.399 62.2ZM152.639 62.44V79H149.015V62.44H152.639ZM171.759 62.44V79H168.087V62.44H171.759ZM176.751 62.44V65.32H163.119V62.44H176.751ZM182.332 62.368C183.18 62.368 184.044 62.376 184.924 62.392C185.82 62.392 186.692 62.416 187.54 62.464C188.404 62.496 189.204 62.552 189.94 62.632L189.748 65.272H183.748C183.316 65.272 182.988 65.376 182.764 65.584C182.54 65.792 182.428 66.096 182.428 66.496V79H178.756V65.752C178.756 64.728 179.084 63.912 179.74 63.304C180.396 62.68 181.26 62.368 182.332 62.368ZM179.188 69.376H188.86V71.968H179.188V69.376ZM198.694 62.104C200.006 62.104 201.118 62.248 202.03 62.536C202.942 62.808 203.67 63.272 204.214 63.928C204.774 64.568 205.182 65.448 205.438 66.568C205.694 67.672 205.822 69.056 205.822 70.72C205.822 72.384 205.694 73.776 205.438 74.896C205.182 76 204.774 76.88 204.214 77.536C203.67 78.176 202.942 78.64 202.03 78.928C201.118 79.2 200.006 79.336 198.694 79.336C197.382 79.336 196.27 79.2 195.358 78.928C194.446 78.64 193.71 78.176 193.15 77.536C192.59 76.88 192.182 76 191.926 74.896C191.67 73.776 191.542 72.384 191.542 70.72C191.542 69.056 191.67 67.672 191.926 66.568C192.182 65.448 192.59 64.568 193.15 63.928C193.71 63.272 194.446 62.808 195.358 62.536C196.27 62.248 197.382 62.104 198.694 62.104ZM198.694 65.008C197.846 65.008 197.182 65.176 196.702 65.512C196.238 65.848 195.902 66.432 195.694 67.264C195.502 68.08 195.406 69.232 195.406 70.72C195.406 72.192 195.502 73.344 195.694 74.176C195.902 75.008 196.238 75.592 196.702 75.928C197.182 76.264 197.846 76.432 198.694 76.432C199.526 76.432 200.174 76.264 200.638 75.928C201.118 75.592 201.454 75.008 201.646 74.176C201.854 73.344 201.958 72.192 201.958 70.72C201.958 69.232 201.854 68.08 201.646 67.264C201.454 66.432 201.118 65.848 200.638 65.512C200.174 65.176 199.526 65.008 198.694 65.008ZM212.241 62.44V74.824C212.241 75.224 212.353 75.528 212.577 75.736C212.801 75.944 213.121 76.048 213.537 76.048H219.321L219.489 78.808C218.353 78.936 217.161 79.008 215.913 79.024C214.681 79.056 213.449 79.072 212.217 79.072C211.017 79.072 210.105 78.752 209.481 78.112C208.873 77.456 208.569 76.624 208.569 75.616V62.44H212.241ZM225.156 62.44V79H221.508V62.44H225.156ZM235.092 62.104C236.404 62.104 237.516 62.248 238.428 62.536C239.34 62.808 240.068 63.272 240.612 63.928C241.172 64.568 241.58 65.448 241.836 66.568C242.092 67.672 242.22 69.056 242.22 70.72C242.22 72.384 242.092 73.776 241.836 74.896C241.58 76 241.172 76.88 240.612 77.536C240.068 78.176 239.34 78.64 238.428 78.928C237.516 79.2 236.404 79.336 235.092 79.336C233.78 79.336 232.668 79.2 231.756 78.928C230.844 78.64 230.108 78.176 229.548 77.536C228.988 76.88 228.58 76 228.324 74.896C228.068 73.776 227.94 72.384 227.94 70.72C227.94 69.056 228.068 67.672 228.324 66.568C228.58 65.448 228.988 64.568 229.548 63.928C230.108 63.272 230.844 62.808 231.756 62.536C232.668 62.248 233.78 62.104 235.092 62.104ZM235.092 65.008C234.244 65.008 233.58 65.176 233.1 65.512C232.636 65.848 232.3 66.432 232.092 67.264C231.9 68.08 231.804 69.232 231.804 70.72C231.804 72.192 231.9 73.344 232.092 74.176C232.3 75.008 232.636 75.592 233.1 75.928C233.58 76.264 234.244 76.432 235.092 76.432C235.924 76.432 236.572 76.264 237.036 75.928C237.516 75.592 237.852 75.008 238.044 74.176C238.252 73.344 238.356 72.192 238.356 70.72C238.356 69.232 238.252 68.08 238.044 67.264C237.852 66.432 237.516 65.848 237.036 65.512C236.572 65.176 235.924 65.008 235.092 65.008Z" fill="white"/>
<path d="M151.317 46.612C151.925 46.612 152.437 46.684 152.853 46.828C153.277 46.972 153.617 47.208 153.873 47.536C154.129 47.856 154.313 48.292 154.425 48.844C154.545 49.388 154.605 50.06 154.605 50.86C154.605 51.66 154.545 52.336 154.425 52.888C154.313 53.432 154.129 53.868 153.873 54.196C153.617 54.516 153.277 54.748 152.853 54.892C152.437 55.036 151.925 55.108 151.317 55.108C150.741 55.108 150.205 55.096 149.709 55.072C149.221 55.056 148.757 55.032 148.317 55L148.821 54.04C149.157 54.056 149.529 54.072 149.937 54.088C150.353 54.096 150.813 54.1 151.317 54.1C151.829 54.1 152.233 54 152.529 53.8C152.825 53.6 153.033 53.268 153.153 52.804C153.281 52.332 153.345 51.684 153.345 50.86C153.345 50.036 153.281 49.392 153.153 48.928C153.033 48.456 152.825 48.12 152.529 47.92C152.233 47.712 151.829 47.608 151.317 47.608C150.821 47.608 150.377 47.612 149.985 47.62C149.593 47.628 149.209 47.636 148.833 47.644L148.317 46.72C148.757 46.688 149.221 46.664 149.709 46.648C150.205 46.624 150.741 46.612 151.317 46.612ZM149.517 46.72V55H148.317V46.72H149.517ZM157.881 46.708C158.281 46.708 158.689 46.708 159.105 46.708C159.521 46.708 159.929 46.716 160.329 46.732C160.737 46.74 161.125 46.756 161.493 46.78L161.445 47.704H158.145C157.905 47.704 157.729 47.764 157.617 47.884C157.505 48.004 157.449 48.196 157.449 48.46V53.26C157.449 53.524 157.505 53.72 157.617 53.848C157.729 53.968 157.905 54.028 158.145 54.028H161.445L161.493 54.94C161.125 54.964 160.737 54.98 160.329 54.988C159.929 54.996 159.521 55 159.105 55C158.689 55.008 158.281 55.012 157.881 55.012C157.385 55.012 156.989 54.88 156.693 54.616C156.405 54.344 156.257 53.984 156.249 53.536V48.184C156.257 47.728 156.405 47.368 156.693 47.104C156.989 46.84 157.385 46.708 157.881 46.708ZM156.465 50.176H160.977V51.1H156.465V50.176ZM169.274 46.72L166.802 54.664C166.77 54.752 166.714 54.832 166.634 54.904C166.554 54.968 166.462 55 166.358 55H165.17C165.058 55 164.962 54.968 164.882 54.904C164.802 54.832 164.746 54.752 164.714 54.664L162.254 46.72H163.502L165.374 53.176C165.414 53.328 165.454 53.48 165.494 53.632C165.534 53.776 165.57 53.924 165.602 54.076H165.926C165.958 53.924 165.994 53.772 166.034 53.62C166.074 53.468 166.118 53.316 166.166 53.164L168.026 46.72H169.274ZM172.025 46.708C172.425 46.708 172.833 46.708 173.249 46.708C173.665 46.708 174.073 46.716 174.473 46.732C174.881 46.74 175.269 46.756 175.637 46.78L175.589 47.704H172.289C172.049 47.704 171.873 47.764 171.761 47.884C171.649 48.004 171.593 48.196 171.593 48.46V53.26C171.593 53.524 171.649 53.72 171.761 53.848C171.873 53.968 172.049 54.028 172.289 54.028H175.589L175.637 54.94C175.269 54.964 174.881 54.98 174.473 54.988C174.073 54.996 173.665 55 173.249 55C172.833 55.008 172.425 55.012 172.025 55.012C171.529 55.012 171.133 54.88 170.837 54.616C170.549 54.344 170.401 53.984 170.393 53.536V48.184C170.401 47.728 170.549 47.368 170.837 47.104C171.133 46.84 171.529 46.708 172.025 46.708ZM170.609 50.176H175.121V51.1H170.609V50.176ZM178.391 46.72V53.248C178.391 53.504 178.455 53.696 178.583 53.824C178.711 53.944 178.907 54.004 179.171 54.004H182.135L182.195 54.928C181.659 54.968 181.115 54.992 180.563 55C180.011 55.008 179.459 55.012 178.907 55.012C178.299 55.012 177.863 54.864 177.599 54.568C177.335 54.264 177.203 53.884 177.203 53.428V46.72H178.391ZM186.286 46.564C186.894 46.564 187.41 46.636 187.834 46.78C188.266 46.924 188.61 47.16 188.866 47.488C189.122 47.816 189.306 48.256 189.418 48.808C189.538 49.36 189.598 50.044 189.598 50.86C189.598 51.668 189.538 52.352 189.418 52.912C189.306 53.464 189.122 53.904 188.866 54.232C188.61 54.56 188.266 54.796 187.834 54.94C187.41 55.084 186.894 55.156 186.286 55.156C185.678 55.156 185.158 55.084 184.726 54.94C184.302 54.796 183.958 54.56 183.694 54.232C183.438 53.904 183.25 53.464 183.13 52.912C183.01 52.352 182.95 51.668 182.95 50.86C182.95 50.044 183.01 49.36 183.13 48.808C183.25 48.256 183.438 47.816 183.694 47.488C183.958 47.16 184.302 46.924 184.726 46.78C185.158 46.636 185.678 46.564 186.286 46.564ZM186.286 47.608C185.766 47.608 185.354 47.708 185.05 47.908C184.746 48.108 184.53 48.444 184.402 48.916C184.282 49.38 184.222 50.028 184.222 50.86C184.222 51.684 184.282 52.332 184.402 52.804C184.53 53.276 184.746 53.612 185.05 53.812C185.354 54.012 185.766 54.112 186.286 54.112C186.806 54.112 187.214 54.012 187.51 53.812C187.814 53.612 188.03 53.276 188.158 52.804C188.286 52.332 188.35 51.684 188.35 50.86C188.35 50.028 188.286 49.38 188.158 48.916C188.03 48.444 187.814 48.108 187.51 47.908C187.214 47.708 186.806 47.608 186.286 47.608ZM194.228 46.612C194.908 46.612 195.448 46.688 195.848 46.84C196.248 46.992 196.532 47.256 196.7 47.632C196.876 48.008 196.964 48.54 196.964 49.228C196.964 49.908 196.88 50.44 196.712 50.824C196.544 51.2 196.268 51.464 195.884 51.616C195.508 51.76 195.004 51.832 194.372 51.832C194.028 51.832 193.696 51.824 193.376 51.808C193.064 51.792 192.776 51.768 192.512 51.736C192.248 51.704 192.02 51.672 191.828 51.64C191.644 51.6 191.516 51.564 191.444 51.532L191.48 50.836C191.912 50.836 192.36 50.836 192.824 50.836C193.288 50.836 193.752 50.836 194.216 50.836C194.6 50.828 194.904 50.78 195.128 50.692C195.352 50.604 195.512 50.444 195.608 50.212C195.704 49.98 195.752 49.652 195.752 49.228C195.752 48.796 195.704 48.464 195.608 48.232C195.512 48 195.352 47.84 195.128 47.752C194.904 47.656 194.6 47.608 194.216 47.608C193.544 47.608 192.964 47.612 192.476 47.62C191.988 47.628 191.66 47.64 191.492 47.656L191.324 46.72C191.628 46.688 191.916 46.664 192.188 46.648C192.46 46.632 192.756 46.624 193.076 46.624C193.396 46.616 193.78 46.612 194.228 46.612ZM192.524 46.72V55H191.324V46.72H192.524ZM200.021 46.708C200.421 46.708 200.829 46.708 201.245 46.708C201.661 46.708 202.069 46.716 202.469 46.732C202.877 46.74 203.265 46.756 203.633 46.78L203.585 47.704H200.285C200.045 47.704 199.869 47.764 199.757 47.884C199.645 48.004 199.589 48.196 199.589 48.46V53.26C199.589 53.524 199.645 53.72 199.757 53.848C199.869 53.968 200.045 54.028 200.285 54.028H203.585L203.633 54.94C203.265 54.964 202.877 54.98 202.469 54.988C202.069 54.996 201.661 55 201.245 55C200.829 55.008 200.421 55.012 200.021 55.012C199.525 55.012 199.129 54.88 198.833 54.616C198.545 54.344 198.397 53.984 198.389 53.536V48.184C198.397 47.728 198.545 47.368 198.833 47.104C199.129 46.84 199.525 46.708 200.021 46.708ZM198.605 50.176H203.117V51.1H198.605V50.176ZM208.139 46.612C208.795 46.612 209.323 46.684 209.723 46.828C210.131 46.964 210.427 47.208 210.611 47.56C210.795 47.904 210.887 48.388 210.887 49.012C210.887 49.452 210.835 49.82 210.731 50.116C210.627 50.412 210.463 50.644 210.239 50.812C210.023 50.98 209.727 51.088 209.351 51.136V51.196C209.487 51.228 209.623 51.292 209.759 51.388C209.895 51.484 210.023 51.616 210.143 51.784C210.263 51.944 210.351 52.148 210.407 52.396L211.187 55H209.915L209.195 52.42C209.099 52.116 208.967 51.9 208.799 51.772C208.631 51.644 208.411 51.58 208.139 51.58C207.635 51.58 207.203 51.58 206.843 51.58C206.483 51.572 206.179 51.564 205.931 51.556C205.691 51.548 205.495 51.544 205.343 51.544L205.379 50.584H208.115C208.507 50.576 208.815 50.532 209.039 50.452C209.263 50.364 209.423 50.212 209.519 49.996C209.623 49.78 209.675 49.476 209.675 49.084C209.675 48.692 209.623 48.392 209.519 48.184C209.423 47.968 209.263 47.82 209.039 47.74C208.815 47.652 208.507 47.608 208.115 47.608C207.443 47.608 206.863 47.612 206.375 47.62C205.887 47.628 205.559 47.632 205.391 47.632L205.223 46.72C205.527 46.688 205.815 46.664 206.087 46.648C206.359 46.632 206.655 46.624 206.975 46.624C207.303 46.616 207.691 46.612 208.139 46.612ZM206.411 46.72V55H205.223V46.72H206.411Z" fill="white"/>
</svg>
